<svg width="65" height="65" viewBox="0 0 65 65" fill="none" xmlns="http://www.w3.org/2000/svg">
<g clip-path="url(#clip0_499_450)">
<path d="M5.20862 6.94374C5.2123 6.81853 5.21782 6.71679 5.21782 6.617C5.21782 5.20243 5.21966 3.78785 5.21782 2.37328C5.21782 2.14828 5.23992 1.92719 5.30067 1.71001C5.47742 1.07805 5.86775 0.635875 6.39984 0.324786C6.70547 0.146742 7.03688 0.0371756 7.38486 0.0215233C7.72915 0.00391451 8.07529 -0.00391163 8.41958 0.0156537C8.98298 0.0469583 9.48745 0.262177 9.91092 0.655441C10.3896 1.09957 10.6437 1.65914 10.64 2.34784C10.6345 3.62937 10.6363 4.91286 10.6345 6.19439C10.6345 6.36657 10.6363 6.5407 10.64 6.71287C10.6419 6.77157 10.6547 6.83026 10.6621 6.88896C10.6989 6.90266 10.7247 6.92222 10.7505 6.92222C13.144 6.92418 15.5393 6.92418 17.9328 6.92418C17.9696 6.92418 18.0046 6.90853 18.058 6.89679C18.0635 6.80287 18.0746 6.71287 18.0746 6.62483C18.0764 5.22004 18.0727 3.81524 18.0783 2.41045C18.0783 2.19915 18.0893 1.98001 18.1353 1.77458C18.2587 1.21305 18.5809 0.790442 19.0209 0.467613C19.3928 0.195655 19.8089 0.0450017 20.2563 0.0176103C20.6006 -0.00391163 20.9468 -0.0136943 21.2892 0.0156537C21.941 0.0704367 22.5136 0.332612 22.9573 0.862833C23.3034 1.27371 23.4876 1.74914 23.4857 2.30676C23.4839 3.72133 23.4857 5.13591 23.4857 6.55048C23.4857 6.66005 23.4912 6.77157 23.4931 6.86744C23.5833 6.94961 23.6735 6.92613 23.7564 6.92613C24.3124 6.92809 24.8666 6.92809 25.4226 6.92809C26.7243 6.92809 28.0278 6.92809 29.3295 6.92809C29.4418 6.92809 29.556 6.92222 29.6683 6.91831C29.7291 6.79505 29.7088 6.68157 29.7088 6.572C29.7107 5.61526 29.7107 4.65851 29.7107 3.70177C29.7107 3.25372 29.7088 2.80567 29.7088 2.35763C29.7088 1.55153 30.0421 0.929356 30.6588 0.477396C31.0713 0.174133 31.5316 0.00978411 32.0323 0.00782758C32.4429 0.00587104 32.8553 -0.023477 33.2641 0.0626105C33.8109 0.178046 34.2657 0.459787 34.6339 0.898051C34.9598 1.28544 35.1126 1.74914 35.1328 2.26567C35.1365 2.36741 35.1347 2.46915 35.1347 2.57089C35.1328 3.82307 35.1328 5.07525 35.131 6.32743C35.131 6.50939 35.1384 6.69135 35.142 6.88896C35.2175 6.90266 35.2801 6.92027 35.3446 6.92222C35.6226 6.92613 35.9006 6.92809 36.1786 6.92809C38.1321 6.92809 40.0855 6.92809 42.0408 6.92809C42.201 6.92809 42.3649 6.94374 42.538 6.89679C42.5472 6.82635 42.5619 6.75787 42.5619 6.68939C42.5637 6.20026 42.5637 5.71308 42.5637 5.22395C42.5637 4.25742 42.5674 3.29089 42.5619 2.32241C42.5582 1.7061 42.7699 1.18762 43.1787 0.76305C43.6426 0.281742 44.206 0.0273929 44.8578 0.00782758C45.1542 1.43704e-06 45.4525 -0.00586817 45.7489 0.0117406C46.4412 0.0508713 47.0285 0.350221 47.4851 0.903921C47.8129 1.29914 47.9786 1.76871 47.9786 2.30284C47.9767 3.35155 47.9767 4.40025 47.9767 5.44699C47.9767 5.82265 47.9767 6.20026 47.9749 6.57591C47.9749 6.67765 47.9749 6.77744 47.9749 6.85374C48.0577 6.96135 48.1498 6.94374 48.2308 6.9594C48.5125 7.01418 48.7997 7.05135 49.0759 7.12766C50.1456 7.41918 51.0422 8.02179 51.7861 8.88071C52.6753 9.90985 53.2001 11.1249 53.351 12.5101C53.4044 12.9933 53.3952 13.4864 53.3971 13.9736C53.4026 15.1749 53.3952 16.3762 53.3952 17.5775C53.3952 18.1977 53.4063 18.8199 53.4081 19.4401C53.4081 19.6945 53.3934 19.9488 53.3934 20.2032C53.3915 21.1091 53.3934 22.0149 53.3934 22.9208C53.3934 23.766 53.3915 24.6093 53.3934 25.4545C53.3952 26.5932 53.4026 27.7339 53.4044 28.8726C53.4063 29.7374 53.4063 30.6022 53.4044 31.467C53.4026 32.5763 53.3952 33.6857 53.3934 34.795C53.3915 35.6187 53.3934 36.4444 53.3934 37.2681C53.3934 37.99 53.3915 38.714 53.3934 39.4359C53.3952 40.647 53.4007 41.8581 53.4044 43.0692C53.4063 43.9242 53.4063 44.7792 53.4044 45.6342C53.4026 46.7749 53.3952 47.9136 53.3934 49.0542C53.3915 49.9092 53.3915 50.7642 53.3934 51.6193C53.3952 52.709 53.3989 53.7969 53.4044 54.8867C53.4081 55.4775 53.3823 56.0684 53.3032 56.6534C53.2277 57.211 53.0657 57.7432 52.8447 58.2539C52.3863 59.3124 51.7143 60.185 50.8121 60.8521C50.175 61.3237 49.4717 61.6289 48.7095 61.7913C48.321 61.8735 47.9344 61.8989 47.5385 61.8969C46.6474 61.8911 45.7563 61.9008 44.867 61.9008C43.9188 61.9008 42.9706 61.895 42.0224 61.895C40.4703 61.895 38.9201 61.9008 37.368 61.9008C35.9024 61.9008 34.4369 61.895 32.9713 61.895C31.4303 61.895 29.8874 61.9008 28.3464 61.9008C26.8421 61.9008 25.3398 61.8969 23.8355 61.895C22.5817 61.893 21.3261 61.893 20.0722 61.895C18.5883 61.8969 17.1025 61.9008 15.6185 61.9008C14.1732 61.9008 12.726 61.895 11.2807 61.895C9.81518 61.895 8.34962 61.8989 6.88406 61.9008C6.42378 61.9008 5.96533 61.895 5.50504 61.8969C5.00977 61.8969 4.5366 61.7737 4.0671 61.625C3.35089 61.3961 2.71202 61.0106 2.1431 60.498C1.33668 59.7702 0.747507 58.88 0.382959 57.8273C0.134404 57.1054 0.00184115 56.358 0.00184115 55.5852C0.00184115 54.1295 0.00184115 52.6738 0 51.2182C0.00552345 49.9934 0 48.7725 0 47.5516C0 46.2701 0.00552345 44.9866 0.00552345 43.7051C0.0073646 42.1164 0.0073646 40.5296 0.00552345 38.9409C0.00552345 37.7709 0 36.6009 0 35.4289C0 34.3294 0.00552345 33.2298 0.00552345 32.1322C0.00552345 30.9309 0 29.7296 0 28.5302C0 27.278 0.00552345 26.0258 0.00552345 24.7756C0.00552345 23.6662 0 22.5569 0 21.4475C0 19.5438 0.00184115 17.6401 0.00184115 15.7384C0.00184115 14.9244 -0.00184115 14.1105 0.0036823 13.2966C0.00920575 12.4005 0.162021 11.5338 0.500793 10.712C1.08996 9.27789 2.03631 8.19397 3.36562 7.50527C3.88483 7.23527 4.43717 7.07092 5.00977 6.98092C5.06501 6.97113 5.12024 6.9594 5.20862 6.94374ZM26.7667 24.3628C24.966 24.3608 23.1654 24.3608 21.3647 24.3608C19.5641 24.3608 17.7634 24.3608 15.9628 24.3608C14.1051 24.3608 12.2473 24.3608 10.3896 24.3608C9.26835 24.3608 8.14893 24.3589 7.02767 24.3589C6.61526 24.3589 6.20468 24.3608 5.79226 24.3686C5.56212 24.3726 5.3375 24.398 5.11288 24.4684C4.49793 24.6582 3.73385 25.3978 3.53501 26.2019C3.45768 26.511 3.40797 26.8163 3.40981 27.1332C3.41349 28.313 3.41718 29.4948 3.41718 30.6746C3.41718 31.9776 3.40981 33.2787 3.40981 34.5818C3.40981 35.6696 3.41718 36.7594 3.41718 37.8472C3.41718 39.119 3.40981 40.3907 3.40981 41.6625C3.40981 42.7522 3.41718 43.8401 3.41718 44.9299C3.41718 46.2329 3.41165 47.534 3.40981 48.8371C3.40981 49.8956 3.41718 50.954 3.41718 52.0125C3.41718 53.1727 3.41534 54.333 3.40797 55.4932C3.40613 55.9373 3.45584 56.3639 3.63627 56.7708C4.07263 57.753 4.79067 58.2891 5.81988 58.3302C6.16417 58.3439 6.50847 58.34 6.8546 58.34C7.76413 58.338 8.67366 58.3341 9.58319 58.3321C10.4356 58.3321 11.2881 58.338 12.1405 58.338C13.0795 58.338 14.0167 58.3321 14.9557 58.3321C15.8173 58.3321 16.679 58.338 17.5406 58.338C18.4796 58.338 19.4168 58.3321 20.3558 58.3321C21.2174 58.3321 22.0791 58.338 22.9407 58.338C23.8889 58.338 24.8371 58.3321 25.7853 58.3321C26.6562 58.3321 27.5289 58.34 28.3998 58.338C29.3387 58.338 30.2759 58.3321 31.2149 58.3321C32.1244 58.3321 33.0339 58.34 33.9435 58.34C34.8824 58.34 35.8196 58.3341 36.7586 58.3341C37.6865 58.3341 38.6163 58.34 39.5442 58.34C40.4446 58.34 41.3449 58.3341 42.2452 58.3341C43.1069 58.3341 43.9685 58.34 44.8302 58.34C45.7968 58.34 46.7652 58.336 47.7318 58.34C48.3339 58.3419 48.8678 58.1326 49.3115 57.7139C49.8915 57.168 50.1916 56.4656 50.2008 55.638C50.2082 55.0373 50.2027 54.4367 50.2027 53.836C50.2008 52.5427 50.1953 51.2514 50.1953 49.9582C50.1953 48.8586 50.2027 47.761 50.2027 46.6614C50.2027 45.3584 50.1971 44.0573 50.1953 42.7542C50.1953 41.7172 50.2027 40.6783 50.2027 39.6414C50.2027 38.3187 50.1971 36.9961 50.1953 35.6735C50.1953 34.5837 50.2027 33.4959 50.2027 32.4061C50.2027 31.1128 50.1971 29.8215 50.1953 28.5282C50.1953 28.0606 50.2045 27.5911 50.2008 27.1234C50.1971 26.7341 50.1253 26.3565 49.9946 25.9906C49.6522 25.028 48.7021 24.3413 47.7963 24.3647C47.5293 24.3726 47.2605 24.3569 46.9917 24.3569C45.8999 24.3569 44.8081 24.3608 43.7163 24.3608C38.0676 24.3628 32.4171 24.3628 26.7667 24.3628ZM42.5527 11.7196C42.4901 11.7431 42.4698 11.747 42.4551 11.7568C42.4238 11.7783 42.3925 11.8057 42.363 11.8312C41.9561 12.1814 41.6358 12.6099 41.378 13.0931C40.9141 13.9638 40.741 14.9029 40.8625 15.889C41.1276 18.0158 42.7423 19.6456 44.7289 19.8686C45.5979 19.9664 46.4283 19.8119 47.2071 19.3873C48.1461 18.8766 48.8328 18.1058 49.2489 17.0766C49.5785 16.2627 49.6706 15.4116 49.5233 14.5351C49.3465 13.4962 48.8881 12.6255 48.1498 11.9212C48.1093 11.884 48.0725 11.8273 47.9896 11.8683C47.9859 11.9094 47.9786 11.9583 47.9786 12.0073C47.9767 12.6177 47.9767 13.2281 47.9767 13.8386C47.9767 14.2866 47.9767 14.7347 47.973 15.1827C47.9675 15.7266 47.7834 16.1962 47.4336 16.5914C46.9954 17.0864 46.4541 17.3721 45.8152 17.4171C45.482 17.4406 45.145 17.4308 44.8099 17.4229C44.3257 17.4132 43.8894 17.2429 43.4954 16.9514C42.8878 16.5034 42.5619 15.8949 42.5637 15.0947C42.5674 14.0773 42.5637 13.0599 42.5619 12.0425C42.5637 11.9407 42.5582 11.8429 42.5527 11.7196ZM5.21966 11.792C5.10735 11.884 5.04291 11.927 4.99136 11.9799C3.87931 13.1264 3.41902 14.5136 3.68783 16.1375C3.97136 17.8553 5.20862 19.2914 6.89695 19.7512C7.55977 19.9332 8.23731 19.9469 8.91669 19.7943C9.68814 19.6221 10.3675 19.2582 10.9364 18.6966C12.1129 17.5384 12.5806 16.1042 12.286 14.4177C12.1074 13.4023 11.6232 12.5629 10.8996 11.8801C10.837 11.8214 10.7799 11.747 10.6658 11.747C10.6566 11.8136 10.6419 11.8801 10.6419 11.9486C10.64 12.5394 10.64 13.1284 10.6382 13.7192C10.6382 14.2084 10.64 14.6955 10.6345 15.1847C10.6271 15.8108 10.3915 16.3312 9.95694 16.744C9.5298 17.151 9.02532 17.3799 8.45088 17.4171C8.1655 17.4347 7.87644 17.4288 7.58922 17.4308C7.24861 17.4347 6.92273 17.3564 6.61157 17.2175C5.86959 16.8869 5.19941 16.1355 5.21966 15.036C5.23807 14.0812 5.2215 13.1244 5.21966 12.1677C5.21966 12.064 5.21966 11.9642 5.21966 11.792ZM18.0598 11.7294C17.9844 11.7823 17.9494 11.8018 17.9218 11.8273C16.7103 12.9679 16.18 14.3903 16.4562 16.0905C16.7213 17.7282 17.6272 18.8864 19.0559 19.5243C20.3834 20.1171 21.709 20.033 22.9757 19.2621C23.5851 18.8903 24.0859 18.3914 24.4597 17.7634C25.0397 16.789 25.2661 15.7286 25.0857 14.584C24.9181 13.5118 24.4431 12.6138 23.679 11.8918C23.633 11.8488 23.5925 11.7764 23.4949 11.8116C23.4912 11.9055 23.4857 12.0053 23.4857 12.1051C23.4857 13.101 23.4839 14.0988 23.4894 15.0947C23.4931 15.7795 23.2408 16.341 22.7585 16.7832C22.3405 17.1666 21.8508 17.3858 21.2966 17.4151C20.9818 17.4327 20.6651 17.4288 20.3502 17.4249C19.9894 17.421 19.6451 17.329 19.3284 17.1529C18.5293 16.7069 18.0543 16.0338 18.0746 15.036C18.0746 14.9949 18.0764 14.9538 18.0764 14.9147C18.0764 13.9384 18.0783 12.962 18.0783 11.9857C18.0746 11.9153 18.0672 11.8488 18.0598 11.7294ZM35.1531 11.7412C35.1457 11.8625 35.1384 11.9231 35.1384 11.9838C35.1365 12.5747 35.1365 13.1636 35.1365 13.7544C35.1365 14.2123 35.1384 14.6701 35.1328 15.1279C35.1273 15.6445 34.9782 16.1082 34.6597 16.5034C34.2141 17.0571 33.6434 17.3623 32.964 17.4171C32.6491 17.4425 32.3325 17.4269 32.0158 17.4229C31.5131 17.4151 31.0547 17.2508 30.6441 16.9475C30.0421 16.5073 29.7272 15.8968 29.7125 15.1181C29.7088 14.9558 29.7107 14.7934 29.7107 14.629C29.7107 13.774 29.7107 12.919 29.7088 12.064C29.7088 11.9779 29.7309 11.884 29.6591 11.792C29.5983 11.839 29.5413 11.8742 29.4952 11.9173C29.243 12.154 29.0221 12.4201 28.8306 12.7155C28.1402 13.7857 27.9063 14.9616 28.1494 16.2314C28.5231 18.1821 30.0642 19.6377 31.9108 19.8667C32.8572 19.984 33.7685 19.8099 34.5989 19.2953C35.8398 18.5264 36.6039 17.3916 36.7788 15.8597C36.9593 14.2768 36.4437 12.964 35.3483 11.8918C35.3022 11.8468 35.247 11.8136 35.1531 11.7412Z" fill="#7CACE3"/>
<path d="M11.7391 26.605C12.8015 26.605 13.8657 26.605 14.928 26.605C15.0238 26.605 15.1195 26.601 15.2152 26.605C15.346 26.6108 15.3809 26.65 15.3809 26.7947C15.3828 27.2839 15.3828 27.7711 15.3828 28.2602C15.3809 29.5535 15.3791 30.8448 15.3773 32.138C15.3773 32.4393 15.3644 32.455 15.0919 32.455C14.221 32.453 13.3483 32.4491 12.4774 32.4472C11.5863 32.4472 10.6971 32.4511 9.80593 32.453C9.27016 32.453 8.73254 32.453 8.19677 32.453C8.17836 32.453 8.1581 32.453 8.13969 32.4511C8.03659 32.4413 7.9924 32.3904 7.98504 32.2711C7.98135 32.2007 7.98504 32.1283 7.98504 32.0578C7.98872 30.8154 7.9924 29.575 7.99424 28.3326C7.99424 27.8748 7.98872 27.4169 7.98504 26.9591C7.98504 26.8984 7.98135 26.8358 7.98504 26.7752C7.9924 26.6656 8.04211 26.6108 8.1489 26.601C8.22438 26.5932 8.30171 26.5971 8.37904 26.5971C9.5003 26.5971 10.6197 26.5971 11.741 26.5971C11.7391 26.5991 11.7391 26.601 11.7391 26.605Z" fill="#7CACE3"/>
<path d="M11.3415 55.863C10.4228 55.863 9.50406 55.863 8.58349 55.863C8.36255 55.863 8.14345 55.8708 7.92251 55.8728C7.86544 55.8728 7.80652 55.8728 7.75129 55.861C7.69053 55.8473 7.64818 55.8043 7.63898 55.7378C7.62977 55.6673 7.62793 55.5969 7.62793 55.5245C7.62977 54.3643 7.63529 53.2041 7.63714 52.0458C7.63898 51.4862 7.63529 50.9266 7.63529 50.3671C7.63529 50.3358 7.63345 50.3064 7.63529 50.2751C7.64266 50.0677 7.6758 50.0325 7.87648 50.0266C8.07717 50.0227 8.27786 50.0188 8.48038 50.0188C9.42858 50.0208 10.3768 50.0266 11.3231 50.0266C12.2419 50.0266 13.1606 50.0208 14.0812 50.0188C14.3205 50.0188 14.5599 50.0208 14.7992 50.0266C14.987 50.0306 15.022 50.0658 15.0257 50.2556C15.0294 50.4786 15.033 50.7036 15.0312 50.9266C15.0294 52.2493 15.0257 53.5719 15.0238 54.8945C15.0238 55.098 15.0275 55.3015 15.0312 55.5049C15.0367 55.8571 15.022 55.8747 14.7016 55.8728C14.5009 55.8708 14.3003 55.863 14.0977 55.863C13.1808 55.863 12.2621 55.863 11.3415 55.863Z" fill="#7CACE3"/>
<path d="M42.2543 55.863C41.9192 55.863 41.5841 55.863 41.249 55.863C40.4831 55.863 39.7172 55.863 38.9513 55.863C38.8942 55.863 38.8371 55.8688 38.7782 55.8649C38.6806 55.8591 38.6364 55.818 38.6254 55.7202C38.6199 55.6693 38.6199 55.6184 38.6199 55.5675C38.6199 54.0219 38.6199 52.4743 38.6217 50.9286C38.6217 50.6938 38.6217 50.461 38.6272 50.2262C38.6309 50.0697 38.6733 50.0227 38.8169 50.0188C39.047 50.0149 39.2772 50.0188 39.5055 50.0188C40.5015 50.0188 41.4976 50.0188 42.4918 50.0188C43.5063 50.0208 44.5208 50.0247 45.5371 50.0266C45.642 50.0266 45.747 50.0208 45.8538 50.0247C45.9587 50.0286 46.0121 50.0834 46.0176 50.1969C46.0231 50.3182 46.0176 50.4414 46.0176 50.5627C46.0176 51.0401 46.0176 51.5195 46.0176 51.9969C46.0176 53.1473 46.0176 54.2958 46.0139 55.4462C46.0121 55.8728 46.0066 55.8728 45.6144 55.8728C44.6478 55.8689 43.6812 55.8669 42.7128 55.863C42.5618 55.863 42.4071 55.863 42.2543 55.863Z" fill="#7CACE3"/>
<path d="M22.0791 26.603C23.2078 26.603 24.3382 26.603 25.4669 26.603C25.7485 26.603 25.7633 26.6167 25.7633 26.9063C25.7633 27.2937 25.7559 27.6791 25.7559 28.0665C25.7559 28.5556 25.7633 29.0428 25.7633 29.5319C25.7651 30.3869 25.7633 31.24 25.7633 32.095C25.7633 32.1556 25.7651 32.2163 25.7614 32.2789C25.7541 32.4002 25.7136 32.4452 25.6031 32.453C25.5552 32.457 25.5074 32.455 25.4595 32.453C24.2922 32.453 23.1249 32.453 21.9558 32.453C20.8548 32.453 19.7538 32.453 18.6546 32.453C18.6067 32.453 18.5589 32.455 18.511 32.4511C18.4337 32.4433 18.3858 32.3963 18.3784 32.318C18.3729 32.2378 18.3747 32.1556 18.3747 32.0735C18.3766 30.8526 18.3803 29.6317 18.3803 28.4108C18.3803 27.9334 18.3766 27.4541 18.3747 26.9767C18.3747 26.9063 18.3711 26.8339 18.3766 26.7634C18.3839 26.65 18.43 26.605 18.5441 26.601C18.7651 26.5971 18.9842 26.5971 19.2051 26.5971C20.1625 26.5971 21.1199 26.5971 22.0773 26.5971C22.0791 26.5991 22.0791 26.601 22.0791 26.603Z" fill="#7CACE3"/>
<path d="M42.6538 32.4452C41.5326 32.4452 40.4131 32.4452 39.2919 32.4452C39.2624 32.4452 39.2348 32.4472 39.2053 32.4452C38.9991 32.4393 38.9789 32.4198 38.9789 32.1948C38.9789 31.5433 38.9807 30.8917 38.9807 30.2402C38.9807 29.8019 38.9734 29.3656 38.9715 28.9274C38.9697 28.2152 38.9715 27.503 38.9715 26.7908C38.9715 26.65 39.0083 26.603 39.1335 26.5952C39.1906 26.5913 39.2477 26.5952 39.3066 26.5952C40.7519 26.5971 42.1991 26.601 43.6444 26.603C44.4397 26.603 45.2333 26.5991 46.0287 26.5952C46.0581 26.5952 46.0857 26.5952 46.1152 26.5952C46.3324 26.5873 46.3785 26.6597 46.3711 26.8847C46.3582 27.3015 46.3674 27.7182 46.3674 28.1369C46.3656 28.6456 46.3619 29.1543 46.3619 29.663C46.3619 30.4867 46.3619 31.3124 46.3619 32.1361C46.3619 32.4315 46.349 32.4472 46.071 32.4472C44.9332 32.4472 43.7935 32.4452 42.6538 32.4452Z" fill="#7CACE3"/>
<path d="M11.5218 42.312C11.9619 42.312 12.4019 42.314 12.8419 42.312C13.1292 42.3101 13.4164 42.3003 13.7036 42.3003C14.1252 42.3003 14.545 42.3062 14.9666 42.3101C15.1452 42.312 15.1876 42.3531 15.1894 42.5429C15.1931 43.214 15.1931 43.8851 15.1931 44.5562C15.1931 44.9729 15.1949 45.3896 15.1949 45.8064C15.1931 46.5088 15.1931 47.2112 15.1894 47.9116C15.1876 48.0955 15.1415 48.1405 14.9611 48.1405C14.2909 48.1425 13.6207 48.1386 12.9506 48.1405C11.323 48.1425 9.69542 48.1445 8.06784 48.1464C8.03838 48.1464 8.01076 48.1484 7.9813 48.1464C7.86715 48.1386 7.82665 48.0995 7.8156 47.9801C7.81192 47.939 7.81192 47.8979 7.81192 47.8588C7.81192 46.0979 7.81192 44.339 7.81192 42.5781C7.81192 42.5272 7.81008 42.4764 7.81928 42.4255C7.83033 42.3609 7.86715 42.314 7.93343 42.3062C7.9721 42.3022 8.00892 42.3042 8.04758 42.3042C8.41213 42.3042 8.77484 42.3062 9.13939 42.3062C9.34007 42.3062 9.54076 42.3081 9.74329 42.3081C10.3361 42.312 10.929 42.312 11.5218 42.312Z" fill="#7CACE3"/>
<path d="M21.9005 48.1425C20.781 48.1425 19.6616 48.1425 18.5422 48.1425C18.22 48.1425 18.2071 48.1288 18.2071 47.7786C18.2071 46.8434 18.2071 45.9081 18.2071 44.9729C18.2071 44.1903 18.2053 43.4077 18.2071 42.6251C18.2071 42.3355 18.2292 42.312 18.498 42.3101C19.3302 42.3062 20.1624 42.3003 20.9946 42.2983C21.2524 42.2983 21.512 42.3101 21.7697 42.3101C22.0956 42.3101 22.4197 42.3003 22.7456 42.2983C23.5115 42.2964 24.2756 42.2964 25.0415 42.2983C25.1759 42.2983 25.3103 42.3042 25.4428 42.3159C25.5367 42.3238 25.5791 42.3766 25.5901 42.4725C25.5938 42.5135 25.5938 42.5546 25.5938 42.5938C25.5938 43.2962 25.592 43.9966 25.5938 44.699C25.5938 45.1353 25.6012 45.5736 25.6012 46.0099C25.6012 46.6203 25.5975 47.2307 25.5938 47.8392C25.5938 47.8705 25.5957 47.8999 25.5938 47.9312C25.5846 48.0858 25.5441 48.1347 25.4042 48.1405C25.2808 48.1464 25.1556 48.1405 25.0304 48.1405C23.9865 48.1405 22.9426 48.1405 21.9005 48.1425C21.9005 48.1405 21.9005 48.1405 21.9005 48.1425Z" fill="#7CACE3"/>
<path d="M32.2864 26.5971C33.4058 26.5971 34.5252 26.5971 35.6447 26.5971C35.9761 26.5971 35.9779 26.5952 35.9779 26.9532C35.9761 28.3365 35.9742 29.7178 35.9742 31.1011C35.9742 31.4356 35.9779 31.7722 35.9779 32.1067C35.9779 32.1772 35.9797 32.2496 35.9724 32.32C35.965 32.3865 35.9227 32.4296 35.8601 32.4413C35.8232 32.4472 35.7846 32.4472 35.7459 32.4472C35.2009 32.4472 34.656 32.4452 34.1091 32.4472C33.2107 32.4491 32.3103 32.4511 31.4118 32.453C30.5796 32.455 29.7474 32.453 28.9152 32.453C28.8858 32.453 28.8582 32.453 28.8287 32.4511C28.628 32.4413 28.6023 32.4139 28.6004 32.1948C28.5986 31.5746 28.6004 30.9543 28.6004 30.3341C28.6004 29.9272 28.5967 29.5202 28.5949 29.1132C28.593 28.3404 28.593 27.5676 28.5949 26.7947C28.5949 26.6421 28.6372 26.5991 28.7864 26.5971C29.2743 26.5952 29.7622 26.5952 30.2501 26.5952C30.9276 26.5971 31.607 26.5971 32.2864 26.5971Z" fill="#7CACE3"/>
<path d="M21.7201 55.8708C21.3666 55.8708 21.0113 55.8728 20.6578 55.8708C20.3319 55.8689 20.006 55.863 19.6801 55.8649C19.2401 55.8649 18.7982 55.8708 18.3582 55.8728C18.3011 55.8728 18.2422 55.8767 18.1851 55.8728C18.0949 55.8649 18.0489 55.818 18.0378 55.7182C18.0304 55.6576 18.0323 55.5969 18.0323 55.5362C18.0323 55.0178 18.0341 54.4973 18.0323 53.9788C18.0304 52.7873 18.0286 51.5977 18.0249 50.4062C18.0231 50.0286 18.0212 50.0286 18.3674 50.0286C19.2585 50.0266 20.1478 50.0208 21.0389 50.0208C22.0165 50.0208 22.9924 50.0266 23.97 50.0286C24.3143 50.0286 24.6586 50.0227 25.0047 50.0208C25.0526 50.0208 25.1005 50.0188 25.1483 50.0208C25.3674 50.0266 25.4006 50.0599 25.4024 50.2849C25.4061 50.7232 25.4079 51.1595 25.4079 51.5977C25.4079 52.1162 25.4079 52.6367 25.4079 53.1551C25.4079 53.9593 25.4079 54.7634 25.4098 55.5676C25.4098 55.5989 25.4116 55.6282 25.4098 55.6595C25.4006 55.8278 25.3601 55.8689 25.1944 55.8689C24.5721 55.8689 23.9498 55.8669 23.3274 55.8669C22.7917 55.8669 22.2541 55.8669 21.7183 55.8669C21.7201 55.8669 21.7201 55.8689 21.7201 55.8708Z" fill="#7CACE3"/>
<path d="M31.9588 50.0286C32.9162 50.0286 33.8718 50.0286 34.8292 50.0286C35.0298 50.0286 35.2305 50.0188 35.4312 50.0208C35.5767 50.0227 35.619 50.0677 35.6282 50.2184C35.6319 50.2693 35.6282 50.3201 35.6282 50.371C35.6264 51.541 35.6227 52.7091 35.6208 53.8791C35.6208 54.4386 35.619 54.9982 35.6227 55.5578C35.6245 55.8278 35.5895 55.8708 35.3318 55.8689C34.2602 55.8591 33.1887 55.8649 32.1171 55.8649C31.1413 55.8669 30.1655 55.8708 29.1897 55.8728C28.9504 55.8728 28.711 55.8689 28.4717 55.8649C28.2912 55.861 28.2507 55.8219 28.247 55.6321C28.2415 55.2154 28.2397 54.7986 28.2397 54.3819C28.2378 53.8536 28.2378 53.3254 28.2397 52.7951C28.2415 52.2258 28.2452 51.6564 28.247 51.0871C28.247 50.864 28.2415 50.639 28.2397 50.416C28.2397 50.3553 28.236 50.2947 28.2397 50.2321C28.247 50.0677 28.2912 50.0247 28.4551 50.0188C28.503 50.0169 28.5508 50.0188 28.5987 50.0188C29.3738 50.0227 30.1489 50.0247 30.9241 50.0286C31.2702 50.0286 31.6145 50.0286 31.9588 50.0286Z" fill="#7CACE3"/>
<path d="M42.4828 48.1445C41.3818 48.1445 40.2826 48.1445 39.1816 48.1445C39.1153 48.1445 39.0472 48.1484 38.9809 48.1445C38.8612 48.1366 38.8134 48.0838 38.8042 47.9527C38.8005 47.8921 38.8042 47.8314 38.8042 47.7708C38.8078 46.591 38.8134 45.4131 38.8134 44.2333C38.8134 43.6953 38.8042 43.1553 38.8023 42.6172C38.8005 42.3277 38.8281 42.2983 39.0914 42.2983C39.9328 42.3022 40.7742 42.3081 41.6174 42.3101C41.9617 42.3101 42.306 42.2983 42.6503 42.2983C43.2248 42.2983 43.7992 42.3062 44.3718 42.3081C44.8689 42.3081 45.366 42.3042 45.865 42.3022C45.9221 42.3022 45.9791 42.3003 46.0362 42.3042C46.143 42.312 46.1853 42.357 46.1927 42.4783C46.1964 42.539 46.1945 42.5996 46.1945 42.6603C46.1945 44.3683 46.1945 46.0764 46.1945 47.7845C46.1945 47.8647 46.1945 47.9468 46.1853 48.0271C46.1761 48.0936 46.1301 48.1327 46.0675 48.1425C46.0307 48.1484 45.992 48.1445 45.9534 48.1445C45.5612 48.1445 45.169 48.1445 44.7769 48.1445C44.0128 48.1464 43.2487 48.1464 42.4828 48.1445Z" fill="#7CACE3"/>
<path d="M7.84693 40.1227C7.83589 40.0679 7.81563 40.0092 7.81379 39.9524C7.80827 39.7998 7.81011 39.6472 7.81011 39.4946C7.81195 38.1211 7.81379 36.7476 7.81563 35.3741C7.81563 35.1198 7.81011 34.8654 7.81011 34.6111C7.81011 34.5504 7.81011 34.4898 7.81563 34.4291C7.823 34.3607 7.86534 34.3215 7.92978 34.3117C7.9574 34.3078 7.98686 34.3078 8.01632 34.3078C8.6865 34.3118 9.35668 34.3176 10.0269 34.3176C10.9272 34.3176 11.8257 34.3137 12.726 34.3117C13.4735 34.3098 14.2192 34.3098 14.9667 34.3078C14.9851 34.3078 15.0053 34.3059 15.0237 34.3078C15.1563 34.3157 15.2005 34.3568 15.2023 34.4898C15.206 34.662 15.2005 34.8361 15.2005 35.0083C15.2005 35.4759 15.2005 35.9435 15.2005 36.4111C15.1986 36.8787 15.1931 37.3463 15.1931 37.8139C15.1931 38.4557 15.1986 39.0955 15.2023 39.7372C15.2042 40.1637 15.1968 40.1559 14.8046 40.1559C13.8951 40.154 12.9856 40.1598 12.0761 40.1618C10.8222 40.1637 9.56841 40.1637 8.31458 40.1598C8.15993 40.1618 8.00527 40.1872 7.84693 40.1227Z" fill="#7CACE3"/>
<path d="M25.5403 40.1266C25.4869 40.1364 25.4225 40.154 25.3581 40.1559C25.2053 40.1618 25.0524 40.1618 24.8996 40.1618C23.9238 40.1598 22.948 40.1559 21.9722 40.1559C20.8344 40.154 19.6947 40.1559 18.5569 40.1559C18.207 40.1559 18.1997 40.152 18.1978 39.7861C18.1978 39.3087 18.207 38.8294 18.207 38.352C18.2052 37.1526 18.1997 35.9513 18.196 34.752C18.196 34.66 18.1923 34.5681 18.1997 34.4781C18.207 34.3685 18.2567 34.3215 18.3691 34.3118C18.4445 34.3059 18.5219 34.3098 18.5992 34.3098C19.4793 34.3118 20.3593 34.3157 21.2394 34.3176C22.4546 34.3196 23.6697 34.3176 24.8849 34.3176C25.0469 34.3176 25.2108 34.3078 25.3728 34.3098C25.5551 34.3118 25.5956 34.3528 25.6011 34.5387C25.6048 34.6815 25.6011 34.8244 25.6011 34.9652C25.6011 35.4642 25.6029 35.9611 25.6011 36.46C25.5993 36.9276 25.5937 37.3953 25.5937 37.8629C25.5937 38.4929 25.6011 39.1229 25.5993 39.7548C25.5974 39.8761 25.6232 40.0014 25.5403 40.1266Z" fill="#7CACE3"/>
<path d="M32.1097 42.312C32.9032 42.312 33.6967 42.312 34.4921 42.312C34.7315 42.312 34.9708 42.3062 35.2102 42.3022C35.3243 42.3003 35.4403 42.2964 35.5545 42.2983C35.7828 42.3022 35.8159 42.3394 35.8141 42.5859C35.8104 43.8068 35.8049 45.0257 35.803 46.2466C35.803 46.7651 35.8104 47.2836 35.8122 47.8021C35.8122 47.8725 35.8141 47.9449 35.8067 48.0153C35.7993 48.0818 35.757 48.1268 35.6944 48.1366C35.6281 48.1464 35.5618 48.1484 35.4937 48.1484C34.0871 48.1464 32.6804 48.1405 31.2738 48.1405C30.4213 48.1405 29.5707 48.1444 28.7183 48.1484C28.6888 48.1484 28.6612 48.1503 28.6317 48.1484C28.4366 48.1425 28.4016 48.1073 28.4034 47.8921C28.4053 47.5164 28.4145 47.1388 28.4145 46.7631C28.4126 45.3896 28.409 44.0181 28.4034 42.6446C28.4016 42.314 28.42 42.2964 28.7219 42.3003C29.1049 42.3042 29.4879 42.3003 29.869 42.3022C30.1359 42.3022 30.4048 42.3081 30.6717 42.3081C31.1504 42.3101 31.6291 42.3081 32.106 42.3081C32.1097 42.3081 32.1097 42.3101 32.1097 42.312Z" fill="#7CACE3"/>
<path d="M42.5178 40.1637C41.3781 40.1637 40.2403 40.1598 39.1006 40.1657C38.8336 40.1677 38.7784 40.1305 38.8134 39.8331C38.8263 39.7333 38.8171 39.6296 38.8171 39.5279C38.8171 38.6024 38.8171 37.677 38.8171 36.7515C38.8171 36.0609 38.8171 35.3683 38.8171 34.6776C38.8171 34.6365 38.8152 34.5954 38.8171 34.5563C38.8226 34.3607 38.8557 34.3196 39.0325 34.3176C39.3197 34.3117 39.6069 34.3098 39.8941 34.3117C40.7834 34.3137 41.6745 34.3176 42.5638 34.3176C43.5488 34.3176 44.5357 34.3137 45.5207 34.3117C45.6938 34.3117 45.865 34.3117 46.0381 34.3176C46.1375 34.3215 46.178 34.3646 46.1872 34.4644C46.1927 34.5152 46.1909 34.5661 46.1909 34.617C46.1909 36.3876 46.1909 38.1563 46.1909 39.927C46.1909 39.9681 46.1927 40.0092 46.189 40.0483C46.1817 40.1187 46.1412 40.1559 46.0767 40.1657C46.0399 40.1716 46.0012 40.1677 45.9626 40.1677C45.552 40.1677 45.1396 40.1657 44.729 40.1657C43.9925 40.1618 43.2542 40.1637 42.5178 40.1637Z" fill="#7CACE3"/>
<path d="M32.0821 40.1559C31.0861 40.1559 30.09 40.1559 29.0939 40.1559C28.9209 40.1559 28.7496 40.1657 28.5766 40.1637C28.4422 40.1618 28.4035 40.1168 28.4053 39.9798C28.4072 38.982 28.4127 37.9861 28.4145 36.9883C28.4164 36.2057 28.4145 35.4211 28.4145 34.6385C28.4145 34.3372 28.4274 34.3215 28.6981 34.3196C29.0626 34.3157 29.4253 34.3196 29.7899 34.3196C30.6902 34.3176 31.5905 34.3137 32.4909 34.3137C33.5053 34.3137 34.5216 34.3176 35.5361 34.3196C35.5545 34.3196 35.5748 34.3196 35.5932 34.3196C35.7589 34.3294 35.7976 34.3665 35.7994 34.5387C35.8049 34.8537 35.8104 35.1687 35.8086 35.4857C35.8086 35.8731 35.7994 36.2585 35.7994 36.6459C35.7976 37.6437 35.7994 38.6396 35.7994 39.6374C35.7994 39.7587 35.8086 39.882 35.8104 40.0033C35.8104 40.1031 35.7681 40.152 35.6724 40.1618C35.6153 40.1677 35.5582 40.1657 35.5011 40.1657C34.3615 40.1657 33.2218 40.1657 32.0821 40.1657C32.0821 40.1618 32.0821 40.1579 32.0821 40.1559Z" fill="#7CACE3"/>
<path d="M58.1729 49.1834C56.074 53.5543 53.9825 57.9291 51.8743 62.2961C51.0587 63.9846 49.7276 64.8728 47.949 64.9922C47.1371 65.047 46.3693 64.8337 45.6476 64.4424C39.5147 61.1202 33.3837 57.796 27.2526 54.4699C25.1813 53.3449 24.2276 50.9071 24.9383 48.5495C25.0083 48.3147 25.1058 48.0877 25.2126 47.8666C28.6095 40.784 32.012 33.7013 35.4071 26.6167C35.5912 26.2352 35.8674 26.016 36.2466 25.885C38.8592 24.985 41.47 24.0752 44.0807 23.1673C45.2904 22.7467 46.5 22.3299 47.7078 21.9054C48.0889 21.7704 48.4351 21.8643 48.7757 22.0501C51.5245 23.541 54.2752 25.0319 57.0259 26.5228C58.832 27.5011 60.6382 28.4793 62.4444 29.4615C63.1993 29.8724 63.8271 30.4437 64.2671 31.2185C65.1325 32.7446 65.2577 34.3411 64.5175 35.9513C63.6835 37.767 62.7979 39.5533 61.9344 41.3533C60.6787 43.9633 59.4249 46.5734 58.1729 49.1834ZM56.1532 48.0936C58.2539 43.7168 60.3547 39.342 62.4536 34.9633C62.5364 34.7911 62.6064 34.6091 62.6506 34.4233C62.912 33.2983 62.4076 32.1439 61.4281 31.6117C57.2155 29.3265 53.003 27.0432 48.7886 24.7599C48.5842 24.6484 48.5842 24.6484 48.4774 24.8715C47.393 27.1313 46.3067 29.3911 45.2223 31.6509C45.1854 31.7272 45.1486 31.8054 45.1063 31.8778C44.9203 32.2026 44.646 32.3846 44.2943 32.4393C44.0384 32.4804 43.8046 32.41 43.5763 32.2867C41.4276 31.1206 39.2772 29.9565 37.1286 28.7885C37.0218 28.7298 36.95 28.6867 36.8726 28.8511C33.6617 35.5522 30.4452 42.2514 27.2287 48.9505C26.6303 50.1969 27.0814 51.678 28.2579 52.3158C34.3981 55.6458 40.5402 58.9758 46.6823 62.3039C47.8754 62.9496 49.247 62.4741 49.8546 61.2082C51.9553 56.8354 54.0543 52.4645 56.1532 48.0936ZM45.8059 25.1454C45.8059 25.1591 45.8041 25.1728 45.8041 25.1865C43.6886 25.8987 41.5731 26.6128 39.43 27.3347C39.5018 27.3778 39.5515 27.4111 39.6031 27.4384C40.89 28.1369 42.177 28.8335 43.464 29.5319C43.6591 29.6376 43.6591 29.6376 43.7567 29.4341C44.4195 28.0528 45.0842 26.6715 45.747 25.2882C45.7672 25.2432 45.7856 25.1943 45.8059 25.1454Z" fill="#7CACE3"/>
<path d="M56.1532 48.0936C54.0543 52.4645 51.9554 56.8373 49.8583 61.2082C49.2508 62.4761 47.8773 62.9515 46.686 62.3039C40.544 58.9758 34.4037 55.6458 28.2616 52.3158C27.0851 51.678 26.6341 50.1988 27.2324 48.9505C30.4471 42.2514 33.6636 35.5522 36.8764 28.8511C36.9556 28.6867 37.0255 28.7298 37.1323 28.7885C39.2809 29.9545 41.4314 31.1187 43.58 32.2867C43.8065 32.41 44.0422 32.4804 44.2981 32.4393C44.6497 32.3846 44.9241 32.2026 45.11 31.8778C45.1524 31.8035 45.1892 31.7272 45.226 31.6509C46.3104 29.3911 47.3967 27.1313 48.4812 24.8715C48.588 24.6484 48.588 24.6504 48.7923 24.7599C53.0049 27.0432 57.2193 29.3265 61.4318 31.6117C62.4113 32.142 62.9158 33.2983 62.6543 34.4233C62.612 34.6091 62.5402 34.7911 62.4573 34.9633C60.3548 39.34 58.254 43.7168 56.1532 48.0936ZM39.3141 53.4369C41.7076 54.7341 44.0992 56.0332 46.4946 57.3245C46.6437 57.4047 46.8168 57.4634 46.9843 57.4771C47.5146 57.5241 47.9988 57.1465 48.1387 56.6045C48.2823 56.0489 48.0448 55.4775 47.5495 55.2017C47.1592 54.9845 46.7652 54.7751 46.3712 54.5619C41.9911 52.1867 37.611 49.8134 33.2328 47.4381C32.986 47.3051 32.732 47.2347 32.4558 47.2855C31.9716 47.3736 31.5978 47.7747 31.5242 48.2834C31.4468 48.8058 31.6843 49.2988 32.1354 49.5434C34.5289 50.8425 36.9224 52.1397 39.3141 53.4369ZM43.5984 44.5855C45.9956 45.8847 48.3928 47.1857 50.7918 48.4829C51.2061 48.706 51.613 48.6708 51.9794 48.3773C52.3402 48.0897 52.4912 47.6886 52.4175 47.2112C52.3513 46.7788 52.099 46.4931 51.7382 46.2994C46.988 43.7266 42.2378 41.1498 37.4877 38.575C37.46 38.5594 37.4343 38.5457 37.4066 38.532C36.7217 38.1955 35.9687 38.5731 35.7938 39.342C35.6723 39.88 35.9153 40.422 36.4051 40.6861C38.8041 41.9872 41.2013 43.2864 43.5984 44.5855ZM41.459 49.0132C43.847 50.3084 46.2368 51.6016 48.6229 52.8988C48.8181 53.0045 49.0188 53.0651 49.236 53.0514C49.7571 53.0201 50.1769 52.6327 50.2837 52.0908C50.3923 51.543 50.14 51.0206 49.6356 50.7466C44.8725 48.164 40.1095 45.5814 35.3446 43.0007C35.2378 42.942 35.1218 42.8951 35.0039 42.8677C34.4479 42.7385 33.8937 43.0692 33.7022 43.6346C33.5108 44.202 33.7428 44.8281 34.2509 45.104C36.6536 46.409 39.0563 47.7101 41.459 49.0132ZM48.7131 39.0896C47.0101 38.1661 45.3089 37.2446 43.6058 36.3211C43.534 36.282 43.4622 36.2428 43.3867 36.2076C42.8767 35.9689 42.2526 36.1959 41.9745 36.7085C41.6615 37.2876 41.842 38.0663 42.5048 38.4244C45.9459 40.2772 49.3796 42.1457 52.8171 44.0083C52.8852 44.0455 52.9533 44.0807 53.0233 44.1101C53.7395 44.4114 54.5349 43.8616 54.557 43.0438C54.5699 42.5175 54.3416 42.1398 53.9015 41.9011C52.1727 40.9659 50.4438 40.0287 48.7131 39.0896Z" fill="#415A77"/>
<path d="M45.806 25.1454C45.7857 25.1923 45.7673 25.2413 45.7452 25.2882C45.0824 26.6695 44.4196 28.0528 43.7549 29.4341C43.6573 29.6376 43.6555 29.6376 43.4622 29.5319C42.1752 28.8354 40.8883 28.1369 39.6013 27.4384C39.5497 27.4111 39.5 27.3778 39.4282 27.3347C41.5732 26.6128 43.6886 25.8986 45.8023 25.1865C45.8041 25.1728 45.806 25.1591 45.806 25.1454Z" fill="#415A77"/>
<path d="M39.3141 53.4369C36.9206 52.1397 34.5271 50.8425 32.1355 49.5453C31.6844 49.3008 31.4469 48.8077 31.5242 48.2853C31.5978 47.7766 31.9716 47.3755 32.4558 47.2875C32.732 47.2366 32.9879 47.3071 33.2328 47.4401C37.6129 49.8153 41.9911 52.1886 46.3712 54.5638C46.7634 54.7771 47.1593 54.9865 47.5496 55.2036C48.0449 55.4795 48.2824 56.0508 48.1388 56.6065C47.997 57.1504 47.5146 57.528 46.9844 57.4791C46.8186 57.4634 46.6437 57.4067 46.4946 57.3265C44.0993 56.0332 41.7076 54.7341 39.3141 53.4369Z" fill="#7CACE3"/>
<path d="M43.5984 44.5855C41.2012 43.2864 38.804 41.9872 36.4069 40.6861C35.9171 40.4201 35.6741 39.88 35.7956 39.342C35.9705 38.5731 36.7235 38.1955 37.4084 38.532C37.4361 38.5457 37.4637 38.5613 37.4895 38.575C42.2396 41.1498 46.9898 43.7246 51.74 46.2994C52.1008 46.4951 52.3512 46.7788 52.4194 47.2112C52.493 47.6886 52.342 48.0897 51.9812 48.3773C51.6148 48.6708 51.206 48.7079 50.7936 48.4829C48.3928 47.1857 45.9974 45.8866 43.5984 44.5855Z" fill="#7CACE3"/>
<path d="M41.4591 49.0132C39.0564 47.7101 36.6556 46.409 34.2529 45.106C33.7429 44.8301 33.5127 44.204 33.7042 43.6366C33.8957 43.0692 34.448 42.7405 35.0059 42.8696C35.1237 42.897 35.2397 42.944 35.3465 43.0027C40.1114 45.5833 44.8745 48.166 49.6375 50.7486C50.142 51.0225 50.3942 51.5449 50.2856 52.0927C50.1788 52.6347 49.7572 53.0201 49.238 53.0534C49.0207 53.0671 48.82 53.0064 48.6249 52.9008C46.2369 51.6017 43.8471 50.3064 41.4591 49.0132Z" fill="#7CACE3"/>
<path d="M48.7131 39.0916C50.4419 40.0287 52.1726 40.9679 53.9014 41.9051C54.3415 42.1438 54.5698 42.5214 54.5569 43.0477C54.5348 43.8655 53.7394 44.4153 53.0232 44.114C52.9532 44.0846 52.8851 44.0475 52.817 44.0123C49.3796 42.1496 45.9458 40.2811 42.5047 38.4283C41.8419 38.0703 41.6615 37.2916 41.9745 36.7124C42.2525 36.1998 42.8766 35.9728 43.3866 36.2115C43.4603 36.2468 43.5339 36.2859 43.6057 36.325C45.3088 37.2446 47.0118 38.1681 48.7131 39.0916Z" fill="#7CACE3"/>
</g>
<defs>
<clipPath id="clip0_499_450">
<rect width="65" height="65" fill="white"/>
</clipPath>
</defs>
</svg>
