<svg width="65" height="65" viewBox="0 0 65 65" fill="none" xmlns="http://www.w3.org/2000/svg">
<g clip-path="url(#clip0_499_475)">
<path d="M51.248 32.8784C51.1065 40.9384 50.9782 49.0011 50.8157 57.0612C50.7528 60.1769 49.3433 62.509 46.7103 64.0467C45.5078 64.7496 44.1873 65.0215 42.8119 64.9973C31.1218 64.7819 19.4318 64.5664 7.74176 64.3456C3.79355 64.2729 0.6287 61.3995 0.062799 57.3735C0.00516098 56.9723 -0.00531866 56.563 0.00254107 56.1563C0.227853 43.0955 0.458406 30.0346 0.681098 16.9737C0.694198 16.2682 0.964049 15.735 1.45135 15.2502C4.81008 11.9217 8.15833 8.57978 11.5092 5.2405C13.0602 3.69474 14.6164 2.15168 16.1622 0.600532C16.6521 0.110413 17.2442 -0.0161565 17.8913 -0.00269171C23.1337 0.0942549 28.3762 0.191201 33.6186 0.290841C37.0612 0.355472 40.5064 0.414717 43.9489 0.484734C45.3899 0.514357 46.747 0.875214 47.9626 1.6831C50.3546 3.27464 51.662 5.53673 51.662 8.48014C51.662 11.7979 51.5598 15.1156 51.5021 18.436C51.4183 23.251 51.3345 28.066 51.248 32.8784ZM47.402 32.8137C47.5435 24.7429 47.6875 16.6721 47.8238 8.60401C47.829 8.28894 47.8107 7.96309 47.7452 7.65609C47.3548 5.79525 45.7776 4.4757 43.9096 4.44069C35.877 4.28989 27.8443 4.14178 19.8143 3.99366C19.4239 3.98558 19.4239 3.98558 19.4161 4.39491C19.3427 8.56362 19.2694 12.7296 19.196 16.8983C19.1934 17.0411 19.1908 17.1811 19.1777 17.3238C19.1227 17.9459 18.8318 18.4252 18.3341 18.7753C17.9725 19.0312 17.5664 19.1066 17.1315 19.0985C13.034 19.0204 8.93644 18.945 4.8389 18.8669C4.63454 18.8642 4.49569 18.8534 4.49045 19.155C4.28086 31.5076 4.0634 43.863 3.84857 56.2156C3.80927 58.5154 5.53317 60.3546 7.77844 60.395C19.4868 60.6132 31.1952 60.8313 42.9036 61.0467C45.1777 61.0898 46.9383 59.3367 46.9802 56.9992C47.119 48.9365 47.2605 40.8765 47.402 32.8137ZM15.5281 6.84551C15.536 6.86705 15.5439 6.8859 15.5543 6.90745C12.8244 9.57886 10.0944 12.2503 7.32781 14.9594C7.46667 14.9675 7.56623 14.9783 7.66316 14.9809C10.1154 15.0267 12.5703 15.0725 15.0225 15.1183C15.3919 15.1264 15.3945 15.1237 15.4024 14.7493C15.4469 12.2018 15.4915 9.65427 15.536 7.10403C15.536 7.01516 15.5308 6.93168 15.5281 6.84551Z" fill="#6287B3"/>
<path d="M47.4021 32.8137C47.2607 40.8765 47.1192 48.9365 46.9777 56.9992C46.9358 59.3367 45.1752 61.0871 42.9011 61.0467C31.1927 60.8313 19.4844 60.6132 7.77598 60.395C5.53072 60.352 3.80682 58.5127 3.84612 56.2156C4.06357 43.8629 4.28102 31.5103 4.488 19.155C4.49324 18.8534 4.63209 18.8615 4.83644 18.8669C8.93398 18.945 13.0315 19.0204 17.1291 19.0985C17.5614 19.1066 17.9674 19.0312 18.3316 18.7753C18.8294 18.4252 19.1202 17.9459 19.1752 17.3238C19.1883 17.1838 19.1909 17.0411 19.1936 16.8983C19.2669 12.7296 19.3403 8.56361 19.4136 4.39491C19.4215 3.98558 19.4215 3.98558 19.8119 3.99366C27.8445 4.14177 35.8771 4.28988 43.9072 4.44069C45.7752 4.4757 47.3524 5.79525 47.7427 7.65609C47.8082 7.96308 47.8266 8.28893 47.8213 8.60401C47.6877 16.6721 47.5436 24.7429 47.4021 32.8137ZM25.4394 53.5899C30.0007 53.6734 34.5646 53.7623 39.1258 53.8377C39.4114 53.8431 39.7153 53.7946 39.9799 53.6896C40.8235 53.3529 41.2977 52.4266 41.1301 51.5163C40.9598 50.5846 40.1974 49.9248 39.249 49.8979C38.4997 49.8763 37.7504 49.8683 37.0011 49.8548C28.6514 49.6986 20.3018 49.5451 11.9521 49.3889C11.4832 49.3808 11.0456 49.4724 10.6579 49.7578C9.97933 50.2587 9.69114 51.1366 9.93479 51.9445C10.1837 52.774 10.8911 53.3206 11.7504 53.3368C16.3143 53.423 20.8755 53.5064 25.4394 53.5899ZM25.7774 37.241C30.3491 37.3271 34.9183 37.4133 39.49 37.4941C40.2786 37.5076 40.8759 37.1413 41.2296 36.4277C41.5781 35.7248 41.5283 35.0193 41.0803 34.3703C40.6742 33.7832 40.09 33.5543 39.4035 33.5435C30.3491 33.3766 21.2921 33.2096 12.2377 33.0399C12.1853 33.0399 12.1355 33.0372 12.0831 33.0372C10.802 33.0642 9.91645 34.1979 10.1889 35.4663C10.3802 36.355 11.1321 36.9663 12.0648 36.9851C16.6365 37.0713 21.2083 37.1548 25.7774 37.241ZM25.6123 45.4141C30.1657 45.4976 34.7191 45.5811 39.2726 45.6699C39.642 45.678 39.993 45.6134 40.3153 45.4276C41.0882 44.9832 41.4576 44.0892 41.2427 43.2086C41.0253 42.3172 40.2734 41.7382 39.3119 41.7194C30.2312 41.5497 21.148 41.3827 12.0674 41.2158C11.863 41.2131 11.6535 41.2292 11.4543 41.2804C10.5138 41.5147 9.90073 42.4276 10.0055 43.4105C10.1103 44.3962 10.9015 45.1421 11.8735 45.161C16.4531 45.2471 21.0327 45.3306 25.6123 45.4141ZM29.7361 25.2115C26.49 25.1523 23.2439 25.0903 19.9979 25.0311C19.859 25.0284 19.7228 25.0257 19.5839 25.0311C18.6381 25.0688 17.8443 25.882 17.7788 26.8515C17.7054 27.9449 18.5281 28.9574 19.7909 28.979C26.3433 29.084 32.8931 29.2132 39.4455 29.3344C39.5738 29.3371 39.7048 29.3371 39.8332 29.329C41.1379 29.2267 41.9684 27.8075 41.4261 26.5822C41.0777 25.7959 40.4646 25.4108 39.6262 25.3973C36.333 25.3354 33.0345 25.2734 29.7361 25.2115Z" fill="#415A77"/>
<path d="M15.5281 6.8455C15.5308 6.93168 15.536 7.01785 15.5334 7.10403C15.4888 9.65157 15.4443 12.1991 15.3998 14.7493C15.3919 15.1237 15.3919 15.1264 15.0199 15.1183C12.5676 15.0725 10.1128 15.0267 7.66054 14.9809C7.56099 14.9782 7.46405 14.9675 7.3252 14.9594C10.0918 12.2503 12.8218 9.57886 15.5517 6.90744C15.5465 6.8859 15.5386 6.86436 15.5281 6.8455Z" fill="#415A77"/>
<path d="M25.4393 53.5899C20.8781 53.5064 16.3142 53.4203 11.7529 53.3341C10.8936 53.3179 10.1862 52.7713 9.93731 51.9418C9.69366 51.1339 9.98185 50.2533 10.6604 49.7551C11.0455 49.4697 11.4857 49.3781 11.9546 49.3862C20.3043 49.5424 28.654 49.6959 37.0036 49.8521C37.7529 49.8656 38.5022 49.8736 39.2515 49.8952C40.2025 49.9221 40.9649 50.5846 41.1326 51.5136C41.2976 52.4239 40.8234 53.3529 39.9824 53.6869C39.7178 53.7919 39.4139 53.8404 39.1284 53.835C34.5619 53.7623 30.0006 53.6761 25.4393 53.5899Z" fill="#6287B3"/>
<path d="M25.7773 37.241C21.2055 37.1548 16.6364 37.0713 12.0647 36.9851C11.132 36.9663 10.3801 36.355 10.1888 35.4663C9.91634 34.1979 10.8019 33.0615 12.083 33.0372C12.1354 33.0372 12.1852 33.0372 12.2376 33.0399C21.292 33.2069 30.349 33.3766 39.4034 33.5435C40.0899 33.557 40.6741 33.7832 41.0802 34.3703C41.5282 35.0193 41.578 35.7248 41.2295 36.4277C40.8732 37.1413 40.2785 37.5076 39.4899 37.4941C34.9208 37.4133 30.349 37.3244 25.7773 37.241Z" fill="#6287B3"/>
<path d="M25.6123 45.4168C21.0327 45.3306 16.4531 45.2471 11.8735 45.161C10.9015 45.1421 10.1103 44.3962 10.0055 43.4105C9.90073 42.4276 10.5138 41.5174 11.4543 41.2804C11.6535 41.2319 11.863 41.2131 12.0674 41.2158C21.148 41.38 30.2312 41.5497 39.3119 41.7193C40.276 41.7382 41.0253 42.3172 41.2427 43.2086C41.4576 44.0918 41.0855 44.9832 40.3153 45.4276C39.993 45.6134 39.642 45.678 39.2726 45.6699C34.7191 45.5837 30.1657 45.5003 25.6123 45.4168Z" fill="#6287B3"/>
<path d="M29.736 25.2115C33.0345 25.2734 36.3304 25.3354 39.6288 25.3946C40.4672 25.4108 41.0829 25.7932 41.4287 26.5795C41.9684 27.8048 41.1405 29.2267 39.8358 29.3263C39.7074 29.3371 39.5764 29.3344 39.4481 29.3317C32.8957 29.2105 26.3459 29.0813 19.7935 28.9763C18.5307 28.9574 17.708 27.9422 17.7814 26.8488C17.8469 25.8794 18.6407 25.0661 19.5865 25.0284C19.7227 25.023 19.8616 25.0257 20.0005 25.0284C23.2465 25.0903 26.4926 25.1523 29.736 25.2115Z" fill="#6287B3"/>
<path d="M48.6796 35.3262C46.8137 37.5745 44.9679 39.8473 43.0834 42.0732C42.6464 42.59 42.4732 43.1068 42.4766 43.8454C42.5052 48.2892 42.4951 52.7309 42.4867 57.1726C42.4833 58.253 41.9118 58.8614 41.1872 58.5908C40.6123 58.3771 40.4526 57.842 40.456 57.1644C40.4661 54.6903 40.4593 52.2141 40.4593 49.7378H40.4543C40.4543 47.3308 40.4358 44.9238 40.4711 42.5168C40.4778 42.0956 40.6258 41.5706 40.8628 41.2756C42.9557 38.6814 45.0805 36.1238 47.2053 33.5682C47.8341 32.8113 48.5233 32.7767 48.9351 33.4441C49.384 34.1705 49.1436 34.7646 48.6796 35.3262Z" fill="#6287B3"/>
<path d="M41.4779 23.637C32.5213 23.6533 25.1685 32.5692 25.1819 43.3999C25.1937 54.141 32.5617 63.0875 41.3804 63.0691C50.4882 63.0508 57.7621 54.2325 57.7621 43.2106C57.7621 32.5428 50.3403 23.6227 41.4779 23.637ZM48.6794 35.3262C46.8135 37.5746 44.9677 39.8473 43.0833 42.0732C42.6462 42.5901 42.473 43.1069 42.4764 43.8455C42.505 48.2892 42.4949 52.7309 42.4865 57.1726C42.4831 58.253 41.9116 58.8614 41.187 58.5908C40.6121 58.3772 40.4524 57.842 40.4558 57.1645C40.4659 54.6903 40.4592 52.2141 40.4592 49.7379H40.4541C40.4541 47.3309 40.4356 44.9238 40.4709 42.5168C40.4777 42.0956 40.6256 41.5707 40.8626 41.2757C42.9555 38.6814 45.0803 36.1238 47.2052 33.5683C47.8339 32.8114 48.5231 32.7768 48.9349 33.4442C49.3838 34.1705 49.1434 34.7647 48.6794 35.3262Z" fill="#415A77"/>
<path d="M59.4852 38.5288C57.8143 29.4256 51.6499 22.5219 44.0516 21.2401C43.8096 21.1994 43.5776 21.0814 43.3405 21H39.4742C38.4218 21.2991 37.3443 21.5066 36.3222 21.9136C29.0215 24.813 24.6474 30.8418 23.2236 39.9917C23.1731 40.3132 23.0756 40.6245 23 40.9399V45.6197C23.1765 46.6045 23.3362 47.5954 23.5295 48.5781C25.2408 57.256 31.1244 63.8952 38.3899 65.3683C38.7597 65.4436 39.1127 65.6287 39.4742 65.763H43.3405C43.9861 65.584 44.6299 65.4049 45.2737 65.2259C53.0401 63.063 58.3572 56.2061 59.7491 46.5658C59.7962 46.2443 59.9038 45.935 59.9828 45.6197V40.9399C59.8164 40.1362 59.6331 39.3366 59.4852 38.5288ZM41.3805 63.0691C32.5617 63.0874 25.1938 54.1409 25.182 43.3998C25.1685 32.5692 32.5214 23.6532 41.478 23.6369C50.3404 23.6227 57.7622 32.5428 57.7622 43.2106C57.7622 54.2325 50.4883 63.0508 41.3805 63.0691Z" fill="#6287B3"/>
</g>
<defs>
<clipPath id="clip0_499_475">
<rect width="65" height="65" fill="white"/>
</clipPath>
</defs>
</svg>
