<svg width="68" height="67" viewBox="0 0 68 67" fill="none" xmlns="http://www.w3.org/2000/svg">
<g clip-path="url(#clip0_499_486)">
<path d="M0 8.41386C2.38927 6.08881 4.79709 3.78217 7.15855 1.42952C8.88018 -0.285129 11.5445 -0.496776 13.4733 1.00316C15.2722 2.40186 15.8038 5.04898 14.6633 6.92926C13.3929 9.01506 10.8151 9.85244 8.64218 8.8801C6.57745 7.95683 5.19582 8.89237 5.576 11.1377C6.84327 18.6373 8.89255 25.9039 13.0127 32.4036C14.0605 34.0569 15.4576 35.5967 16.9907 36.8236C19.5469 38.8726 22.6316 38.9431 25.0673 36.7684C27.0547 34.9924 28.8598 32.8361 30.158 30.5233C33.5982 24.3978 35.394 17.6834 36.5964 10.8003C36.7942 9.66534 36.2038 9.11015 35.4744 8.71446C35.0293 8.47214 34.238 8.52428 33.7465 8.75127C31.3387 9.86165 28.7825 9.17763 27.4473 6.96301C26.2635 4.99684 26.8198 2.2485 28.6713 0.920337C30.7236 -0.551988 33.4962 -0.140964 35.2178 1.74545C35.9967 2.59817 36.9735 3.3006 37.9347 3.96621C41.1215 6.17163 42.4413 8.9077 41.5665 12.9106C40.1138 19.579 38.3675 26.1094 35.2209 32.2072C33.2242 36.0752 30.7576 39.5535 26.9465 41.9123C26.6344 42.1056 26.4056 42.4951 26.2449 42.8417C25.5649 44.3202 24.8787 45.8017 24.2915 47.3201C24.0658 47.9029 23.9298 48.6145 24.0442 49.2126C25.6298 57.5742 30.7762 61.7366 39.576 61.5617C41.9065 61.5157 44.3298 61.1568 46.5275 60.4084C50.9536 58.9023 53.4542 55.5252 54.6256 50.9917C54.1651 50.777 53.7602 50.5868 53.3553 50.3997C49.0156 48.4059 46.6171 43.946 47.3249 39.1916C47.9864 34.747 51.9675 31.1306 56.7522 30.6245C61.1722 30.1583 65.5087 32.833 67.2922 37.1058C67.4529 37.4923 67.762 37.8174 68 38.1702C68 40.0106 68 41.851 68 43.6914C67.7589 44.0595 67.4529 44.3999 67.2829 44.7987C66.0991 47.5838 64.0653 49.5377 61.2649 50.6083C60.248 50.9978 59.8678 51.5561 59.602 52.5192C57.4229 60.3961 52.2271 65.0064 44.1413 66.4572C43.7302 66.5308 43.3562 66.8161 42.9636 67.0032C40.5929 67.0032 38.2253 67.0032 35.8545 67.0032C35.53 66.8161 35.224 66.5124 34.8778 66.4572C26.9527 65.1812 21.9485 60.6017 19.6705 53.0713C18.8453 50.3475 18.3198 47.547 16.6538 45.1361C16.2644 44.5717 16.2242 43.7803 15.9213 43.1393C15.6987 42.6638 15.402 42.1332 14.9847 41.854C11.8444 39.7529 9.48291 36.9831 7.65618 33.7195C4.12327 27.4099 2.07709 20.6004 0.639818 13.5731C0.556364 13.156 0.219455 12.791 0 12.4014C0 11.0732 0 9.74202 0 8.41386ZM57.4538 45.9428C60.4891 45.9766 62.7269 43.9153 62.7764 41.0351C62.8227 38.115 60.5509 35.8666 57.5187 35.8421C54.7184 35.8175 52.4867 38.072 52.4218 40.9001C52.3662 43.4797 54.7956 46.2986 57.4538 45.9428Z" fill="#7CACE3"/>
<path d="M60.1955 40.9613C60.1554 42.3202 58.9592 43.4949 57.6239 43.4888C56.1743 43.4827 54.9935 42.2711 55.043 40.8386C55.0894 39.4522 56.2515 38.3755 57.661 38.4032C59.0272 38.4308 60.2357 39.6516 60.1955 40.9613Z" fill="#7CACE3"/>
</g>
<defs>
<clipPath id="clip0_499_486">
<rect width="68" height="67" fill="white"/>
</clipPath>
</defs>
</svg>
