<svg width="54" height="70" viewBox="0 0 54 70" fill="none" xmlns="http://www.w3.org/2000/svg">
<path d="M0.0126393 64.3977C0.00947956 64.3425 0 64.3003 0 64.2581C0.0252781 62.5822 0.00315937 60.903 0.0884728 59.2304C0.312816 54.7321 1.59252 50.5554 3.92442 46.7424C7.03678 41.653 11.353 38.0641 16.832 35.953C17.0279 35.8783 17.1796 35.888 17.366 35.979C20.4626 37.5217 23.7361 38.194 27.1676 38.0316C29.7776 37.9082 32.2769 37.2814 34.6467 36.1479C34.849 36.0504 35.0133 36.0439 35.2218 36.1284C40.6155 38.3012 44.8054 41.9583 47.8356 47.0152C49.861 50.393 51.0522 54.076 51.4187 58.0287C51.5262 59.1947 51.5357 60.3736 51.5578 61.5461C51.5767 62.5724 51.5451 63.5955 51.5357 64.6218C51.5357 64.703 51.5357 64.781 51.5325 64.8752C34.3497 64.716 17.1859 64.5569 0.0126393 64.3977Z" fill="#7CACE3"/>
<path d="M42.8398 17.0602C42.8967 26.2191 35.8283 33.9523 26.7029 34.2414C17.4101 34.5337 9.89935 27.0701 9.53282 17.8397C9.15365 8.19677 16.5127 0.242763 25.7455 0.00566917C35.2375 -0.241168 42.8335 7.60566 42.8398 17.0602Z" fill="#7CACE3"/>
<path d="M34.8429 58.2397C34.9526 56.0502 37.5635 55.9739 38.4578 54.2769C39.5084 55.9422 42.2007 56.0892 42.2843 58.8871C39.7731 58.669 37.3214 58.4565 34.8429 58.2397Z" fill="#7CACE3"/>
<path d="M42.8211 44.0232C42.7045 45.096 42.5949 46.1 42.4526 47.4123C39.7526 47.198 37.1641 46.9918 34.4298 46.7748C34.3189 45.994 34.188 45.0843 34.0432 44.0628C36.995 44.0495 39.8248 44.0367 42.8211 44.0232Z" fill="#7CACE3"/>
<path d="M44.1436 62.7486C44.9015 63.1696 45.4408 63.4686 45.98 63.769C45.344 63.9256 44.7112 64.207 44.0734 64.2203C40.3997 64.3012 36.724 64.3434 33.0505 64.3326C32.5092 64.3304 31.9692 63.977 31.4299 63.7856C31.9162 63.5547 32.4025 63.3253 33.078 63.0047C33.2267 61.7371 33.4273 60.2351 33.5744 58.7281C33.7464 56.9655 34.6822 55.7272 36.2277 54.8329C37.7156 53.9722 37.732 53.1692 36.2618 52.414C34.5985 51.5606 33.6643 50.27 33.4284 48.475C33.2436 47.0622 33.0216 45.6542 32.8224 44.2802C32.7023 44.1899 32.6343 44.109 32.5446 44.0757C32.035 43.8796 31.5195 43.6936 31.007 43.5047C31.5546 43.3032 32.0987 42.9427 32.6517 42.9275C36.4784 42.8319 40.3073 42.7892 44.1351 42.7825C44.6661 42.7819 45.1963 43.0752 45.7278 43.2338C45.2455 43.5434 44.7617 43.8517 43.9033 44.4024C43.826 45.0929 43.6416 46.2448 43.5777 47.4025C43.4546 49.6132 42.6685 51.3787 40.5159 52.4781C39.2882 53.1049 39.3226 54.042 40.5946 54.6534C42.5969 55.616 43.4606 57.2028 43.6907 59.243C43.8276 60.5072 44.0134 61.7652 44.1436 62.7486ZM42.7439 43.9918C39.7478 44.0274 36.9182 44.061 33.9666 44.096C34.1211 45.1164 34.2578 46.0251 34.3749 46.8051C37.1109 47.0019 39.7009 47.1891 42.4026 47.3835C42.5359 46.0701 42.6359 45.0654 42.7439 43.9918ZM34.8801 58.2667C37.3603 58.4637 39.8136 58.6597 42.3265 58.8592C42.2204 56.062 39.527 55.9349 38.4631 54.2773C37.5825 55.9823 34.9722 56.0764 34.8801 58.2667Z" fill="#415A77"/>
</svg>
