<svg width="65" height="65" viewBox="0 0 65 65" fill="none" xmlns="http://www.w3.org/2000/svg">
<g clip-path="url(#clip0_499_544)">
<path d="M5.20493 7.29162C5.20861 7.16013 5.21413 7.05329 5.21413 6.94851C5.21413 5.46306 5.21597 3.97762 5.21413 2.49218C5.21413 2.2559 5.23621 2.02374 5.29692 1.79568C5.47355 1.13206 5.8636 0.66773 6.39531 0.341055C6.70073 0.154091 7.0319 0.0390357 7.37963 0.0225992C7.72368 0.00410822 8.06957 -0.00411001 8.41363 0.0164356C8.97662 0.0493085 9.48074 0.27531 9.9039 0.688275C10.3823 1.15466 10.6362 1.74226 10.6325 2.46547C10.627 3.8112 10.6288 5.15899 10.627 6.50472C10.627 6.68553 10.6288 6.86838 10.6325 7.04918C10.6343 7.11082 10.6472 7.17245 10.6546 7.23409C10.6914 7.24847 10.7171 7.26902 10.7429 7.26902C13.1347 7.27107 15.5283 7.27107 17.9201 7.27107C17.9569 7.27107 17.9919 7.25464 18.0452 7.24231C18.0508 7.14369 18.0618 7.04918 18.0618 6.95673C18.0636 5.48156 18.06 4.00638 18.0655 2.53121C18.0655 2.30932 18.0765 2.07921 18.1225 1.86348C18.2458 1.27382 18.5677 0.83004 19.0075 0.491038C19.3791 0.205455 19.7949 0.0472539 20.242 0.0184901C20.5861 -0.00411 20.932 -0.0143828 21.2742 0.0164356C21.9255 0.0739631 22.4977 0.349274 22.9411 0.906058C23.287 1.33752 23.4709 1.83677 23.4691 2.42232C23.4673 3.90777 23.4691 5.39321 23.4691 6.87865C23.4691 6.99371 23.4746 7.11082 23.4765 7.21149C23.5666 7.29778 23.6568 7.27313 23.7396 7.27313C24.2952 7.27518 24.849 7.27518 25.4046 7.27518C26.7054 7.27518 28.008 7.27518 29.3088 7.27518C29.421 7.27518 29.5351 7.26902 29.6473 7.26491C29.708 7.13547 29.6878 7.01631 29.6878 6.90125C29.6896 5.89658 29.6896 4.8919 29.6896 3.88722C29.6896 3.41673 29.6878 2.94623 29.6878 2.47574C29.6878 1.62926 30.0208 0.975913 30.6372 0.501311C31.0493 0.182855 31.5092 0.0102719 32.0097 0.00821733C32.42 0.00616278 32.8321 -0.0246556 33.2405 0.0657449C33.787 0.186964 34.2414 0.48282 34.6094 0.943041C34.935 1.34984 35.0877 1.83677 35.108 2.37918C35.1117 2.48601 35.1098 2.59285 35.1098 2.69969C35.108 4.0146 35.108 5.32952 35.1061 6.64443C35.1061 6.83551 35.1135 7.02658 35.1172 7.23409C35.1926 7.24847 35.2552 7.26696 35.3196 7.26902C35.5974 7.27313 35.8752 7.27518 36.153 7.27518C38.1051 7.27518 40.0572 7.27518 42.0111 7.27518C42.1712 7.27518 42.3349 7.29162 42.5079 7.24231C42.5171 7.16835 42.5318 7.09644 42.5318 7.02453C42.5336 6.51089 42.5336 5.9993 42.5336 5.48566C42.5336 4.47071 42.5373 3.45576 42.5318 2.43876C42.5281 1.79157 42.7397 1.24711 43.1481 0.801276C43.6118 0.295855 44.1748 0.0287629 44.8261 0.00821733C45.1223 -8.93194e-07 45.4203 -0.00616456 45.7166 0.0123264C46.4083 0.0534176 46.9952 0.367765 47.4515 0.949204C47.779 1.36422 47.9446 1.85732 47.9446 2.41821C47.9428 3.51945 47.9428 4.6207 47.9428 5.71988C47.9428 6.11436 47.9428 6.51089 47.9409 6.90536C47.9409 7.0122 47.9409 7.11698 47.9409 7.19711C48.0237 7.31011 48.1157 7.29162 48.1967 7.30806C48.4782 7.36558 48.7652 7.40462 49.0412 7.48475C50.1101 7.79088 51.0061 8.42368 51.7494 9.32563C52.6381 10.4063 53.1624 11.6822 53.3133 13.1368C53.3666 13.6443 53.3574 14.1621 53.3593 14.6736C53.3648 15.9351 53.3574 17.1966 53.3574 18.4581C53.3574 19.1094 53.3685 19.7628 53.3703 20.4141C53.3703 20.6812 53.3556 20.9483 53.3556 21.2153C53.3538 22.1666 53.3556 23.1179 53.3556 24.0691C53.3556 24.9567 53.3538 25.8422 53.3556 26.7298C53.3574 27.9255 53.3648 29.1233 53.3666 30.3191C53.3685 31.2272 53.3685 32.1353 53.3666 33.0434C53.3648 34.2084 53.3574 35.3733 53.3556 36.5382C53.3538 37.4032 53.3556 38.2702 53.3556 39.1352C53.3556 39.8933 53.3538 40.6535 53.3556 41.4116C53.3574 42.6834 53.363 43.9552 53.3666 45.2269C53.3685 46.1248 53.3685 47.0226 53.3666 47.9205C53.3648 49.1183 53.3574 50.314 53.3556 51.5118C53.3538 52.4097 53.3538 53.3075 53.3556 54.2054C53.3574 55.3497 53.3611 56.4921 53.3666 57.6365C53.3703 58.2569 53.3446 58.8774 53.2655 59.4917C53.19 60.0773 53.0281 60.6361 52.8073 61.1724C52.3492 62.2839 51.6777 63.2002 50.7761 63.9008C50.1395 64.396 49.4367 64.7165 48.675 64.887C48.2868 64.9733 47.9005 65 47.5049 64.9979C46.6144 64.9918 45.7239 65.0021 44.8353 65.0021C43.8877 65.0021 42.9402 64.9959 41.9927 64.9959C40.4417 64.9959 38.8926 65.0021 37.3416 65.0021C35.877 65.0021 34.4125 64.9959 32.948 64.9959C31.4081 64.9959 29.8663 65.0021 28.3263 65.0021C26.8231 65.0021 25.3218 64.9979 23.8187 64.9959C22.5657 64.9938 21.311 64.9938 20.058 64.9959C18.5751 64.9979 17.0904 65.0021 15.6074 65.0021C14.1632 65.0021 12.717 64.9959 11.2728 64.9959C9.80823 64.9959 8.34371 65 6.87919 65.0021C6.41923 65.0021 5.96111 64.9959 5.50115 64.9979C5.00623 64.9979 4.53339 64.8685 4.06422 64.7124C3.34852 64.472 2.7101 64.0672 2.14158 63.5289C1.33573 62.7646 0.746978 61.8298 0.382688 60.7245C0.134309 59.9663 0.00183985 59.1815 0.00183985 58.3699C0.00183985 56.8414 0.00183985 55.3128 0 53.7842C0.00551954 52.498 0 51.216 0 49.9339C0 48.5882 0.00551954 47.2404 0.00551954 45.8947C0.00735939 44.2264 0.00735939 42.5601 0.00551954 40.8918C0.00551954 39.6632 0 38.4346 0 37.2039C0 36.0492 0.00551954 34.8946 0.00551954 33.742C0.00551954 32.4805 0 31.219 0 29.9595C0 28.6446 0.00551954 27.3297 0.00551954 26.0168C0.00551954 24.8519 0 23.687 0 22.522C0 20.523 0.00183985 18.5239 0.00183985 16.5269C0.00183985 15.6722 -0.00183985 14.8175 0.0036797 13.9628C0.00919924 13.0218 0.161907 12.1116 0.500439 11.2487C1.08919 9.7427 2.03487 8.60448 3.36324 7.88128C3.88208 7.59775 4.43403 7.42517 5.00623 7.33066C5.06142 7.32038 5.11662 7.30806 5.20493 7.29162ZM26.7477 25.5833C24.9483 25.5813 23.149 25.5813 21.3496 25.5813C19.5502 25.5813 17.7509 25.5813 15.9515 25.5813C14.0951 25.5813 12.2387 25.5813 10.3823 25.5813C9.2618 25.5813 8.14317 25.5792 7.0227 25.5792C6.61057 25.5792 6.20029 25.5813 5.78816 25.5895C5.55818 25.5936 5.33372 25.6203 5.10926 25.6943C4.49475 25.8936 3.73121 26.6702 3.53251 27.5146C3.45524 27.8392 3.40556 28.1597 3.4074 28.4926C3.41108 29.7315 3.41476 30.9724 3.41476 32.2113C3.41476 33.5797 3.4074 34.9459 3.4074 36.3143C3.4074 37.4566 3.41476 38.601 3.41476 39.7433C3.41476 41.0788 3.4074 42.4143 3.4074 43.7497C3.4074 44.8941 3.41476 46.0364 3.41476 47.1808C3.41476 48.5492 3.40924 49.9154 3.4074 51.2838C3.4074 52.3953 3.41476 53.5068 3.41476 54.6183C3.41476 55.8367 3.41292 57.055 3.40556 58.2734C3.40372 58.7398 3.4534 59.1877 3.6337 59.615C4.06974 60.6464 4.78729 61.2093 5.81576 61.2525C6.15981 61.2669 6.50386 61.2628 6.84976 61.2628C7.75864 61.2607 8.66753 61.2566 9.57641 61.2545C10.4283 61.2545 11.2801 61.2607 12.132 61.2607C13.0703 61.2607 14.0068 61.2545 14.9451 61.2545C15.8061 61.2545 16.6672 61.2607 17.5282 61.2607C18.4666 61.2607 19.403 61.2545 20.3414 61.2545C21.2024 61.2545 22.0635 61.2607 22.9245 61.2607C23.872 61.2607 24.8196 61.2545 25.7671 61.2545C26.6373 61.2545 27.5094 61.2628 28.3797 61.2607C29.318 61.2607 30.2545 61.2545 31.1928 61.2545C32.1017 61.2545 33.0106 61.2628 33.9194 61.2628C34.8578 61.2628 35.7942 61.2566 36.7326 61.2566C37.6599 61.2566 38.589 61.2628 39.5163 61.2628C40.4159 61.2628 41.3156 61.2566 42.2153 61.2566C43.0764 61.2566 43.9374 61.2628 44.7985 61.2628C45.7644 61.2628 46.7321 61.2586 47.6981 61.2628C48.2997 61.2648 48.8333 61.045 49.2767 60.6053C49.8562 60.0321 50.1561 59.2945 50.1653 58.4254C50.1727 57.7947 50.1671 57.1639 50.1671 56.5332C50.1653 55.1751 50.1598 53.8191 50.1598 52.461C50.1598 51.3064 50.1671 50.1538 50.1671 48.9991C50.1671 47.6308 50.1616 46.2645 50.1598 44.8962C50.1598 43.8073 50.1671 42.7163 50.1671 41.6274C50.1671 40.2385 50.1616 38.8496 50.1598 37.4607C50.1598 36.3163 50.1671 35.174 50.1671 34.0296C50.1671 32.6716 50.1616 31.3155 50.1598 29.9575C50.1598 29.4664 50.169 28.9734 50.1653 28.4823C50.1616 28.0735 50.0899 27.6769 49.9592 27.2927C49.617 26.2819 48.6677 25.5607 47.7625 25.5854C47.4957 25.5936 47.2271 25.5772 46.9584 25.5772C45.8674 25.5772 44.7764 25.5813 43.6854 25.5813C38.0407 25.5833 32.3942 25.5833 26.7477 25.5833ZM42.5226 12.3068C42.46 12.3314 42.4398 12.3356 42.4251 12.3458C42.3938 12.3684 42.3625 12.3972 42.3331 12.4239C41.9265 12.7917 41.6063 13.2416 41.3488 13.7491C40.8851 14.6634 40.7122 15.6496 40.8336 16.6851C41.0985 18.9184 42.7121 20.6298 44.6973 20.864C45.5657 20.9667 46.3955 20.8044 47.1737 20.3586C48.112 19.8224 48.7983 19.0129 49.2141 17.9322C49.5434 17.0775 49.6354 16.1837 49.4882 15.2633C49.3116 14.1723 48.8535 13.2581 48.1157 12.5184C48.0752 12.4794 48.0384 12.4198 47.9556 12.4629C47.952 12.5061 47.9446 12.5574 47.9446 12.6088C47.9428 13.2498 47.9428 13.8909 47.9428 14.5319C47.9428 15.0024 47.9428 15.4729 47.9391 15.9434C47.9336 16.5145 47.7496 17.0076 47.4 17.4226C46.9621 17.9424 46.4212 18.2424 45.7828 18.2897C45.4498 18.3143 45.1131 18.304 44.7782 18.2958C44.2943 18.2856 43.8583 18.1068 43.4646 17.8007C42.8574 17.3302 42.5318 16.6912 42.5336 15.8509C42.5373 14.7825 42.5336 13.7142 42.5318 12.6458C42.5336 12.539 42.5281 12.4362 42.5226 12.3068ZM5.21597 12.3828C5.10374 12.4794 5.03934 12.5246 4.98783 12.58C3.87656 13.784 3.4166 15.2407 3.68522 16.946C3.96855 18.7499 5.20493 20.2579 6.89207 20.7407C7.55442 20.9318 8.23148 20.9462 8.91039 20.7859C9.68128 20.6051 10.3602 20.223 10.9287 19.6333C12.1044 18.417 12.5717 16.9111 12.2773 15.14C12.0988 14.0737 11.615 13.1923 10.8919 12.4753C10.8293 12.4136 10.7723 12.3356 10.6582 12.3356C10.649 12.4054 10.6343 12.4753 10.6343 12.5472C10.6325 13.1677 10.6325 13.7861 10.6306 14.4065C10.6306 14.9202 10.6325 15.4318 10.627 15.9454C10.6196 16.6029 10.3841 17.1494 9.9499 17.5829C9.52306 18.0102 9.01894 18.2506 8.4449 18.2897C8.15973 18.3081 7.87087 18.302 7.58385 18.304C7.24348 18.3081 6.91783 18.226 6.6069 18.0801C5.86544 17.7329 5.19573 16.9439 5.21597 15.7893C5.23437 14.7866 5.21781 13.782 5.21597 12.7773C5.21597 12.6684 5.21597 12.5636 5.21597 12.3828ZM18.0471 12.3171C17.9716 12.3725 17.9367 12.3931 17.9091 12.4198C16.6985 13.6176 16.1686 15.1113 16.4446 16.8967C16.7095 18.6163 17.6147 19.8326 19.0424 20.5024C20.369 21.1249 21.6937 21.0366 22.9595 20.2271C23.5685 19.8367 24.0689 19.3128 24.4424 18.6533C25.0219 17.6301 25.2482 16.5166 25.0679 15.3147C24.9005 14.1888 24.4258 13.2457 23.6623 12.4876C23.6163 12.4424 23.5758 12.3664 23.4783 12.4034C23.4746 12.502 23.4691 12.6068 23.4691 12.7115C23.4691 13.7573 23.4673 14.8051 23.4728 15.8509C23.4765 16.57 23.2244 17.1597 22.7424 17.624C22.3247 18.0267 21.8353 18.2568 21.2815 18.2876C20.9669 18.3061 20.6505 18.302 20.3358 18.2979C19.9752 18.2938 19.6312 18.1972 19.3147 18.0123C18.5162 17.5439 18.0416 16.8371 18.0618 15.7893C18.0618 15.7461 18.0636 15.703 18.0636 15.6619C18.0636 14.6367 18.0655 13.6114 18.0655 12.5862C18.0618 12.5122 18.0544 12.4424 18.0471 12.3171ZM35.1282 12.3294C35.1209 12.4568 35.1135 12.5205 35.1135 12.5842C35.1117 13.2046 35.1117 13.8231 35.1117 14.4435C35.1117 14.9243 35.1135 15.4051 35.108 15.8858C35.1025 16.4282 34.9534 16.9152 34.6351 17.3302C34.1899 17.9116 33.6195 18.2321 32.9406 18.2897C32.626 18.3164 32.3096 18.2999 31.9931 18.2958C31.4908 18.2876 31.0327 18.115 30.6224 17.7966C30.0208 17.3343 29.7062 16.6933 29.6915 15.8756C29.6878 15.705 29.6896 15.5345 29.6896 15.3619C29.6896 14.4641 29.6896 13.5662 29.6878 12.6684C29.6878 12.578 29.7099 12.4794 29.6381 12.3828C29.5774 12.4321 29.5204 12.4691 29.4744 12.5143C29.2223 12.7629 29.0015 13.0423 28.8102 13.3526C28.1202 14.4764 27.8866 15.7112 28.1294 17.0446C28.5029 19.093 30.0429 20.6216 31.8883 20.862C32.8339 20.9852 33.7447 20.8024 34.5744 20.262C35.8145 19.4546 36.578 18.2629 36.7528 16.6542C36.9331 14.9921 36.418 13.6135 35.3232 12.4876C35.2773 12.4403 35.2221 12.4054 35.1282 12.3294Z" fill="#7CACE3"/>
<path d="M11.7309 27.9379C12.7925 27.9379 13.8559 27.9379 14.9175 27.9379C15.0132 27.9379 15.1088 27.9337 15.2045 27.9379C15.3351 27.944 15.3701 27.9851 15.3701 28.1371C15.3719 28.6508 15.3719 29.1624 15.3719 29.676C15.3701 31.0341 15.3682 32.3901 15.3664 33.7481C15.3664 34.0645 15.3535 34.081 15.0812 34.081C14.211 34.0789 13.3389 34.0748 12.4686 34.0728C11.5782 34.0728 10.6895 34.0769 9.79903 34.0789C9.26363 34.0789 8.7264 34.0789 8.191 34.0789C8.1726 34.0789 8.15236 34.0789 8.13397 34.0769C8.03093 34.0666 7.98678 34.0132 7.97942 33.8879C7.97574 33.8139 7.97942 33.7379 7.97942 33.6639C7.9831 32.3593 7.98678 31.0567 7.98862 29.752C7.98862 29.2713 7.9831 28.7905 7.97942 28.3097C7.97942 28.246 7.97574 28.1803 7.97942 28.1166C7.98678 28.0015 8.03645 27.944 8.14317 27.9337C8.2186 27.9255 8.29587 27.9296 8.37315 27.9296C9.49361 27.9296 10.6122 27.9296 11.7327 27.9296C11.7309 27.9317 11.7309 27.9337 11.7309 27.9379Z" fill="#7CACE3"/>
<path d="M11.3334 58.6617C10.4153 58.6617 9.49724 58.6617 8.57732 58.6617C8.35654 58.6617 8.13759 58.6699 7.91681 58.672C7.85978 58.672 7.8009 58.672 7.74571 58.6596C7.68499 58.6453 7.64268 58.6001 7.63348 58.5302C7.62428 58.4562 7.62244 58.3823 7.62244 58.3063C7.62428 57.0879 7.6298 55.8696 7.63164 54.6533C7.63348 54.0657 7.6298 53.478 7.6298 52.8904C7.6298 52.8576 7.62796 52.8268 7.6298 52.7939C7.63716 52.5761 7.67027 52.5391 7.87082 52.533C8.07136 52.5288 8.2719 52.5247 8.47429 52.5247C9.42181 52.5268 10.3693 52.533 11.315 52.533C12.2331 52.533 13.1512 52.5268 14.0711 52.5247C14.3103 52.5247 14.5495 52.5268 14.7886 52.533C14.9763 52.5371 15.0113 52.574 15.0149 52.7733C15.0186 53.0076 15.0223 53.2438 15.0205 53.4781C15.0186 54.8669 15.0149 56.2558 15.0131 57.6447C15.0131 57.8584 15.0168 58.072 15.0205 58.2857C15.026 58.6555 15.0113 58.674 14.6911 58.672C14.4906 58.6699 14.29 58.6617 14.0877 58.6617C13.1714 58.6617 12.2533 58.6617 11.3334 58.6617Z" fill="#7CACE3"/>
<path d="M42.2245 58.6617C41.8897 58.6617 41.5548 58.6617 41.22 58.6617C40.4546 58.6617 39.6892 58.6617 38.9238 58.6617C38.8668 58.6617 38.8098 58.6679 38.7509 58.6637C38.6534 58.6576 38.6092 58.6144 38.5982 58.5117C38.5927 58.4583 38.5927 58.4049 38.5927 58.3515C38.5927 56.7284 38.5927 55.1032 38.5945 53.4801C38.5945 53.2336 38.5945 52.9891 38.6 52.7425C38.6037 52.5782 38.646 52.5288 38.7895 52.5247C39.0195 52.5206 39.2495 52.5247 39.4776 52.5247C40.473 52.5247 41.4683 52.5247 42.4619 52.5247C43.4756 52.5268 44.4894 52.5309 45.505 52.533C45.6098 52.533 45.7147 52.5268 45.8214 52.5309C45.9263 52.535 45.9796 52.5925 45.9852 52.7117C45.9907 52.8391 45.9852 52.9685 45.9852 53.0959C45.9852 53.5972 45.9852 54.1006 45.9852 54.6019C45.9852 55.81 45.9852 57.016 45.9815 58.2241C45.9796 58.672 45.9741 58.672 45.5822 58.672C44.6163 58.6679 43.6504 58.6658 42.6826 58.6617C42.5318 58.6617 42.3772 58.6617 42.2245 58.6617Z" fill="#7CACE3"/>
<path d="M22.0634 27.9358C23.1913 27.9358 24.3209 27.9358 25.4488 27.9358C25.7303 27.9358 25.745 27.9502 25.745 28.2543C25.745 28.6611 25.7376 29.0658 25.7376 29.4726C25.7376 29.9862 25.745 30.4978 25.745 31.0115C25.7468 31.9093 25.745 32.8051 25.745 33.7029C25.745 33.7666 25.7468 33.8303 25.7431 33.8961C25.7358 34.0235 25.6953 34.0707 25.5849 34.0789C25.5371 34.083 25.4892 34.081 25.4414 34.0789C24.2749 34.0789 23.1085 34.0789 21.9402 34.0789C20.84 34.0789 19.7397 34.0789 18.6413 34.0789C18.5935 34.0789 18.5457 34.081 18.4978 34.0769C18.4206 34.0687 18.3727 34.0193 18.3654 33.9372C18.3598 33.8529 18.3617 33.7666 18.3617 33.6803C18.3635 32.3983 18.3672 31.1163 18.3672 29.8342C18.3672 29.3329 18.3635 28.8295 18.3617 28.3282C18.3617 28.2543 18.358 28.1782 18.3635 28.1043C18.3709 27.9851 18.4169 27.9379 18.5309 27.9337C18.7517 27.9296 18.9707 27.9296 19.1914 27.9296C20.1482 27.9296 21.1049 27.9296 22.0616 27.9296C22.0635 27.9317 22.0634 27.9337 22.0634 27.9358Z" fill="#7CACE3"/>
<path d="M42.6238 34.0707C41.5033 34.0707 40.3847 34.0707 39.2642 34.0707C39.2348 34.0707 39.2072 34.0728 39.1777 34.0707C38.9717 34.0645 38.9514 34.044 38.9514 33.8077C38.9514 33.1236 38.9533 32.4394 38.9533 31.7552C38.9533 31.295 38.9459 30.8368 38.9441 30.3766C38.9422 29.6288 38.9441 28.8809 38.9441 28.133C38.9441 27.9851 38.9809 27.9358 39.106 27.9276C39.163 27.9235 39.22 27.9276 39.2789 27.9276C40.7232 27.9296 42.1693 27.9337 43.6136 27.9358C44.4084 27.9358 45.2014 27.9317 45.9962 27.9276C46.0256 27.9276 46.0532 27.9276 46.0827 27.9276C46.2998 27.9194 46.3458 27.9954 46.3384 28.2317C46.3255 28.6693 46.3347 29.1069 46.3347 29.5466C46.3329 30.0808 46.3292 30.6149 46.3292 31.1491C46.3292 32.0141 46.3292 32.8811 46.3292 33.7461C46.3292 34.0563 46.3163 34.0728 46.0385 34.0728C44.9015 34.0728 43.7626 34.0707 42.6238 34.0707Z" fill="#7CACE3"/>
<path d="M11.5137 44.4318C11.9534 44.4318 12.3932 44.4339 12.8329 44.4318C13.1199 44.4298 13.4069 44.4195 13.6939 44.4195C14.1153 44.4195 14.5347 44.4257 14.9561 44.4298C15.1345 44.4318 15.1769 44.475 15.1787 44.6743C15.1824 45.379 15.1824 46.0837 15.1824 46.7884C15.1824 47.226 15.1842 47.6637 15.1842 48.1013C15.1824 48.8389 15.1824 49.5764 15.1787 50.312C15.1769 50.5051 15.1309 50.5524 14.9506 50.5524C14.2809 50.5544 13.6111 50.5503 12.9414 50.5524C11.315 50.5544 9.68859 50.5565 8.06216 50.5585C8.03273 50.5585 8.00513 50.5606 7.97569 50.5585C7.86162 50.5503 7.82114 50.5092 7.8101 50.3839C7.80642 50.3407 7.80642 50.2976 7.80642 50.2565C7.80642 48.4074 7.80642 46.5604 7.80642 44.7113C7.80642 44.6578 7.80458 44.6044 7.81378 44.551C7.82482 44.4832 7.86162 44.4339 7.92785 44.4257C7.96649 44.4216 8.00329 44.4236 8.04192 44.4236C8.40621 44.4236 8.76867 44.4257 9.13296 44.4257C9.3335 44.4257 9.53404 44.4277 9.73643 44.4277C10.3289 44.4318 10.9213 44.4318 11.5137 44.4318Z" fill="#7CACE3"/>
<path d="M21.885 50.5544C20.7664 50.5544 19.6478 50.5544 18.5292 50.5544C18.2072 50.5544 18.1943 50.54 18.1943 50.1723C18.1943 49.1902 18.1943 48.2081 18.1943 47.226C18.1943 46.4042 18.1925 45.5824 18.1943 44.7606C18.1943 44.4565 18.2164 44.4318 18.485 44.4298C19.3166 44.4257 20.1482 44.4195 20.9798 44.4175C21.2374 44.4175 21.4968 44.4298 21.7544 44.4298C22.0801 44.4298 22.4039 44.4195 22.7295 44.4175C23.4949 44.4154 24.2584 44.4154 25.0238 44.4175C25.1581 44.4175 25.2924 44.4236 25.4249 44.4359C25.5187 44.4442 25.5611 44.4996 25.5721 44.6003C25.5758 44.6435 25.5758 44.6866 25.5758 44.7277C25.5758 45.4653 25.5739 46.2008 25.5758 46.9384C25.5758 47.3966 25.5831 47.8568 25.5831 48.3149C25.5831 48.956 25.5794 49.597 25.5758 50.236C25.5758 50.2688 25.5776 50.2996 25.5758 50.3325C25.5666 50.4948 25.5261 50.5462 25.3863 50.5524C25.263 50.5585 25.1379 50.5524 25.0128 50.5524C23.9696 50.5524 22.9264 50.5524 21.885 50.5544C21.885 50.5524 21.885 50.5524 21.885 50.5544Z" fill="#7CACE3"/>
<path d="M32.2635 27.9296C33.3821 27.9296 34.5008 27.9296 35.6194 27.9296C35.9506 27.9296 35.9524 27.9276 35.9524 28.3036C35.9506 29.7561 35.9487 31.2067 35.9487 32.6592C35.9487 33.0106 35.9524 33.3639 35.9524 33.7153C35.9524 33.7892 35.9543 33.8653 35.9469 33.9392C35.9395 34.0091 35.8972 34.0543 35.8347 34.0666C35.7979 34.0728 35.7592 34.0728 35.7206 34.0728C35.176 34.0728 34.6314 34.0707 34.085 34.0728C33.1871 34.0748 32.2874 34.0769 31.3896 34.0789C30.558 34.081 29.7264 34.0789 28.8948 34.0789C28.8653 34.0789 28.8377 34.0789 28.8083 34.0769C28.6077 34.0666 28.582 34.0378 28.5801 33.8077C28.5783 33.1564 28.5801 32.5051 28.5801 31.8538C28.5801 31.4265 28.5765 30.9991 28.5746 30.5718C28.5728 29.7603 28.5728 28.9487 28.5746 28.1371C28.5746 27.9769 28.6169 27.9317 28.766 27.9296C29.2535 27.9276 29.7411 27.9276 30.2286 27.9276C30.9057 27.9296 31.5846 27.9296 32.2635 27.9296Z" fill="#7CACE3"/>
<path d="M21.7047 58.6699C21.3514 58.6699 20.9963 58.672 20.6431 58.6699C20.3174 58.6679 19.9918 58.6617 19.6661 58.6638C19.2264 58.6638 18.7848 58.6699 18.3451 58.672C18.2881 58.672 18.2292 58.6761 18.1722 58.672C18.082 58.6638 18.036 58.6144 18.025 58.5097C18.0176 58.446 18.0195 58.3823 18.0195 58.3186C18.0195 57.7741 18.0213 57.2276 18.0195 56.6832C18.0176 55.4319 18.0158 54.1828 18.0121 52.9315C18.0103 52.535 18.0084 52.535 18.3543 52.535C19.2448 52.533 20.1335 52.5268 21.0239 52.5268C22.0009 52.5268 22.976 52.533 23.953 52.535C24.297 52.535 24.6411 52.5288 24.987 52.5268C25.0348 52.5268 25.0826 52.5247 25.1305 52.5268C25.3494 52.533 25.3825 52.5679 25.3844 52.8042C25.3881 53.2644 25.3899 53.7225 25.3899 54.1828C25.3899 54.7272 25.3899 55.2737 25.3899 55.8182C25.3899 56.6626 25.3899 57.507 25.3917 58.3515C25.3917 58.3843 25.3936 58.4152 25.3917 58.448C25.3825 58.6247 25.3421 58.6679 25.1765 58.6679C24.5546 58.6679 23.9327 58.6658 23.3109 58.6658C22.7755 58.6658 22.2382 58.6658 21.7028 58.6658C21.7047 58.6658 21.7047 58.6679 21.7047 58.6699Z" fill="#7CACE3"/>
<path d="M31.9361 52.535C32.8929 52.535 33.8477 52.535 34.8045 52.535C35.005 52.535 35.2056 52.5247 35.4061 52.5268C35.5514 52.5288 35.5938 52.5761 35.603 52.7343C35.6066 52.7877 35.603 52.8411 35.603 52.8946C35.6011 54.1232 35.5974 55.3498 35.5956 56.5784C35.5956 57.166 35.5938 57.7536 35.5974 58.3412C35.5993 58.6247 35.5643 58.6699 35.3067 58.6679C34.236 58.6576 33.1652 58.6638 32.0944 58.6638C31.1193 58.6658 30.1441 58.6699 29.169 58.672C28.9298 58.672 28.6907 58.6679 28.4515 58.6638C28.2712 58.6596 28.2307 58.6186 28.227 58.4193C28.2215 57.9816 28.2197 57.544 28.2197 57.1064C28.2178 56.5517 28.2178 55.9969 28.2197 55.4402C28.2215 54.8423 28.2252 54.2444 28.227 53.6465C28.227 53.4123 28.2215 53.176 28.2197 52.9418C28.2197 52.8781 28.216 52.8144 28.2197 52.7487C28.227 52.5761 28.2712 52.5309 28.4349 52.5247C28.4828 52.5227 28.5306 52.5247 28.5784 52.5247C29.353 52.5288 30.1276 52.5309 30.9022 52.535C31.248 52.535 31.5921 52.535 31.9361 52.535Z" fill="#7CACE3"/>
<path d="M42.4526 50.5565C41.3524 50.5565 40.254 50.5565 39.1537 50.5565C39.0875 50.5565 39.0194 50.5606 38.9532 50.5565C38.8336 50.5483 38.7858 50.4928 38.7766 50.3551C38.7729 50.2914 38.7766 50.2277 38.7766 50.164C38.7803 48.9252 38.7858 47.6883 38.7858 46.4494C38.7858 45.8844 38.7766 45.3174 38.7747 44.7523C38.7729 44.4483 38.8005 44.4175 39.0636 44.4175C39.9044 44.4216 40.7452 44.4277 41.5879 44.4298C41.9319 44.4298 42.276 44.4175 42.62 44.4175C43.1941 44.4175 43.7681 44.4257 44.3403 44.4277C44.837 44.4277 45.3338 44.4236 45.8324 44.4216C45.8894 44.4216 45.9465 44.4195 46.0035 44.4236C46.1102 44.4318 46.1525 44.4791 46.1599 44.6065C46.1636 44.6702 46.1617 44.7339 46.1617 44.7975C46.1617 46.5912 46.1617 48.3848 46.1617 50.1784C46.1617 50.2627 46.1617 50.349 46.1525 50.4332C46.1433 50.503 46.0973 50.5441 46.0348 50.5544C45.998 50.5606 45.9593 50.5565 45.9207 50.5565C45.5288 50.5565 45.1369 50.5565 44.745 50.5565C43.9815 50.5585 43.218 50.5585 42.4526 50.5565Z" fill="#7CACE3"/>
<path d="M7.84141 42.1328C7.83037 42.0753 7.81014 42.0136 7.8083 41.954C7.80278 41.7938 7.80462 41.6335 7.80462 41.4733C7.80646 40.031 7.8083 38.5887 7.81014 37.1464C7.81014 36.8793 7.80462 36.6122 7.80462 36.3451C7.80462 36.2814 7.80462 36.2177 7.81014 36.154C7.8175 36.0821 7.85981 36.041 7.92421 36.0308C7.9518 36.0266 7.98124 36.0266 8.01068 36.0266C8.68038 36.0308 9.35009 36.0369 10.0198 36.0369C10.9195 36.0369 11.8173 36.0328 12.717 36.0308C13.464 36.0287 14.2091 36.0287 14.9561 36.0266C14.9745 36.0266 14.9947 36.0246 15.0131 36.0266C15.1456 36.0349 15.1898 36.078 15.1916 36.2177C15.1953 36.3985 15.1898 36.5814 15.1898 36.7622C15.1898 37.2532 15.1898 37.7443 15.1898 38.2353C15.1879 38.7263 15.1824 39.2174 15.1824 39.7084C15.1824 40.3823 15.1879 41.0541 15.1916 41.728C15.1934 42.1759 15.1861 42.1677 14.7942 42.1677C13.8853 42.1657 12.9764 42.1718 12.0675 42.1739C10.8146 42.1759 9.56167 42.1759 8.30873 42.1718C8.15419 42.1739 7.99964 42.2006 7.84141 42.1328Z" fill="#7CACE3"/>
<path d="M25.5223 42.1369C25.469 42.1472 25.4046 42.1657 25.3402 42.1677C25.1875 42.1739 25.0348 42.1739 24.8821 42.1739C23.9069 42.1718 22.9318 42.1677 21.9567 42.1677C20.8197 42.1657 19.6808 42.1677 18.5438 42.1677C18.1942 42.1677 18.1868 42.1636 18.185 41.7794C18.185 41.2781 18.1942 40.7747 18.1942 40.2734C18.1924 39.014 18.1869 37.7525 18.1832 36.493C18.1832 36.3965 18.1795 36.2999 18.1869 36.2054C18.1942 36.0903 18.2439 36.041 18.3561 36.0308C18.4315 36.0246 18.5088 36.0287 18.5861 36.0287C19.4655 36.0308 20.345 36.0349 21.2244 36.0369C22.4387 36.039 23.653 36.0369 24.8673 36.0369C25.0292 36.0369 25.193 36.0266 25.3549 36.0287C25.537 36.0308 25.5775 36.0739 25.583 36.2691C25.5867 36.4191 25.583 36.5691 25.583 36.717C25.583 37.2409 25.5849 37.7627 25.583 38.2867C25.5812 38.7777 25.5757 39.2687 25.5757 39.7598C25.5757 40.4213 25.583 41.0829 25.5812 41.7465C25.5794 41.8739 25.6051 42.0054 25.5223 42.1369Z" fill="#7CACE3"/>
<path d="M32.0869 44.4318C32.8799 44.4318 33.6728 44.4318 34.4677 44.4318C34.7068 44.4318 34.946 44.4257 35.1852 44.4216C35.2993 44.4195 35.4152 44.4154 35.5293 44.4175C35.7574 44.4216 35.7905 44.4606 35.7887 44.7195C35.785 46.0015 35.7795 47.2815 35.7776 48.5635C35.7776 49.108 35.785 49.6525 35.7868 50.1969C35.7868 50.2709 35.7887 50.3469 35.7813 50.4209C35.774 50.4907 35.7316 50.538 35.6691 50.5482C35.6028 50.5585 35.5366 50.5606 35.4685 50.5606C34.0629 50.5585 32.6573 50.5524 31.2516 50.5524C30.3998 50.5524 29.5497 50.5565 28.6979 50.5606C28.6685 50.5606 28.6409 50.5626 28.6114 50.5606C28.4164 50.5544 28.3814 50.5174 28.3833 50.2914C28.3851 49.897 28.3943 49.5004 28.3943 49.1059C28.3925 47.6637 28.3888 46.2234 28.3833 44.7811C28.3814 44.4339 28.3998 44.4154 28.7016 44.4195C29.0843 44.4236 29.467 44.4195 29.8478 44.4216C30.1146 44.4216 30.3832 44.4277 30.65 44.4277C31.1283 44.4298 31.6067 44.4277 32.0832 44.4277C32.0869 44.4277 32.0869 44.4298 32.0869 44.4318Z" fill="#7CACE3"/>
<path d="M42.4876 42.1759C41.3487 42.1759 40.2117 42.1718 39.0728 42.178C38.806 42.18 38.7508 42.141 38.7858 41.8287C38.7987 41.7239 38.7895 41.615 38.7895 41.5082C38.7895 40.5364 38.7895 39.5646 38.7895 38.5928C38.7895 37.8675 38.7895 37.1402 38.7895 36.415C38.7895 36.3718 38.7876 36.3287 38.7895 36.2876C38.795 36.0821 38.8281 36.039 39.0047 36.0369C39.2917 36.0308 39.5788 36.0287 39.8658 36.0308C40.7544 36.0328 41.6449 36.0369 42.5336 36.0369C43.5179 36.0369 44.504 36.0328 45.4884 36.0308C45.6613 36.0308 45.8324 36.0308 46.0054 36.0369C46.1047 36.041 46.1452 36.0862 46.1544 36.191C46.1599 36.2444 46.1581 36.2978 46.1581 36.3513C46.1581 38.2106 46.1581 40.068 46.1581 41.9273C46.1581 41.9705 46.1599 42.0136 46.1562 42.0547C46.1489 42.1287 46.1084 42.1677 46.044 42.178C46.0072 42.1842 45.9686 42.18 45.9299 42.18C45.5196 42.18 45.1075 42.178 44.6972 42.178C43.9613 42.1739 43.2235 42.1759 42.4876 42.1759Z" fill="#7CACE3"/>
<path d="M32.0594 42.1677C31.064 42.1677 30.0687 42.1677 29.0733 42.1677C28.9004 42.1677 28.7292 42.178 28.5563 42.1759C28.422 42.1739 28.3834 42.1266 28.3852 41.9828C28.387 40.935 28.3926 39.8892 28.3944 38.8414C28.3962 38.0196 28.3944 37.1957 28.3944 36.3739C28.3944 36.0575 28.4073 36.041 28.6777 36.039C29.042 36.0349 29.4045 36.039 29.7688 36.039C30.6684 36.0369 31.5681 36.0328 32.4678 36.0328C33.4816 36.0328 34.4972 36.0369 35.5109 36.039C35.5293 36.039 35.5496 36.039 35.568 36.039C35.7335 36.0492 35.7722 36.0883 35.774 36.2691C35.7795 36.5999 35.7851 36.9306 35.7832 37.2635C35.7832 37.6703 35.774 38.075 35.774 38.4818C35.7722 39.5297 35.774 40.5754 35.774 41.6233C35.774 41.7506 35.7832 41.8801 35.7851 42.0075C35.7851 42.1122 35.7427 42.1636 35.6471 42.1739C35.59 42.18 35.533 42.178 35.476 42.178C34.3371 42.178 33.1982 42.178 32.0594 42.178C32.0594 42.1739 32.0594 42.1698 32.0594 42.1677Z" fill="#7CACE3"/>
<path d="M33.1392 27.4057L61.0681 58.5939" stroke="#7CACE3" stroke-width="7" stroke-miterlimit="10" stroke-linecap="round"/>
<path d="M61.0681 27.4057L33.1392 58.5939" stroke="#7CACE3" stroke-width="7" stroke-miterlimit="10" stroke-linecap="round"/>
</g>
<defs>
<clipPath id="clip0_499_544">
<rect width="65" height="65" fill="white"/>
</clipPath>
</defs>
</svg>
