<svg width="65" height="65" viewBox="0 0 65 65" fill="none" xmlns="http://www.w3.org/2000/svg">
<g clip-path="url(#clip0_499_523)">
<path d="M5.71 7.20553C5.71404 7.07559 5.7201 6.97002 5.7201 6.86647C5.7201 5.39857 5.72211 3.93066 5.7201 2.46276C5.7201 2.22927 5.74432 1.99985 5.81092 1.77448C6.00469 1.1187 6.43259 0.659851 7.0159 0.337033C7.35095 0.152276 7.71426 0.0385795 8.09573 0.0223371C8.47317 0.00406444 8.85263 -0.00405675 9.23006 0.0162462C9.84769 0.048731 10.4007 0.272064 10.865 0.680154C11.3897 1.14103 11.6683 1.7217 11.6642 2.43636C11.6582 3.76621 11.6602 5.09808 11.6582 6.42793C11.6582 6.60659 11.6602 6.78729 11.6642 6.96596C11.6663 7.02687 11.6804 7.08777 11.6885 7.14868C11.7288 7.1629 11.7571 7.1832 11.7853 7.1832C14.4092 7.18523 17.0352 7.18523 19.659 7.18523C19.6994 7.18523 19.7378 7.16899 19.7963 7.1568C19.8024 7.05935 19.8145 6.96596 19.8145 6.87459C19.8165 5.41684 19.8124 3.95909 19.8185 2.50133C19.8185 2.28206 19.8306 2.05467 19.8811 1.84148C20.0163 1.25879 20.3695 0.820244 20.8519 0.485245C21.2596 0.203034 21.7158 0.0467007 22.2062 0.0182765C22.5837 -0.00405675 22.9631 -0.0142082 23.3386 0.0162462C24.0531 0.0730946 24.6808 0.345155 25.1672 0.895365C25.5467 1.32173 25.7485 1.81509 25.7465 2.39373C25.7445 3.86163 25.7465 5.32954 25.7465 6.79744C25.7465 6.91114 25.7525 7.02687 25.7546 7.12635C25.8535 7.21162 25.9524 7.18726 26.0432 7.18726C26.6527 7.18929 27.2603 7.18929 27.8698 7.18929C29.2968 7.18929 30.7258 7.18929 32.1528 7.18929C32.276 7.18929 32.4011 7.1832 32.5242 7.17914C32.5908 7.05123 32.5686 6.93347 32.5686 6.81978C32.5706 5.82696 32.5706 4.83414 32.5706 3.84133C32.5706 3.37639 32.5686 2.91145 32.5686 2.44651C32.5686 1.61003 32.934 0.964396 33.6101 0.495397C34.0622 0.1807 34.5668 0.0101553 35.1158 0.00812504C35.5659 0.00609474 36.018 -0.0243597 36.4661 0.0649734C37.0656 0.184761 37.5641 0.477124 37.9678 0.931911C38.3251 1.33391 38.4926 1.81509 38.5148 2.35109C38.5188 2.45666 38.5168 2.56224 38.5168 2.66782C38.5148 3.96721 38.5148 5.2666 38.5128 6.56599C38.5128 6.75481 38.5208 6.94362 38.5249 7.14868C38.6076 7.1629 38.6762 7.18117 38.7469 7.1832C39.0517 7.18726 39.3564 7.18929 39.6612 7.18929C41.8027 7.18929 43.9442 7.18929 46.0877 7.18929C46.2633 7.18929 46.443 7.20553 46.6327 7.1568C46.6428 7.08371 46.659 7.01265 46.659 6.94159C46.661 6.43402 46.661 5.92848 46.661 5.4209C46.661 4.41793 46.665 3.41497 46.659 2.40997C46.6549 1.77042 46.887 1.23239 47.3351 0.79182C47.8437 0.292367 48.4614 0.028428 49.1759 0.00812504C49.5008 3.84468e-06 49.8278 -0.00608705 50.1528 0.0121856C50.9117 0.0527916 51.5555 0.363427 52.0561 0.938002C52.4154 1.34812 52.597 1.83539 52.597 2.38966C52.595 3.4779 52.595 4.56614 52.595 5.65235C52.595 6.04217 52.595 6.43402 52.593 6.82384C52.593 6.92941 52.593 7.03296 52.593 7.11214C52.6838 7.2238 52.7847 7.20553 52.8736 7.22177C53.1824 7.27862 53.4972 7.3172 53.8 7.39638C54.9727 7.69889 55.9556 8.32423 56.771 9.21553C57.7459 10.2835 58.3212 11.5443 58.4867 12.9817C58.5452 13.4832 58.5351 13.9948 58.5371 14.5004C58.5432 15.747 58.5351 16.9936 58.5351 18.2402C58.5351 18.8838 58.5472 19.5294 58.5492 20.173C58.5492 20.437 58.5331 20.7009 58.5331 20.9649C58.5311 21.9049 58.5331 22.8449 58.5331 23.7849C58.5331 24.662 58.5311 25.5371 58.5331 26.4142C58.5351 27.5958 58.5432 28.7795 58.5452 29.9611C58.5472 30.8585 58.5472 31.7559 58.5452 32.6533C58.5432 33.8045 58.5351 34.9556 58.5331 36.1068C58.5311 36.9616 58.5331 37.8184 58.5331 38.6731C58.5331 39.4223 58.5311 40.1735 58.5331 40.9227C58.5351 42.1795 58.5412 43.4362 58.5452 44.693C58.5472 45.5802 58.5472 46.4674 58.5452 47.3547C58.5432 48.5383 58.5351 49.72 58.5331 50.9036C58.5311 51.7909 58.5311 52.6781 58.5331 53.5654C58.5351 54.6962 58.5392 55.8251 58.5452 56.956C58.5492 57.5691 58.521 58.1823 58.4342 58.7893C58.3514 59.368 58.1738 59.9202 57.9316 60.4501C57.429 61.5485 56.6923 62.454 55.7033 63.1463C55.005 63.6356 54.2339 63.9524 53.3983 64.1209C52.9725 64.2062 52.5486 64.2325 52.1146 64.2305C51.1377 64.2244 50.1608 64.2346 49.186 64.2346C48.1465 64.2346 47.107 64.2285 46.0676 64.2285C44.3661 64.2285 42.6666 64.2346 40.9651 64.2346C39.3585 64.2346 37.7518 64.2285 36.1452 64.2285C34.4558 64.2285 32.7644 64.2346 31.075 64.2346C29.426 64.2346 27.779 64.2305 26.13 64.2285C24.7555 64.2265 23.3789 64.2265 22.0044 64.2285C20.3776 64.2305 18.7488 64.2346 17.1219 64.2346C15.5375 64.2346 13.9511 64.2285 12.3666 64.2285C10.76 64.2285 9.15337 64.2325 7.54673 64.2346C7.04214 64.2346 6.53956 64.2285 6.03496 64.2305C5.49202 64.2305 4.97329 64.1026 4.45861 63.9483C3.67346 63.7108 2.97308 63.3108 2.3494 62.7789C1.46535 62.0236 0.819463 61.0998 0.419824 60.0075C0.147342 59.2583 0.00201838 58.4827 0.00201838 57.6808C0.00201838 56.1702 0.00201838 54.6597 0 53.1491C0.00605515 51.8782 0 50.6113 0 49.3444C0 48.0145 0.00605515 46.6827 0.00605515 45.3528C0.00807353 43.7042 0.00807353 42.0576 0.00605515 40.409C0.00605515 39.1949 0 37.9808 0 36.7646C0 35.6236 0.00605515 34.4826 0.00605515 33.3436C0.00605515 32.097 0 30.8504 0 29.6058C0 28.3064 0.00605515 27.007 0.00605515 25.7097C0.00605515 24.5585 0 23.4073 0 22.2561C0 20.2807 0.00201838 18.3052 0.00201838 16.3317C0.00201838 15.4871 -0.00201838 14.6425 0.00403677 13.7979C0.0100919 12.868 0.177618 11.9686 0.549 11.1159C1.19488 9.62768 2.23233 8.50289 3.6896 7.78823C4.25879 7.50805 4.8643 7.3375 5.49202 7.24411C5.55257 7.23396 5.61312 7.22177 5.71 7.20553ZM29.3432 25.2813C27.3693 25.2792 25.3953 25.2792 23.4213 25.2792C21.4473 25.2792 19.4734 25.2792 17.4994 25.2792C15.4628 25.2792 13.4263 25.2792 11.3897 25.2792C10.1605 25.2792 8.93336 25.2772 7.70417 25.2772C7.25205 25.2772 6.80195 25.2792 6.34983 25.2874C6.09753 25.2914 5.85129 25.3178 5.60505 25.3909C4.93091 25.5879 4.09328 26.3553 3.87529 27.1898C3.79052 27.5105 3.73603 27.8273 3.73804 28.1562C3.74208 29.3804 3.74612 30.6068 3.74612 31.831C3.74612 33.1832 3.73804 34.5333 3.73804 35.8855C3.73804 37.0144 3.74612 38.1452 3.74612 39.2741C3.74612 40.5938 3.73804 41.9135 3.73804 43.2332C3.73804 44.3641 3.74612 45.4929 3.74612 46.6238C3.74612 47.976 3.74006 49.3261 3.73804 50.6783C3.73804 51.7767 3.74612 52.8751 3.74612 53.9735C3.74612 55.1774 3.7441 56.3814 3.73603 57.5854C3.73401 58.0462 3.7885 58.4888 3.98631 58.9111C4.46466 59.9303 5.25183 60.4866 6.38011 60.5293C6.75755 60.5435 7.13498 60.5394 7.51444 60.5394C8.51152 60.5374 9.5086 60.5333 10.5057 60.5313C11.4402 60.5313 12.3747 60.5374 13.3092 60.5374C14.3386 60.5374 15.3659 60.5313 16.3953 60.5313C17.3399 60.5313 18.2845 60.5374 19.2291 60.5374C20.2585 60.5374 21.2859 60.5313 22.3152 60.5313C23.2598 60.5313 24.2044 60.5374 25.149 60.5374C26.1885 60.5374 27.228 60.5313 28.2675 60.5313C29.2221 60.5313 30.1789 60.5394 31.1336 60.5374C32.1629 60.5374 33.1903 60.5313 34.2197 60.5313C35.2167 60.5313 36.2138 60.5394 37.2109 60.5394C38.2403 60.5394 39.2676 60.5333 40.297 60.5333C41.3143 60.5333 42.3336 60.5394 43.3508 60.5394C44.3378 60.5394 45.3248 60.5333 46.3118 60.5333C47.2564 60.5333 48.201 60.5394 49.1456 60.5394C50.2053 60.5394 51.2669 60.5354 52.3266 60.5394C52.9866 60.5415 53.5719 60.3242 54.0583 59.8897C54.6941 59.3233 55.0231 58.5944 55.0332 57.7356C55.0413 57.1123 55.0352 56.489 55.0352 55.8657C55.0332 54.5237 55.0272 53.1837 55.0272 51.8416C55.0272 50.7006 55.0352 49.5616 55.0352 48.4206C55.0352 47.0684 55.0292 45.7183 55.0272 44.3661C55.0272 43.29 55.0352 42.2119 55.0352 41.1359C55.0352 39.7634 55.0292 38.3909 55.0272 37.0184C55.0272 35.8876 55.0352 34.7587 55.0352 33.6278C55.0352 32.2858 55.0292 30.9458 55.0272 29.6038C55.0272 29.1185 55.0373 28.6313 55.0332 28.146C55.0292 27.742 54.9505 27.3502 54.8072 26.9705C54.4317 25.9716 53.3903 25.2589 52.3972 25.2833C52.1046 25.2914 51.8099 25.2752 51.5152 25.2752C50.3183 25.2752 49.1214 25.2792 47.9245 25.2792C41.7321 25.2813 35.5377 25.2813 29.3432 25.2813ZM46.6489 12.1615C46.5802 12.1859 46.558 12.1899 46.5419 12.2001C46.5076 12.2224 46.4733 12.2508 46.441 12.2772C45.9949 12.6406 45.6437 13.0853 45.3611 13.5868C44.8525 14.4902 44.6628 15.4648 44.796 16.4881C45.0866 18.695 46.8568 20.3862 49.0346 20.6177C49.9873 20.7192 50.8976 20.5588 51.7513 20.1182C52.7807 19.5883 53.5336 18.7884 53.9897 17.7204C54.351 16.8758 54.4519 15.9927 54.2905 15.0831C54.0967 14.005 53.5941 13.1015 52.7847 12.3706C52.7403 12.332 52.7 12.2732 52.6091 12.3158C52.6051 12.3584 52.597 12.4092 52.597 12.4599C52.595 13.0934 52.595 13.7269 52.595 14.3603C52.595 14.8252 52.595 15.2902 52.591 15.7551C52.5849 16.3195 52.3831 16.8068 51.9996 17.2169C51.5192 17.7306 50.9258 18.027 50.2254 18.0737C49.8601 18.0981 49.4907 18.0879 49.1234 18.0798C48.5926 18.0697 48.1142 17.893 47.6823 17.5905C47.0162 17.1256 46.659 16.4941 46.661 15.6638C46.665 14.608 46.661 13.5522 46.659 12.4965C46.661 12.3909 46.6549 12.2894 46.6489 12.1615ZM5.72212 12.2366C5.59899 12.332 5.52835 12.3767 5.47184 12.4315C4.25273 13.6213 3.74814 15.0608 4.04282 16.7459C4.35365 18.5285 5.71 20.0187 7.56086 20.4959C8.28748 20.6847 9.03024 20.6989 9.77503 20.5405C10.6207 20.3619 11.3655 19.9842 11.9892 19.4015C13.2789 18.1996 13.7916 16.7114 13.4687 14.9613C13.2729 13.9075 12.7421 13.0365 11.9488 12.328C11.8802 12.2671 11.8176 12.1899 11.6925 12.1899C11.6824 12.2589 11.6663 12.328 11.6663 12.399C11.6642 13.0122 11.6642 13.6233 11.6622 14.2365C11.6622 14.744 11.6642 15.2496 11.6582 15.7571C11.6501 16.4068 11.3918 16.9469 10.9154 17.3753C10.4471 17.7976 9.89411 18.0351 9.26438 18.0737C8.95153 18.092 8.63464 18.0859 8.31977 18.0879C7.94637 18.092 7.58912 18.0108 7.24801 17.8666C6.4346 17.5235 5.69991 16.7439 5.72212 15.6028C5.7423 14.6121 5.72413 13.6192 5.72212 12.6264C5.72212 12.5188 5.72212 12.4153 5.72212 12.2366ZM19.7983 12.1716C19.7156 12.2265 19.6772 12.2468 19.6469 12.2732C18.3188 13.4568 17.7375 14.9328 18.0403 16.6972C18.331 18.3965 19.324 19.5985 20.8903 20.2604C22.3455 20.8755 23.7988 20.7882 25.1874 19.9883C25.8555 19.6025 26.4045 19.0848 26.8142 18.4331C27.45 17.422 27.6983 16.3216 27.5005 15.1338C27.3168 14.0212 26.796 13.0893 25.9584 12.3402C25.908 12.2955 25.8636 12.2204 25.7566 12.2569C25.7525 12.3544 25.7465 12.4579 25.7465 12.5615C25.7465 13.5949 25.7445 14.6303 25.7505 15.6638C25.7546 16.3744 25.478 16.9571 24.9492 17.4159C24.4911 17.8138 23.9542 18.0412 23.3466 18.0717C23.0015 18.09 22.6543 18.0859 22.3092 18.0818C21.9136 18.0778 21.5361 17.9824 21.189 17.7996C20.313 17.3367 19.7923 16.6383 19.8145 15.6028C19.8145 15.5602 19.8165 15.5176 19.8165 15.477C19.8165 14.4638 19.8185 13.4507 19.8185 12.4376C19.8145 12.3645 19.8064 12.2955 19.7983 12.1716ZM38.537 12.1838C38.5289 12.3097 38.5208 12.3726 38.5208 12.4356C38.5188 13.0487 38.5188 13.6599 38.5188 14.273C38.5188 14.7481 38.5208 15.2232 38.5148 15.6983C38.5087 16.2343 38.3452 16.7154 37.9961 17.1256C37.5076 17.7001 36.8819 18.0169 36.1371 18.0737C35.792 18.1001 35.4448 18.0839 35.0977 18.0798C34.5466 18.0717 34.0441 17.9011 33.594 17.5864C32.934 17.1296 32.5888 16.4962 32.5727 15.6881C32.5686 15.5196 32.5706 15.3511 32.5706 15.1805C32.5706 14.2933 32.5706 13.4061 32.5686 12.5188C32.5686 12.4295 32.5928 12.332 32.5141 12.2366C32.4475 12.2853 32.3849 12.3219 32.3345 12.3666C32.058 12.6122 31.8158 12.8883 31.6059 13.1949C30.849 14.3055 30.5926 15.5257 30.8591 16.8434C31.2688 18.8676 32.9582 20.3781 34.9826 20.6157C36.0201 20.7375 37.0192 20.5568 37.9294 20.0228C39.2898 19.2249 40.1275 18.0473 40.3192 16.4576C40.517 14.8151 39.9519 13.4528 38.7509 12.3402C38.7005 12.2935 38.6399 12.2589 38.537 12.1838Z" fill="#7CACE3"/>
<path d="M46.3219 57.9691C45.9546 57.9691 45.5872 57.9691 45.2199 57.9691C44.3802 57.9691 43.5406 57.9691 42.701 57.9691C42.6384 57.9691 42.5758 57.9752 42.5112 57.9711C42.4043 57.965 42.3558 57.9224 42.3437 57.8209C42.3376 57.7681 42.3376 57.7153 42.3376 57.6625C42.3376 56.0586 42.3376 54.4526 42.3397 52.8487C42.3397 52.605 42.3397 52.3634 42.3457 52.1198C42.3498 51.9574 42.3962 51.9086 42.5536 51.9046C42.8059 51.9005 43.0582 51.9046 43.3085 51.9046C44.4004 51.9046 45.4924 51.9046 46.5823 51.9046C47.6944 51.9066 48.8066 51.9107 49.9207 51.9127C50.0358 51.9127 50.1508 51.9066 50.2679 51.9107C50.3829 51.9147 50.4415 51.9716 50.4475 52.0893C50.4536 52.2152 50.4475 52.3431 50.4475 52.469C50.4475 52.9644 50.4475 53.4618 50.4475 53.9572C50.4475 55.151 50.4475 56.3428 50.4435 57.5366C50.4415 57.9792 50.4354 57.9792 50.0055 57.9792C48.9458 57.9752 47.8862 57.9731 46.8245 57.9691C46.659 57.9691 46.4895 57.9691 46.3219 57.9691Z" fill="#7CACE3"/>
<path d="M46.7598 33.6684C45.5306 33.6684 44.3035 33.6684 43.0743 33.6684C43.042 33.6684 43.0117 33.6705 42.9794 33.6684C42.7533 33.6623 42.7311 33.642 42.7311 33.4086C42.7311 32.7325 42.7332 32.0564 42.7332 31.3803C42.7332 30.9255 42.7251 30.4727 42.7231 30.018C42.721 29.2789 42.7231 28.5399 42.7231 27.8009C42.7231 27.6547 42.7634 27.606 42.9007 27.5978C42.9633 27.5938 43.0258 27.5978 43.0904 27.5978C44.6748 27.5999 46.2613 27.6039 47.8457 27.606C48.7177 27.606 49.5876 27.6019 50.4595 27.5978C50.4918 27.5978 50.5221 27.5978 50.5544 27.5978C50.7926 27.5897 50.843 27.6648 50.8349 27.8983C50.8208 28.3308 50.8309 28.7632 50.8309 29.1977C50.8289 29.7256 50.8249 30.2535 50.8249 30.7814C50.8249 31.6361 50.8249 32.4929 50.8249 33.3476C50.8249 33.6542 50.8107 33.6705 50.5059 33.6705C49.2586 33.6705 48.0092 33.6684 46.7598 33.6684Z" fill="#7CACE3"/>
<path d="M46.5722 49.9596C45.3652 49.9596 44.1602 49.9596 42.9532 49.9596C42.8806 49.9596 42.8059 49.9636 42.7332 49.9596C42.602 49.9514 42.5496 49.8966 42.5395 49.7606C42.5354 49.6976 42.5395 49.6347 42.5395 49.5718C42.5435 48.3475 42.5496 47.1253 42.5496 45.901C42.5496 45.3427 42.5395 44.7823 42.5374 44.224C42.5354 43.9235 42.5657 43.893 42.8543 43.893C43.7767 43.8971 44.6991 43.9032 45.6235 43.9052C46.001 43.9052 46.3784 43.893 46.7559 43.893C47.3856 43.893 48.0153 43.9011 48.643 43.9032C49.188 43.9032 49.733 43.8991 50.28 43.8971C50.3425 43.8971 50.4051 43.8951 50.4677 43.8991C50.5847 43.9072 50.6312 43.9539 50.6392 44.0798C50.6433 44.1427 50.6412 44.2057 50.6412 44.2686C50.6412 46.0411 50.6412 47.8135 50.6412 49.586C50.6412 49.6692 50.6412 49.7545 50.6312 49.8377C50.6211 49.9068 50.5706 49.9474 50.502 49.9575C50.4616 49.9636 50.4192 49.9596 50.3768 49.9596C49.9469 49.9596 49.517 49.9596 49.0871 49.9596C48.2495 49.9616 47.4118 49.9616 46.5722 49.9596Z" fill="#7CACE3"/>
<path d="M46.6105 41.678C45.3611 41.678 44.1138 41.6739 42.8644 41.68C42.5717 41.682 42.5112 41.6435 42.5495 41.3348C42.5636 41.2313 42.5536 41.1237 42.5536 41.0181C42.5536 40.0578 42.5536 39.0975 42.5536 38.1371C42.5536 37.4204 42.5536 36.7017 42.5536 35.985C42.5536 35.9424 42.5515 35.8997 42.5536 35.8591C42.5596 35.6561 42.5959 35.6135 42.7897 35.6114C43.1046 35.6053 43.4194 35.6033 43.7343 35.6053C44.7092 35.6074 45.6861 35.6114 46.661 35.6114C47.7408 35.6114 48.8227 35.6074 49.9025 35.6053C50.0922 35.6053 50.2799 35.6053 50.4697 35.6114C50.5786 35.6155 50.6231 35.6602 50.6331 35.7637C50.6392 35.8165 50.6372 35.8693 50.6372 35.9221C50.6372 37.7595 50.6372 39.5949 50.6372 41.4323C50.6372 41.4749 50.6392 41.5176 50.6352 41.5582C50.6271 41.6313 50.5827 41.6698 50.512 41.68C50.4717 41.6861 50.4293 41.682 50.3869 41.682C49.9368 41.682 49.4847 41.68 49.0346 41.68C48.2272 41.6759 47.4179 41.678 46.6105 41.678Z" fill="#7CACE3"/>
<path d="M12.8692 27.608C14.0338 27.608 15.2005 27.608 16.3651 27.608C16.47 27.608 16.575 27.6039 16.6799 27.608C16.8232 27.6141 16.8616 27.6547 16.8616 27.8049C16.8636 28.3125 16.8636 28.8181 16.8636 29.3256C16.8616 30.6677 16.8596 32.0077 16.8576 33.3497C16.8576 33.6623 16.8434 33.6786 16.5447 33.6786C15.59 33.6766 14.6333 33.6725 13.6786 33.6705C12.7017 33.6705 11.7268 33.6745 10.7499 33.6766C10.1626 33.6766 9.57321 33.6766 8.98586 33.6766C8.96568 33.6766 8.94348 33.6766 8.92329 33.6745C8.81026 33.6644 8.76182 33.6116 8.75375 33.4877C8.74971 33.4147 8.75375 33.3395 8.75375 33.2664C8.75778 31.9772 8.76182 30.69 8.76384 29.4008C8.76384 28.9257 8.75778 28.4506 8.75375 27.9755C8.75375 27.9125 8.74971 27.8476 8.75375 27.7846C8.76182 27.6709 8.81632 27.6141 8.93338 27.6039C9.01614 27.5958 9.10091 27.5999 9.18568 27.5999C10.4149 27.5999 11.6421 27.5999 12.8712 27.5999C12.8692 27.6019 12.8692 27.6039 12.8692 27.608Z" fill="#7CACE3"/>
<path d="M12.4333 57.9691C11.4261 57.9691 10.4189 57.9691 9.40972 57.9691C9.16752 57.9691 8.92733 57.9772 8.68512 57.9792C8.62255 57.9792 8.55797 57.9792 8.49741 57.967C8.43081 57.9528 8.38439 57.9082 8.37429 57.8391C8.3642 57.766 8.36218 57.693 8.36218 57.6178C8.3642 56.4139 8.37026 55.2099 8.37227 54.008C8.37429 53.4273 8.37026 52.8466 8.37026 52.266C8.37026 52.2335 8.36824 52.203 8.37026 52.1705C8.37833 51.9553 8.41466 51.9188 8.63466 51.9127C8.85467 51.9086 9.07467 51.9046 9.29669 51.9046C10.3362 51.9066 11.3756 51.9127 12.4131 51.9127C13.4202 51.9127 14.4274 51.9066 15.4366 51.9046C15.699 51.9046 15.9614 51.9066 16.2238 51.9127C16.4297 51.9168 16.468 51.9533 16.472 52.1502C16.4761 52.3817 16.4801 52.6152 16.4781 52.8466C16.4761 54.2191 16.472 55.5916 16.47 56.9641C16.47 57.1752 16.4741 57.3864 16.4781 57.5975C16.4842 57.963 16.468 57.9813 16.1168 57.9792C15.8968 57.9772 15.6768 57.9691 15.4548 57.9691C14.4496 57.9691 13.4425 57.9691 12.4333 57.9691Z" fill="#7CACE3"/>
<path d="M24.2044 27.606C25.4417 27.606 26.681 27.606 27.9182 27.606C28.227 27.606 28.2432 27.6202 28.2432 27.9207C28.2432 28.3227 28.2351 28.7226 28.2351 29.1246C28.2351 29.6322 28.2432 30.1377 28.2432 30.6453C28.2452 31.5326 28.2432 32.4178 28.2432 33.305C28.2432 33.368 28.2452 33.4309 28.2412 33.4959C28.2331 33.6217 28.1887 33.6684 28.0676 33.6766C28.0151 33.6806 27.9626 33.6786 27.9101 33.6766C26.6305 33.6766 25.3508 33.6766 24.0692 33.6766C22.8622 33.6766 21.6552 33.6766 20.4502 33.6766C20.3977 33.6766 20.3452 33.6786 20.2928 33.6745C20.208 33.6664 20.1555 33.6177 20.1474 33.5365C20.1414 33.4532 20.1434 33.368 20.1434 33.2827C20.1454 32.0158 20.1495 30.7489 20.1495 29.482C20.1495 28.9866 20.1454 28.4891 20.1434 27.9938C20.1434 27.9207 20.1394 27.8455 20.1454 27.7724C20.1535 27.6547 20.204 27.608 20.3291 27.6039C20.5713 27.5999 20.8115 27.5999 21.0537 27.5999C22.1033 27.5999 23.1528 27.5999 24.2024 27.5999C24.2044 27.6019 24.2044 27.6039 24.2044 27.606Z" fill="#7CACE3"/>
<path d="M12.631 43.9072C13.1134 43.9072 13.5958 43.9093 14.0782 43.9072C14.3931 43.9052 14.708 43.8951 15.0228 43.8951C15.485 43.8951 15.9452 43.9011 16.4074 43.9052C16.6032 43.9072 16.6496 43.9499 16.6517 44.1468C16.6557 44.8432 16.6557 45.5396 16.6557 46.236C16.6557 46.6684 16.6577 47.1009 16.6577 47.5333C16.6557 48.2622 16.6557 48.9911 16.6517 49.7179C16.6496 49.9088 16.5992 49.9555 16.4014 49.9555C15.6667 49.9575 14.932 49.9535 14.1973 49.9555C12.4131 49.9575 10.6288 49.9596 8.84456 49.9616C8.81227 49.9616 8.78199 49.9636 8.7497 49.9616C8.62456 49.9535 8.58015 49.9129 8.56804 49.789C8.56401 49.7464 8.56401 49.7037 8.56401 49.6631C8.56401 47.8359 8.56401 46.0106 8.56401 44.1834C8.56401 44.1306 8.56199 44.0778 8.57208 44.025C8.58419 43.958 8.62456 43.9093 8.69722 43.9011C8.73961 43.8971 8.77997 43.8991 8.82236 43.8991C9.222 43.8991 9.61962 43.9011 10.0193 43.9011C10.2393 43.9011 10.4593 43.9032 10.6813 43.9032C11.3312 43.9072 11.9811 43.9072 12.631 43.9072Z" fill="#7CACE3"/>
<path d="M24.0086 49.9575C22.7815 49.9575 21.5543 49.9575 20.3271 49.9575C19.9739 49.9575 19.9598 49.9433 19.9598 49.5799C19.9598 48.6094 19.9598 47.6389 19.9598 46.6684C19.9598 45.8563 19.9577 45.0442 19.9598 44.2321C19.9598 43.9316 19.984 43.9072 20.2787 43.9052C21.191 43.9011 22.1033 43.895 23.0156 43.893C23.2982 43.893 23.5828 43.9052 23.8653 43.9052C24.2226 43.9052 24.5778 43.895 24.9351 43.893C25.7747 43.891 26.6123 43.891 27.452 43.893C27.5993 43.893 27.7467 43.8991 27.892 43.9113C27.9949 43.9194 28.0414 43.9742 28.0535 44.0737C28.0575 44.1164 28.0575 44.159 28.0575 44.1996C28.0575 44.9285 28.0555 45.6553 28.0575 46.3842C28.0575 46.837 28.0656 47.2917 28.0656 47.7445C28.0656 48.3779 28.0615 49.0114 28.0575 49.6428C28.0575 49.6753 28.0595 49.7058 28.0575 49.7382C28.0474 49.8986 28.003 49.9494 27.8496 49.9555C27.7144 49.9616 27.5771 49.9555 27.4399 49.9555C26.2955 49.9555 25.151 49.9555 24.0086 49.9575C24.0086 49.9555 24.0086 49.9555 24.0086 49.9575Z" fill="#7CACE3"/>
<path d="M35.3943 27.5999C36.6215 27.5999 37.8487 27.5999 39.0759 27.5999C39.4392 27.5999 39.4412 27.5978 39.4412 27.9694C39.4392 29.4048 39.4371 30.8382 39.4371 32.2736C39.4371 32.6208 39.4412 32.97 39.4412 33.3172C39.4412 33.3903 39.4432 33.4654 39.4351 33.5385C39.427 33.6075 39.3806 33.6522 39.312 33.6644C39.2716 33.6705 39.2292 33.6705 39.1869 33.6705C38.5894 33.6705 37.992 33.6684 37.3925 33.6705C36.4075 33.6725 35.4206 33.6745 34.4356 33.6766C33.5233 33.6786 32.611 33.6766 31.6987 33.6766C31.6664 33.6766 31.6361 33.6766 31.6038 33.6745C31.3838 33.6644 31.3555 33.6359 31.3535 33.4086C31.3515 32.765 31.3535 32.1213 31.3535 31.4777C31.3535 31.0554 31.3495 30.6331 31.3475 30.2108C31.3454 29.4089 31.3454 28.6069 31.3475 27.8049C31.3475 27.6466 31.3939 27.6019 31.5574 27.5999C32.0922 27.5978 32.6271 27.5978 33.162 27.5978C33.9048 27.5999 34.6495 27.5999 35.3943 27.5999Z" fill="#7CACE3"/>
<path d="M23.8108 57.9772C23.4233 57.9772 23.0338 57.9792 22.6462 57.9772C22.289 57.9752 21.9317 57.9691 21.5745 57.9711C21.0921 57.9711 20.6077 57.9772 20.1253 57.9792C20.0627 57.9792 19.9981 57.9833 19.9355 57.9792C19.8366 57.9711 19.7862 57.9224 19.7741 57.8188C19.766 57.7559 19.768 57.693 19.768 57.63C19.768 57.092 19.77 56.5519 19.768 56.0139C19.766 54.7775 19.764 53.543 19.7599 52.3066C19.7579 51.9147 19.7559 51.9147 20.1354 51.9147C21.1123 51.9127 22.0871 51.9066 23.064 51.9066C24.1358 51.9066 25.2055 51.9127 26.2773 51.9147C26.6547 51.9147 27.0322 51.9086 27.4116 51.9066C27.4641 51.9066 27.5166 51.9046 27.5691 51.9066C27.8092 51.9127 27.8456 51.9472 27.8476 52.1807C27.8516 52.6355 27.8537 53.0882 27.8537 53.543C27.8537 54.0811 27.8537 54.6211 27.8537 55.1591C27.8537 55.9936 27.8537 56.8281 27.8557 57.6625C27.8557 57.695 27.8577 57.7254 27.8557 57.7579C27.8456 57.9325 27.8012 57.9752 27.6195 57.9752C26.9373 57.9752 26.2551 57.9731 25.5729 57.9731C24.9855 57.9731 24.3962 57.9731 23.8088 57.9731C23.8108 57.9731 23.8108 57.9752 23.8108 57.9772Z" fill="#7CACE3"/>
<path d="M35.0351 51.9147C36.0847 51.9147 37.1322 51.9147 38.1818 51.9147C38.4018 51.9147 38.6218 51.9046 38.8418 51.9066C39.0012 51.9086 39.0476 51.9553 39.0577 52.1117C39.0618 52.1645 39.0577 52.2172 39.0577 52.27C39.0557 53.4841 39.0517 54.6962 39.0497 55.9104C39.0497 56.491 39.0476 57.0717 39.0517 57.6523C39.0537 57.9325 39.0154 57.9772 38.7328 57.9752C37.5581 57.965 36.3834 57.9711 35.2087 57.9711C34.1389 57.9731 33.0692 57.9772 31.9995 57.9792C31.7371 57.9792 31.4747 57.9752 31.2123 57.9711C31.0145 57.967 30.9701 57.9264 30.966 57.7295C30.96 57.297 30.958 56.8646 30.958 56.4321C30.956 55.884 30.956 55.3358 30.958 54.7856C30.96 54.1948 30.964 53.6039 30.966 53.0131C30.966 52.7817 30.96 52.5482 30.958 52.3167C30.958 52.2538 30.9539 52.1908 30.958 52.1259C30.966 51.9553 31.0145 51.9107 31.1941 51.9046C31.2466 51.9025 31.2991 51.9046 31.3516 51.9046C32.2013 51.9086 33.051 51.9107 33.9008 51.9147C34.2802 51.9147 34.6577 51.9147 35.0351 51.9147Z" fill="#7CACE3"/>
<path d="M8.60234 41.6353C8.59023 41.5785 8.56802 41.5176 8.56601 41.4587C8.55995 41.3003 8.56197 41.142 8.56197 40.9836C8.56399 39.5583 8.56601 38.1331 8.56802 36.7078C8.56802 36.4439 8.56197 36.1799 8.56197 35.916C8.56197 35.853 8.56197 35.7901 8.56802 35.7272C8.5761 35.6561 8.62252 35.6155 8.69316 35.6053C8.72344 35.6013 8.75573 35.6013 8.78803 35.6013C9.52272 35.6053 10.2574 35.6114 10.9921 35.6114C11.9791 35.6114 12.9641 35.6074 13.9511 35.6053C14.7705 35.6033 15.588 35.6033 16.4074 35.6013C16.4276 35.6013 16.4498 35.5993 16.47 35.6013C16.6153 35.6094 16.6638 35.652 16.6658 35.7901C16.6698 35.9688 16.6638 36.1495 16.6638 36.3281C16.6638 36.8134 16.6638 37.2986 16.6638 37.7839C16.6617 38.2691 16.6557 38.7543 16.6557 39.2396C16.6557 39.9055 16.6617 40.5694 16.6658 41.2354C16.6678 41.678 16.6597 41.6698 16.2298 41.6698C15.2327 41.6678 14.2356 41.6739 13.2386 41.6759C11.864 41.678 10.4895 41.678 9.11501 41.6739C8.94546 41.6759 8.77592 41.7023 8.60234 41.6353Z" fill="#7CACE3"/>
<path d="M27.999 41.6394C27.9405 41.6495 27.8698 41.6678 27.7992 41.6698C27.6316 41.6759 27.4641 41.6759 27.2966 41.6759C26.2269 41.6739 25.1571 41.6698 24.0874 41.6698C22.84 41.6678 21.5906 41.6698 20.3433 41.6698C19.9598 41.6698 19.9517 41.6658 19.9497 41.2861C19.9497 40.7907 19.9598 40.2933 19.9598 39.7979C19.9578 38.5533 19.9517 37.3067 19.9477 36.0622C19.9477 35.9667 19.9436 35.8713 19.9517 35.7779C19.9598 35.6642 20.0143 35.6155 20.1374 35.6053C20.2201 35.5993 20.3049 35.6033 20.3897 35.6033C21.3545 35.6053 22.3193 35.6094 23.2841 35.6114C24.6162 35.6135 25.9483 35.6114 27.2804 35.6114C27.4581 35.6114 27.6377 35.6013 27.8153 35.6033C28.0151 35.6053 28.0595 35.648 28.0656 35.8409C28.0696 35.9891 28.0656 36.1373 28.0656 36.2835C28.0656 36.8012 28.0676 37.3169 28.0656 37.8346C28.0636 38.3199 28.0575 38.8051 28.0575 39.2903C28.0575 39.9441 28.0656 40.5979 28.0636 41.2536C28.0616 41.3795 28.0898 41.5095 27.999 41.6394Z" fill="#7CACE3"/>
<path d="M35.2006 43.9072C36.0705 43.9072 36.9404 43.9072 37.8124 43.9072C38.0747 43.9072 38.3371 43.9011 38.5995 43.8971C38.7247 43.8951 38.8518 43.891 38.977 43.893C39.2272 43.8971 39.2636 43.9357 39.2616 44.1915C39.2575 45.4584 39.2515 46.7233 39.2495 47.9902C39.2495 48.5282 39.2575 49.0662 39.2595 49.6043C39.2595 49.6773 39.2616 49.7525 39.2535 49.8256C39.2454 49.8946 39.199 49.9413 39.1304 49.9514C39.0577 49.9616 38.985 49.9636 38.9104 49.9636C37.3683 49.9616 35.8263 49.9555 34.2842 49.9555C33.3497 49.9555 32.4172 49.9596 31.4827 49.9636C31.4504 49.9636 31.4201 49.9656 31.3878 49.9636C31.1739 49.9575 31.1356 49.921 31.1376 49.6976C31.1396 49.3078 31.1497 48.916 31.1497 48.5262C31.1477 47.1009 31.1436 45.6777 31.1376 44.2524C31.1356 43.9093 31.1557 43.891 31.4867 43.8951C31.9066 43.8991 32.3264 43.8951 32.7442 43.8971C33.0369 43.8971 33.3315 43.9032 33.6242 43.9032C34.149 43.9052 34.6738 43.9032 35.1965 43.9032C35.2006 43.9032 35.2006 43.9052 35.2006 43.9072Z" fill="#7CACE3"/>
<path d="M35.1703 41.6698C34.0784 41.6698 32.9864 41.6698 31.8945 41.6698C31.7047 41.6698 31.517 41.68 31.3273 41.678C31.18 41.6759 31.1376 41.6292 31.1396 41.4871C31.1416 40.4517 31.1477 39.4182 31.1497 38.3828C31.1517 37.5707 31.1497 36.7565 31.1497 35.9444C31.1497 35.6317 31.1638 35.6155 31.4605 35.6135C31.8602 35.6094 32.2578 35.6135 32.6574 35.6135C33.6444 35.6114 34.6314 35.6074 35.6184 35.6074C36.7305 35.6074 37.8447 35.6114 38.9568 35.6135C38.977 35.6135 38.9992 35.6135 39.0194 35.6135C39.201 35.6236 39.2434 35.6622 39.2454 35.8409C39.2515 36.1677 39.2575 36.4946 39.2555 36.8235C39.2555 37.2255 39.2454 37.6255 39.2454 38.0275C39.2434 39.0629 39.2454 40.0964 39.2454 41.1318C39.2454 41.2577 39.2555 41.3856 39.2575 41.5115C39.2575 41.615 39.2111 41.6658 39.1062 41.6759C39.0436 41.682 38.981 41.68 38.9184 41.68C37.6691 41.68 36.4197 41.68 35.1703 41.68C35.1703 41.6759 35.1703 41.6719 35.1703 41.6698Z" fill="#7CACE3"/>
<path d="M62.5134 62.8804C63.5347 63.4895 64.2613 63.9219 64.9879 64.3564C64.1221 64.5676 63.2582 64.9553 62.3923 64.9635C57.4049 65.0163 52.4154 65.0142 47.43 64.9371C46.6953 64.9249 45.9687 64.4153 45.2401 64.1351C45.9041 63.8163 46.5682 63.4996 47.4906 63.057C47.7146 61.2643 48.0133 59.1406 48.2394 57.0088C48.5038 54.5155 49.7956 52.7776 51.9088 51.5371C53.9433 50.3433 53.9797 49.2063 51.9976 48.112C49.7552 46.8755 48.5099 45.032 48.2212 42.486C47.9952 40.4821 47.7187 38.4843 47.4724 36.5352C47.3109 36.4053 47.2201 36.2896 47.099 36.2408C46.4107 35.9546 45.7144 35.6825 45.0221 35.4064C45.7689 35.1303 46.5137 34.6288 47.2645 34.6166C52.4598 34.5455 57.6572 34.5496 62.8525 34.6044C63.5731 34.6125 64.2876 35.0369 65.0061 35.2703C64.3461 35.7008 63.6841 36.1292 62.5094 36.8946C62.3923 37.8712 62.1218 39.4995 62.0149 41.1379C61.809 44.2666 60.711 46.7537 57.7702 48.2744C56.0929 49.1413 56.1232 50.4692 57.8388 51.3564C60.5394 52.7532 61.6838 55.015 61.9604 57.9082C62.1239 59.7009 62.3539 61.4856 62.5134 62.8804ZM60.9431 36.2936C56.8761 36.2936 53.0351 36.2936 49.0286 36.2936C49.2203 37.7412 49.3899 39.0305 49.5352 40.137C53.245 40.4618 56.757 40.7704 60.4203 41.0912C60.6242 39.2335 60.7776 37.8123 60.9431 36.2936ZM50.0196 56.3773C53.3822 56.6981 56.7085 57.0169 60.1156 57.3417C60.0207 53.3786 56.3674 53.1532 54.9525 50.7879C53.7274 53.1877 50.1831 53.2771 50.0196 56.3773Z" fill="#7CACE3"/>
<path d="M60.9431 36.2936C60.7776 37.8123 60.6222 39.2335 60.4203 41.0912C56.757 40.7704 53.245 40.4618 49.5352 40.137C49.3899 39.0305 49.2183 37.7412 49.0286 36.2936C53.0351 36.2936 56.876 36.2936 60.9431 36.2936Z" fill="#415A77"/>
<path d="M50.0195 56.3773C50.183 53.2771 53.7273 53.1857 54.9525 50.7879C56.3673 53.1532 60.0206 53.3786 60.1155 57.3417C56.7084 57.0169 53.3822 56.7001 50.0195 56.3773Z" fill="#415A77"/>
</g>
<defs>
<clipPath id="clip0_499_523">
<rect width="65" height="65" fill="white"/>
</clipPath>
</defs>
</svg>
