<svg width="65" height="65" viewBox="0 0 65 65" fill="none" xmlns="http://www.w3.org/2000/svg">
<g clip-path="url(#clip0_499_500)">
<path d="M4.75565 7.22109C4.75901 7.09087 4.76406 6.98506 4.76406 6.88129C4.76406 5.41022 4.76574 3.93914 4.76406 2.46807C4.76406 2.23408 4.78423 2.00416 4.8397 1.77831C5.00108 1.12111 5.35746 0.661267 5.84328 0.337752C6.12233 0.152596 6.42492 0.0386536 6.74264 0.0223761C7.05699 0.00406399 7.37303 -0.00407474 7.68738 0.0162721C8.20178 0.048827 8.66238 0.272642 9.04902 0.681614C9.48609 1.14349 9.71807 1.72541 9.71471 2.44161C9.70967 3.77433 9.71135 5.10909 9.70967 6.4418C9.70967 6.62086 9.71135 6.80194 9.71471 6.98099C9.71639 7.04203 9.72816 7.10307 9.73488 7.16412C9.7685 7.17836 9.79204 7.19871 9.81557 7.19871C12.0009 7.20074 14.1879 7.20074 16.3733 7.20074C16.4069 7.20074 16.4389 7.18446 16.4876 7.17225C16.4926 7.07459 16.5027 6.98099 16.5027 6.88943C16.5044 5.42853 16.5011 3.96763 16.5061 2.50672C16.5061 2.28698 16.5162 2.05909 16.5582 1.84545C16.6708 1.2615 16.965 0.822007 17.3668 0.486284C17.7064 0.203463 18.0863 0.0467924 18.4948 0.0183068C18.8091 -0.00407474 19.1252 -0.0142482 19.4378 0.0162721C20.0329 0.0732432 20.5557 0.345891 20.9608 0.89729C21.2769 1.32457 21.445 1.819 21.4433 2.39889C21.4416 3.86996 21.4433 5.34104 21.4433 6.81212C21.4433 6.92606 21.4483 7.04203 21.45 7.14173C21.5324 7.22719 21.6148 7.20277 21.6904 7.20277C22.1981 7.20481 22.7041 7.20481 23.2118 7.20481C24.4002 7.20481 25.5904 7.20481 26.7789 7.20481C26.8815 7.20481 26.9857 7.19871 27.0882 7.19464C27.1437 7.06645 27.1252 6.94844 27.1252 6.8345C27.1269 5.83954 27.1269 4.84458 27.1269 3.84962C27.1269 3.38367 27.1252 2.91773 27.1252 2.45179C27.1252 1.6135 27.4295 0.966469 27.9926 0.496457C28.3692 0.181082 28.7894 0.010168 29.2467 0.00813336C29.6215 0.00609868 29.9981 -0.0244216 30.3713 0.0651045C30.8706 0.185151 31.2858 0.478145 31.622 0.933914C31.9195 1.33678 32.059 1.819 32.0775 2.35616C32.0809 2.46196 32.0792 2.56777 32.0792 2.67357C32.0775 3.97577 32.0775 5.27796 32.0759 6.58016C32.0759 6.76939 32.0826 6.95861 32.0859 7.16412C32.1549 7.17836 32.212 7.19667 32.2709 7.19871C32.5247 7.20277 32.7785 7.20481 33.0324 7.20481C34.8159 7.20481 36.5995 7.20481 38.3848 7.20481C38.531 7.20481 38.6806 7.22109 38.8387 7.17225C38.8471 7.09901 38.8605 7.02779 38.8605 6.95658C38.8622 6.44791 38.8622 5.94127 38.8622 5.4326C38.8622 4.42747 38.8656 3.42233 38.8605 2.41516C38.8572 1.77424 39.0505 1.23505 39.4237 0.793521C39.8473 0.292989 40.3617 0.0284802 40.9568 0.00813336C41.2274 -5.37435e-06 41.4997 -0.00610943 41.7704 0.0122027C42.4025 0.0528964 42.9387 0.364203 43.3556 0.940018C43.6548 1.35102 43.8061 1.83935 43.8061 2.39482C43.8044 3.48541 43.8044 4.576 43.8044 5.66455C43.8044 6.05521 43.8045 6.44791 43.8028 6.83857C43.8028 6.94437 43.8028 7.04814 43.8028 7.12749C43.8784 7.2394 43.9625 7.22109 44.0364 7.23736C44.2936 7.29434 44.5559 7.33299 44.808 7.41235C45.7847 7.71551 46.6034 8.3422 47.2825 9.23542C48.0945 10.3057 48.5735 11.5692 48.7114 13.0098C48.7601 13.5123 48.7517 14.0251 48.7534 14.5317C48.7585 15.781 48.7517 17.0303 48.7517 18.2796C48.7517 18.9246 48.7618 19.5716 48.7635 20.2166C48.7635 20.4811 48.7501 20.7456 48.7501 21.0101C48.7484 21.9522 48.7501 22.8943 48.7501 23.8363C48.7501 24.7153 48.7484 25.5922 48.7501 26.4712C48.7517 27.6554 48.7585 28.8416 48.7601 30.0258C48.7618 30.9252 48.7618 31.8245 48.7601 32.7238C48.7585 33.8775 48.7517 35.0311 48.7501 36.1848C48.7484 37.0414 48.7501 37.9 48.7501 38.7566C48.7501 39.5074 48.7484 40.2603 48.7501 41.0111C48.7517 42.2705 48.7568 43.53 48.7601 44.7895C48.7618 45.6786 48.7618 46.5678 48.7601 47.457C48.7585 48.6432 48.7517 49.8274 48.7501 51.0136C48.7484 51.9027 48.7484 52.7919 48.7501 53.681C48.7517 54.8144 48.7551 55.9457 48.7601 57.079C48.7635 57.6934 48.74 58.3079 48.6677 58.9163C48.5988 59.4962 48.4508 60.0496 48.2491 60.5807C47.8305 61.6814 47.217 62.5889 46.3932 63.2827C45.8116 63.7731 45.1695 64.0905 44.4735 64.2594C44.1188 64.3448 43.7658 64.3713 43.4044 64.3692C42.5907 64.3631 41.7771 64.3733 40.9652 64.3733C40.0994 64.3733 39.2337 64.3672 38.368 64.3672C36.9509 64.3672 35.5354 64.3733 34.1183 64.3733C32.7802 64.3733 31.4421 64.3672 30.104 64.3672C28.697 64.3672 27.2883 64.3733 25.8812 64.3733C24.5078 64.3733 23.1361 64.3692 21.7627 64.3672C20.6179 64.3652 19.4714 64.3652 18.3267 64.3672C16.9717 64.3692 15.6151 64.3733 14.2602 64.3733C12.9406 64.3733 11.6193 64.3672 10.2997 64.3672C8.96161 64.3672 7.6235 64.3713 6.2854 64.3733C5.86514 64.3733 5.44656 64.3672 5.0263 64.3692C4.5741 64.3692 4.14207 64.2411 3.71341 64.0864C3.05949 63.8484 2.47617 63.4475 1.95673 62.9144C1.22043 62.1575 0.682501 61.2318 0.349656 60.1371C0.122716 59.3863 0.00168104 58.6091 0.00168104 57.8054C0.00168104 56.2916 0.00168104 54.7777 0 53.2639C0.00504311 51.9902 0 50.7206 0 49.4509C0 48.1182 0.00504311 46.7835 0.00504311 45.4508C0.00672415 43.7986 0.00672415 42.1485 0.00504311 40.4963C0.00504311 39.2796 0 38.0628 0 36.844C0 35.7006 0.00504311 34.5571 0.00504311 33.4156C0.00504311 32.1663 0 30.917 0 29.6698C0 28.3676 0.00504311 27.0654 0.00504311 25.7652C0.00504311 24.6115 0 23.4579 0 22.3042C0 20.3245 0.00168104 18.3447 0.00168104 16.367C0.00168104 15.5206 -0.00168104 14.6741 0.00336207 13.8277C0.00840518 12.8958 0.147931 11.9945 0.457242 11.1399C0.995174 9.64846 1.85923 8.52125 3.07293 7.80504C3.54699 7.52425 4.0513 7.35334 4.5741 7.25975C4.62453 7.24957 4.67496 7.23736 4.75565 7.22109ZM24.4389 25.3359C22.7949 25.3338 21.1508 25.3338 19.5067 25.3338C17.8627 25.3338 16.2186 25.3338 14.5746 25.3338C12.8784 25.3338 11.1823 25.3338 9.48609 25.3338C8.46234 25.3338 7.44027 25.3318 6.41652 25.3318C6.03996 25.3318 5.66509 25.3338 5.28854 25.342C5.07841 25.346 4.87332 25.3725 4.66824 25.4457C4.10677 25.6431 3.40914 26.4122 3.22759 27.2485C3.15699 27.57 3.1116 27.8874 3.11328 28.217C3.11664 29.4439 3.12 30.6729 3.12 31.8998C3.12 33.2549 3.11328 34.6079 3.11328 35.963C3.11328 37.0943 3.12 38.2276 3.12 39.3589C3.12 40.6815 3.11328 42.004 3.11328 43.3266C3.11328 44.4599 3.12 45.5912 3.12 46.7245C3.12 48.0796 3.11496 49.4326 3.11328 50.7877C3.11328 51.8885 3.12 52.9893 3.12 54.09C3.12 55.2966 3.11832 56.5032 3.1116 57.7097C3.10992 58.1716 3.15531 58.6152 3.32005 59.0384C3.71845 60.0598 4.37406 60.6173 5.31376 60.66C5.62811 60.6743 5.94246 60.6702 6.2585 60.6702C7.08893 60.6682 7.91936 60.6641 8.74979 60.6621C9.52811 60.6621 10.3064 60.6682 11.0848 60.6682C11.9421 60.6682 12.7977 60.6621 13.6551 60.6621C14.4418 60.6621 15.2285 60.6682 16.0152 60.6682C16.8726 60.6682 17.7282 60.6621 18.5855 60.6621C19.3723 60.6621 20.159 60.6682 20.9457 60.6682C21.8114 60.6682 22.6772 60.6621 23.5429 60.6621C24.338 60.6621 25.1349 60.6702 25.93 60.6682C26.7873 60.6682 27.643 60.6621 28.5003 60.6621C29.3307 60.6621 30.1612 60.6702 30.9916 60.6702C31.8489 60.6702 32.7046 60.6641 33.5619 60.6641C34.4091 60.6641 35.2581 60.6702 36.1053 60.6702C36.9273 60.6702 37.7494 60.6641 38.5714 60.6641C39.3581 60.6641 40.1448 60.6702 40.9316 60.6702C41.8141 60.6702 42.6983 60.6661 43.5809 60.6702C44.1306 60.6722 44.6181 60.4545 45.0232 60.0191C45.5527 59.4514 45.8267 58.721 45.8351 57.8603C45.8419 57.2356 45.8368 56.611 45.8368 55.9863C45.8351 54.6414 45.8301 53.2985 45.8301 51.9536C45.8301 50.8101 45.8368 49.6687 45.8368 48.5252C45.8368 47.1701 45.8318 45.817 45.8301 44.4619C45.8301 43.3835 45.8368 42.3031 45.8368 41.2247C45.8368 39.8493 45.8318 38.4738 45.8301 37.0984C45.8301 35.9651 45.8368 34.8338 45.8368 33.7005C45.8368 32.3555 45.8318 31.0126 45.8301 29.6677C45.8301 29.1814 45.8385 28.6931 45.8351 28.2068C45.8318 27.8019 45.7662 27.4092 45.6469 27.0287C45.3342 26.0277 44.4668 25.3135 43.6397 25.3379C43.396 25.346 43.1505 25.3298 42.9051 25.3298C41.9082 25.3298 40.9114 25.3338 39.9145 25.3338C34.7571 25.3359 29.598 25.3359 24.4389 25.3359ZM38.8521 12.1877C38.795 12.2122 38.7765 12.2162 38.763 12.2264C38.7344 12.2488 38.7059 12.2773 38.679 12.3037C38.3075 12.6679 38.015 13.1135 37.7796 13.6161C37.356 14.5215 37.198 15.4982 37.3089 16.5237C37.551 18.7354 39.0253 20.4303 40.8391 20.6622C41.6326 20.7639 42.3907 20.6032 43.1018 20.1617C43.9591 19.6306 44.5861 18.829 44.966 17.7587C45.2669 16.9123 45.351 16.0272 45.2165 15.1157C45.0551 14.0352 44.6366 13.1298 43.9625 12.3973C43.9255 12.3587 43.8919 12.2997 43.8162 12.3424C43.8129 12.3851 43.8061 12.436 43.8061 12.4868C43.8044 13.1217 43.8044 13.7565 43.8044 14.3913C43.8044 14.8573 43.8044 15.3232 43.8011 15.7891C43.796 16.3548 43.6279 16.8431 43.3085 17.2541C42.9085 17.7689 42.4142 18.066 41.8309 18.1127C41.5266 18.1372 41.219 18.127 40.9131 18.1189C40.471 18.1087 40.0725 17.9317 39.7128 17.6285C39.1581 17.1626 38.8605 16.5298 38.8622 15.6976C38.8656 14.6395 38.8622 13.5815 38.8605 12.5235C38.8622 12.4177 38.8572 12.3159 38.8521 12.1877ZM4.76574 12.263C4.6632 12.3587 4.60436 12.4034 4.55729 12.4584C3.54194 13.6507 3.12168 15.0933 3.36712 16.7821C3.626 18.5685 4.75565 20.062 6.29716 20.5401C6.90234 20.7294 7.52096 20.7436 8.14126 20.5849C8.84561 20.4058 9.46592 20.0274 9.98536 19.4434C11.0595 18.2389 11.4865 16.7475 11.2176 14.9936C11.0545 13.9376 10.6124 13.0647 9.95174 12.3546C9.89458 12.2936 9.84247 12.2162 9.73824 12.2162C9.72984 12.2854 9.71639 12.3546 9.71639 12.4258C9.71471 13.0403 9.71471 13.6527 9.71303 14.2672C9.71303 14.7759 9.71471 15.2825 9.70967 15.7912C9.70294 16.4423 9.48777 16.9835 9.09105 17.4128C8.70105 17.836 8.24044 18.0741 7.71596 18.1127C7.4554 18.1311 7.19147 18.125 6.92923 18.127C6.61824 18.1311 6.3207 18.0497 6.0366 17.9052C5.35914 17.5613 4.74725 16.78 4.76574 15.6365C4.78255 14.6436 4.76742 13.6487 4.76574 12.6537C4.76574 12.5459 4.76574 12.4421 4.76574 12.263ZM16.4893 12.1979C16.4204 12.2529 16.3884 12.2732 16.3632 12.2997C15.2571 13.4859 14.7729 14.9651 15.0251 16.7332C15.2672 18.4363 16.0942 19.6408 17.3987 20.3041C18.6108 20.9206 19.8211 20.8331 20.9777 20.0315C21.5341 19.6449 21.9913 19.126 22.3326 18.4729C22.8621 17.4596 23.0689 16.3568 22.9041 15.1665C22.7511 14.0515 22.3174 13.1176 21.6198 12.3668C21.5778 12.322 21.5408 12.2468 21.4517 12.2834C21.4483 12.381 21.4433 12.4848 21.4433 12.5886C21.4433 13.6242 21.4416 14.6619 21.4467 15.6976C21.45 16.4097 21.2197 16.9937 20.7793 17.4535C20.3977 17.8523 19.9505 18.0802 19.4445 18.1107C19.1571 18.129 18.868 18.125 18.5805 18.1209C18.251 18.1168 17.9367 18.0212 17.6475 17.8381C16.918 17.3742 16.4842 16.6742 16.5027 15.6365C16.5027 15.5938 16.5044 15.5511 16.5044 15.5104C16.5044 14.4951 16.5061 13.4798 16.5061 12.4645C16.5027 12.3912 16.496 12.322 16.4893 12.1979ZM32.096 12.2101C32.0893 12.3363 32.0826 12.3994 32.0826 12.4624C32.0809 13.0769 32.0809 13.6893 32.0809 14.3038C32.0809 14.7799 32.0826 15.2561 32.0775 15.7322C32.0725 16.2693 31.9363 16.7515 31.6455 17.1626C31.2387 17.7384 30.7176 18.0558 30.0973 18.1127C29.8098 18.1392 29.5207 18.1229 29.2315 18.1189C28.7726 18.1107 28.354 17.9398 27.9792 17.6244C27.4295 17.1666 27.142 16.5318 27.1286 15.722C27.1252 15.5531 27.1269 15.3842 27.1269 15.2133C27.1269 14.3242 27.1269 13.435 27.1252 12.5459C27.1252 12.4563 27.1454 12.3587 27.0798 12.263C27.0243 12.3119 26.9722 12.3485 26.9302 12.3933C26.6999 12.6394 26.4982 12.9162 26.3233 13.2234C25.693 14.3364 25.4795 15.5592 25.7014 16.8797C26.0426 18.9083 27.4496 20.4221 29.1357 20.6602C29.9998 20.7823 30.8319 20.6012 31.59 20.066C32.7231 19.2664 33.4207 18.0863 33.5804 16.4931C33.7451 14.8471 33.2744 13.4818 32.2742 12.3668C32.2322 12.32 32.1818 12.2854 32.096 12.2101Z" fill="#7CACE3"/>
<path d="M10.7183 27.6676C11.6883 27.6676 12.6599 27.6676 13.6299 27.6676C13.7173 27.6676 13.8047 27.6636 13.8921 27.6676C14.0115 27.6737 14.0434 27.7144 14.0434 27.865C14.0451 28.3737 14.0451 28.8803 14.0451 29.389C14.0434 30.7339 14.0417 32.0768 14.04 33.4217C14.04 33.7351 14.0283 33.7513 13.7795 33.7513C12.9843 33.7493 12.1875 33.7452 11.3924 33.7432C10.5788 33.7432 9.76685 33.7473 8.95322 33.7493C8.46404 33.7493 7.97318 33.7493 7.484 33.7493C7.46719 33.7493 7.4487 33.7493 7.43189 33.7473C7.33775 33.7371 7.2974 33.6842 7.29068 33.5601C7.28732 33.4868 7.29068 33.4115 7.29068 33.3383C7.29404 32.0463 7.2974 30.7563 7.29908 29.4643C7.29908 28.9881 7.29404 28.512 7.29068 28.0359C7.29068 27.9728 7.28732 27.9077 7.29068 27.8447C7.2974 27.7307 7.34279 27.6737 7.44029 27.6636C7.50921 27.6554 7.57982 27.6595 7.65042 27.6595C8.67417 27.6595 9.69624 27.6595 10.72 27.6595C10.7183 27.6615 10.7183 27.6636 10.7183 27.6676Z" fill="#7CACE3"/>
<path d="M10.3551 58.0943C9.51629 58.0943 8.67745 58.0943 7.83694 58.0943C7.63521 58.0943 7.43517 58.1024 7.23344 58.1045C7.18133 58.1045 7.12754 58.1045 7.07711 58.0923C7.02163 58.078 6.98297 58.0333 6.97456 57.9641C6.96616 57.8908 6.96448 57.8176 6.96448 57.7423C6.96616 56.5357 6.9712 55.3292 6.97288 54.1246C6.97456 53.5427 6.9712 52.9608 6.9712 52.3789C6.9712 52.3463 6.96952 52.3158 6.9712 52.2832C6.97793 52.0676 7.00818 52.0309 7.19142 52.0248C7.37465 52.0208 7.55788 52.0167 7.7428 52.0167C8.60853 52.0187 9.47426 52.0248 10.3383 52.0248C11.1772 52.0248 12.016 52.0187 12.8565 52.0167C13.075 52.0167 13.2936 52.0187 13.5121 52.0248C13.6836 52.0289 13.7155 52.0655 13.7189 52.2629C13.7222 52.4948 13.7256 52.7288 13.7239 52.9608C13.7222 54.3362 13.7189 55.7117 13.7172 57.0871C13.7172 57.2987 13.7206 57.5103 13.7239 57.7219C13.729 58.0882 13.7155 58.1065 13.423 58.1045C13.2398 58.1024 13.0566 58.0943 12.8716 58.0943C12.0345 58.0943 11.1956 58.0943 10.3551 58.0943Z" fill="#7CACE3"/>
<path d="M38.5798 58.0943C38.2739 58.0943 37.9679 58.0943 37.662 58.0943C36.9627 58.0943 36.2634 58.0943 35.5641 58.0943C35.5119 58.0943 35.4598 58.1004 35.406 58.0963C35.3169 58.0902 35.2766 58.0475 35.2665 57.9458C35.2615 57.8929 35.2615 57.84 35.2615 57.7871C35.2615 56.1797 35.2615 54.5702 35.2632 52.9628C35.2632 52.7187 35.2632 52.4765 35.2682 52.2324C35.2716 52.0696 35.3102 52.0208 35.4413 52.0167C35.6515 52.0126 35.8616 52.0167 36.0701 52.0167C36.9795 52.0167 37.8889 52.0167 38.7967 52.0167C39.7229 52.0187 40.6492 52.0228 41.5771 52.0248C41.6729 52.0248 41.7688 52.0187 41.8663 52.0228C41.9621 52.0269 42.0108 52.0838 42.0159 52.2018C42.0209 52.328 42.0159 52.4562 42.0159 52.5823C42.0159 53.0788 42.0159 53.5773 42.0159 54.0738C42.0159 55.2701 42.0159 56.4645 42.0125 57.6609C42.0108 58.1045 42.0058 58.1045 41.6477 58.1045C40.7652 58.1004 39.8826 58.0984 38.9984 58.0943C38.8606 58.0943 38.7194 58.0943 38.5798 58.0943Z" fill="#7CACE3"/>
<path d="M20.159 27.6656C21.1895 27.6656 22.2216 27.6656 23.2521 27.6656C23.5093 27.6656 23.5227 27.6798 23.5227 27.981C23.5227 28.3838 23.516 28.7847 23.516 29.1875C23.516 29.6962 23.5227 30.2028 23.5227 30.7115C23.5244 31.6007 23.5227 32.4878 23.5227 33.3769C23.5227 33.44 23.5244 33.5031 23.5211 33.5682C23.5143 33.6944 23.4773 33.7412 23.3765 33.7493C23.3328 33.7534 23.2891 33.7513 23.2454 33.7493C22.1796 33.7493 21.1138 33.7493 20.0463 33.7493C19.0411 33.7493 18.0358 33.7493 17.0323 33.7493C16.9885 33.7493 16.9448 33.7513 16.9011 33.7473C16.8305 33.7391 16.7868 33.6903 16.7801 33.6089C16.7751 33.5255 16.7767 33.44 16.7767 33.3546C16.7784 32.0849 16.7818 30.8153 16.7818 29.5456C16.7818 29.0492 16.7784 28.5507 16.7767 28.0542C16.7767 27.981 16.7734 27.9057 16.7784 27.8324C16.7851 27.7144 16.8272 27.6676 16.9314 27.6636C17.1331 27.6595 17.3332 27.6595 17.5349 27.6595C18.409 27.6595 19.2832 27.6595 20.1573 27.6595C20.159 27.6615 20.159 27.6636 20.159 27.6656Z" fill="#7CACE3"/>
<path d="M38.9446 33.7412C37.9209 33.7412 36.8988 33.7412 35.875 33.7412C35.8481 33.7412 35.8229 33.7432 35.796 33.7412C35.6078 33.7351 35.5893 33.7147 35.5893 33.4807C35.5893 32.8032 35.5909 32.1256 35.5909 31.4481C35.5909 30.9923 35.5842 30.5386 35.5825 30.0828C35.5809 29.3422 35.5825 28.6015 35.5825 27.8609C35.5825 27.7144 35.6162 27.6656 35.7305 27.6574C35.7826 27.6534 35.8347 27.6574 35.8885 27.6574C37.2081 27.6595 38.5294 27.6636 39.849 27.6656C40.5752 27.6656 41.2997 27.6615 42.0259 27.6574C42.0528 27.6574 42.0781 27.6574 42.105 27.6574C42.3033 27.6493 42.3453 27.7246 42.3386 27.9586C42.3269 28.392 42.3353 28.8254 42.3353 29.2608C42.3336 29.7898 42.3302 30.3188 42.3302 30.8478C42.3302 31.7044 42.3302 32.5631 42.3302 33.4197C42.3302 33.7269 42.3184 33.7432 42.0646 33.7432C41.0257 33.7432 39.9852 33.7412 38.9446 33.7412Z" fill="#7CACE3"/>
<path d="M10.5199 44.0021C10.9216 44.0021 11.3234 44.0041 11.7252 44.0021C11.9874 44 12.2497 43.9899 12.5119 43.9899C12.8969 43.9899 13.2801 43.996 13.6651 44C13.8282 44.0021 13.8668 44.0448 13.8685 44.2422C13.8719 44.9401 13.8719 45.6379 13.8719 46.3358C13.8719 46.7692 13.8735 47.2026 13.8735 47.636C13.8719 48.3665 13.8719 49.0969 13.8685 49.8253C13.8668 50.0166 13.8248 50.0634 13.66 50.0634C13.0482 50.0654 12.4363 50.0613 11.8244 50.0634C10.3383 50.0654 8.85228 50.0675 7.36625 50.0695C7.33935 50.0695 7.31414 50.0715 7.28724 50.0695C7.18301 50.0613 7.14603 50.0207 7.13595 49.8965C7.13258 49.8538 7.13258 49.8111 7.13258 49.7704C7.13258 47.9392 7.13258 46.11 7.13258 44.2788C7.13258 44.2259 7.1309 44.173 7.13931 44.1201C7.14939 44.0529 7.18301 44.0041 7.24353 43.996C7.27883 43.9919 7.31245 43.9939 7.34776 43.9939C7.6806 43.9939 8.01177 43.996 8.34461 43.996C8.52784 43.996 8.71108 43.998 8.89599 43.998C9.43728 44.0021 9.97858 44.0021 10.5199 44.0021Z" fill="#7CACE3"/>
<path d="M19.996 50.0654C18.9739 50.0654 17.9518 50.0654 16.9297 50.0654C16.6356 50.0654 16.6238 50.0512 16.6238 49.687C16.6238 48.7144 16.6238 47.7418 16.6238 46.7692C16.6238 45.9554 16.6221 45.1415 16.6238 44.3276C16.6238 44.0265 16.644 44.0021 16.8894 44C17.6492 43.996 18.4091 43.9899 19.1689 43.9878C19.4042 43.9878 19.6413 44 19.8766 44C20.1741 44 20.47 43.9899 20.7675 43.9878C21.4669 43.9858 22.1645 43.9858 22.8638 43.9878C22.9865 43.9878 23.1092 43.9939 23.2303 44.0061C23.316 44.0143 23.3547 44.0692 23.3648 44.1689C23.3681 44.2116 23.3681 44.2544 23.3681 44.2951C23.3681 45.0255 23.3664 45.7539 23.3681 46.4844C23.3681 46.9381 23.3748 47.3939 23.3748 47.8476C23.3748 48.4824 23.3715 49.1173 23.3681 49.75C23.3681 49.7826 23.3698 49.8131 23.3681 49.8457C23.3597 50.0064 23.3227 50.0573 23.195 50.0634C23.0823 50.0695 22.968 50.0634 22.8537 50.0634C21.9006 50.0634 20.9474 50.0634 19.996 50.0654C19.996 50.0634 19.996 50.0634 19.996 50.0654Z" fill="#7CACE3"/>
<path d="M29.4787 27.6595C30.5007 27.6595 31.5228 27.6595 32.5449 27.6595C32.8475 27.6595 32.8491 27.6575 32.8491 28.0298C32.8475 29.4683 32.8458 30.9048 32.8458 32.3433C32.8458 32.6913 32.8491 33.0412 32.8491 33.3892C32.8491 33.4624 32.8508 33.5377 32.8441 33.6109C32.8374 33.6801 32.7987 33.7249 32.7416 33.7371C32.7079 33.7432 32.6726 33.7432 32.6373 33.7432C32.1398 33.7432 31.6422 33.7412 31.1429 33.7432C30.3226 33.7452 29.5005 33.7473 28.6802 33.7493C27.9204 33.7513 27.1605 33.7493 26.4007 33.7493C26.3738 33.7493 26.3486 33.7493 26.3217 33.7473C26.1385 33.7371 26.1149 33.7086 26.1132 33.4807C26.1116 32.8357 26.1132 32.1907 26.1132 31.5457C26.1132 31.1225 26.1099 30.6993 26.1082 30.2761C26.1065 29.4724 26.1065 28.6687 26.1082 27.865C26.1082 27.7063 26.1469 27.6615 26.283 27.6595C26.7285 27.6575 27.174 27.6575 27.6194 27.6575C28.2381 27.6595 28.8584 27.6595 29.4787 27.6595Z" fill="#7CACE3"/>
<path d="M19.8312 58.1024C19.5085 58.1024 19.184 58.1045 18.8613 58.1024C18.5637 58.1004 18.2662 58.0943 17.9686 58.0963C17.5669 58.0963 17.1634 58.1024 16.7617 58.1045C16.7096 58.1045 16.6558 58.1085 16.6036 58.1045C16.5213 58.0963 16.4793 58.0475 16.4692 57.9437C16.4624 57.8806 16.4641 57.8176 16.4641 57.7545C16.4641 57.2153 16.4658 56.6741 16.4641 56.1349C16.4624 54.8958 16.4608 53.6587 16.4574 52.4196C16.4557 52.0269 16.454 52.0269 16.7701 52.0269C17.5837 52.0248 18.3956 52.0187 19.2093 52.0187C20.1019 52.0187 20.9928 52.0248 21.8855 52.0269C22.1998 52.0269 22.5142 52.0208 22.8302 52.0187C22.8739 52.0187 22.9176 52.0167 22.9613 52.0187C23.1614 52.0248 23.1916 52.0594 23.1933 52.2934C23.1967 52.7492 23.1984 53.2029 23.1984 53.6587C23.1984 54.1979 23.1984 54.7391 23.1984 55.2783C23.1984 56.1145 23.1984 56.9508 23.2 57.7871C23.2 57.8196 23.2017 57.8501 23.2 57.8827C23.1916 58.0577 23.1546 58.1004 23.0034 58.1004C22.4352 58.1004 21.867 58.0984 21.2988 58.0984C20.8096 58.0984 20.3187 58.0984 19.8296 58.0984C19.8312 58.0984 19.8312 58.1004 19.8312 58.1024Z" fill="#7CACE3"/>
<path d="M29.1794 52.0269C30.0536 52.0269 30.926 52.0269 31.8001 52.0269C31.9834 52.0269 32.1666 52.0167 32.3498 52.0187C32.4827 52.0208 32.5213 52.0676 32.5297 52.2242C32.5331 52.2771 32.5297 52.33 32.5297 52.3829C32.528 53.5997 32.5247 54.8144 32.523 56.0311C32.523 56.613 32.5213 57.195 32.5247 57.7769C32.5264 58.0577 32.4944 58.1024 32.2591 58.1004C31.2807 58.0902 30.3023 58.0963 29.324 58.0963C28.433 58.0984 27.5421 58.1024 26.6511 58.1045C26.4326 58.1045 26.2141 58.1004 25.9955 58.0963C25.8308 58.0922 25.7938 58.0516 25.7904 57.8542C25.7854 57.4208 25.7837 56.9874 25.7837 56.554C25.782 56.0047 25.782 55.4553 25.7837 54.9039C25.7854 54.3118 25.7888 53.7197 25.7904 53.1276C25.7904 52.8957 25.7854 52.6617 25.7837 52.4297C25.7837 52.3666 25.7804 52.3036 25.7837 52.2385C25.7904 52.0675 25.8308 52.0228 25.9804 52.0167C26.0241 52.0146 26.0678 52.0167 26.1115 52.0167C26.8192 52.0208 27.527 52.0228 28.2347 52.0269C28.5507 52.0269 28.8651 52.0269 29.1794 52.0269Z" fill="#7CACE3"/>
<path d="M38.7882 50.0675C37.7829 50.0675 36.7794 50.0675 35.7741 50.0675C35.7136 50.0675 35.6514 50.0715 35.5909 50.0675C35.4816 50.0593 35.4379 50.0044 35.4295 49.8681C35.4261 49.805 35.4295 49.7419 35.4295 49.6788C35.4329 48.4519 35.4379 47.227 35.4379 46.0001C35.4379 45.4406 35.4295 44.879 35.4278 44.3195C35.4261 44.0183 35.4513 43.9878 35.6917 43.9878C36.46 43.9919 37.2282 43.998 37.9981 44C38.3125 44 38.6268 43.9878 38.9412 43.9878C39.4657 43.9878 39.9901 43.996 40.5129 43.998C40.9668 43.998 41.4207 43.9939 41.8763 43.9919C41.9284 43.9919 41.9805 43.9899 42.0326 43.9939C42.1301 44.0021 42.1688 44.0489 42.1755 44.175C42.1789 44.2381 42.1772 44.3012 42.1772 44.3642C42.1772 46.1405 42.1772 47.9168 42.1772 49.6931C42.1772 49.7765 42.1772 49.862 42.1688 49.9454C42.1604 50.0146 42.1183 50.0552 42.0612 50.0654C42.0276 50.0715 41.9923 50.0675 41.957 50.0675C41.5989 50.0675 41.2408 50.0675 40.8828 50.0675C40.1851 50.0695 39.4875 50.0695 38.7882 50.0675Z" fill="#7CACE3"/>
<path d="M7.16463 41.7253C7.15454 41.6683 7.13605 41.6072 7.13437 41.5482C7.12933 41.3895 7.13101 41.2308 7.13101 41.0721C7.13269 39.6438 7.13437 38.2154 7.13605 36.7871C7.13605 36.5226 7.13101 36.2581 7.13101 35.9936C7.13101 35.9305 7.13101 35.8674 7.13605 35.8043C7.14277 35.7331 7.18144 35.6924 7.24027 35.6822C7.26549 35.6782 7.29239 35.6782 7.31928 35.6782C7.93118 35.6823 8.54308 35.6884 9.15497 35.6884C9.977 35.6884 10.7973 35.6843 11.6194 35.6822C12.3019 35.6802 12.9827 35.6802 13.6652 35.6782C13.682 35.6782 13.7005 35.6761 13.7173 35.6782C13.8383 35.6863 13.8787 35.729 13.8804 35.8674C13.8837 36.0465 13.8787 36.2275 13.8787 36.4066C13.8787 36.8929 13.8787 37.3792 13.8787 37.8655C13.877 38.3518 13.872 38.838 13.872 39.3243C13.872 39.9917 13.877 40.6571 13.8804 41.3244C13.882 41.768 13.8753 41.7598 13.5173 41.7598C12.6868 41.7578 11.8564 41.7639 11.026 41.766C9.88118 41.768 8.7364 41.768 7.59161 41.7639C7.4504 41.766 7.3092 41.7924 7.16463 41.7253Z" fill="#7CACE3"/>
<path d="M23.3193 41.7293C23.2705 41.7395 23.2117 41.7578 23.1529 41.7598C23.0133 41.7659 22.8738 41.7659 22.7343 41.7659C21.8433 41.7639 20.9524 41.7598 20.0614 41.7598C19.0226 41.7578 17.982 41.7598 16.9431 41.7598C16.6237 41.7598 16.617 41.7558 16.6153 41.3753C16.6153 40.8788 16.6237 40.3803 16.6237 39.8839C16.622 38.6366 16.617 37.3873 16.6136 36.14C16.6136 36.0444 16.6103 35.9488 16.617 35.8552C16.6237 35.7412 16.6691 35.6924 16.7717 35.6822C16.8406 35.6761 16.9112 35.6802 16.9818 35.6802C17.7853 35.6822 18.5889 35.6863 19.3924 35.6883C20.5019 35.6904 21.6114 35.6883 22.7208 35.6883C22.8688 35.6883 23.0184 35.6782 23.1663 35.6802C23.3327 35.6822 23.3697 35.725 23.3748 35.9183C23.3781 36.0668 23.3748 36.2153 23.3748 36.3618C23.3748 36.8807 23.3764 37.3975 23.3748 37.9163C23.3731 38.4026 23.368 38.8889 23.368 39.3752C23.368 40.0304 23.3748 40.6855 23.3731 41.3427C23.3714 41.4689 23.3949 41.5991 23.3193 41.7293Z" fill="#7CACE3"/>
<path d="M29.3172 44.0021C30.0418 44.0021 30.7663 44.0021 31.4925 44.0021C31.711 44.0021 31.9296 43.996 32.1481 43.9919C32.2523 43.9899 32.3582 43.9858 32.4625 43.9878C32.6709 43.9919 32.7012 44.0306 32.6995 44.2869C32.6961 45.5566 32.6911 46.8242 32.6894 48.0938C32.6894 48.633 32.6961 49.1722 32.6978 49.7114C32.6978 49.7846 32.6995 49.8599 32.6928 49.9332C32.686 50.0024 32.6474 50.0492 32.5902 50.0593C32.5297 50.0695 32.4692 50.0715 32.407 50.0715C31.1227 50.0695 29.8384 50.0634 28.5541 50.0634C27.7757 50.0634 26.9991 50.0675 26.2208 50.0715C26.1939 50.0715 26.1687 50.0736 26.1418 50.0715C25.9636 50.0654 25.9316 50.0288 25.9333 49.805C25.935 49.4143 25.9434 49.0216 25.9434 48.631C25.9417 47.2026 25.9384 45.7763 25.9333 44.348C25.9316 44.0041 25.9485 43.9858 26.2241 43.9899C26.5738 43.9939 26.9235 43.9899 27.2714 43.9919C27.5152 43.9919 27.7606 43.998 28.0044 43.998C28.4414 44 28.8785 43.998 29.3139 43.998C29.3173 43.998 29.3172 44 29.3172 44.0021Z" fill="#7CACE3"/>
<path d="M38.8202 41.768C37.7796 41.768 36.7407 41.7639 35.7002 41.77C35.4564 41.7721 35.406 41.7334 35.4379 41.4241C35.4497 41.3204 35.4413 41.2125 35.4413 41.1067C35.4413 40.1443 35.4413 39.1819 35.4413 38.2195C35.4413 37.5013 35.4413 36.781 35.4413 36.0627C35.4413 36.02 35.4396 35.9773 35.4413 35.9366C35.4463 35.7331 35.4766 35.6904 35.638 35.6884C35.9002 35.6823 36.1625 35.6802 36.4247 35.6823C37.2366 35.6843 38.0503 35.6884 38.8622 35.6884C39.7616 35.6884 40.6626 35.6843 41.5619 35.6823C41.72 35.6823 41.8763 35.6823 42.0343 35.6884C42.1251 35.6924 42.1621 35.7372 42.1705 35.841C42.1755 35.8939 42.1738 35.9468 42.1738 35.9997C42.1738 37.841 42.1738 39.6804 42.1738 41.5218C42.1738 41.5645 42.1755 41.6073 42.1722 41.6479C42.1654 41.7212 42.1285 41.7599 42.0696 41.77C42.036 41.7761 42.0007 41.7721 41.9654 41.7721C41.5905 41.7721 41.214 41.77 40.8391 41.77C40.1667 41.766 39.4926 41.768 38.8202 41.768Z" fill="#7CACE3"/>
<path d="M29.292 41.7598C28.3826 41.7598 27.4731 41.7598 26.5637 41.7598C26.4057 41.7598 26.2493 41.77 26.0913 41.768C25.9686 41.7659 25.9333 41.7192 25.935 41.5767C25.9367 40.539 25.9417 39.5034 25.9434 38.4657C25.9451 37.6518 25.9434 36.8359 25.9434 36.022C25.9434 35.7087 25.9552 35.6924 26.2023 35.6904C26.5351 35.6863 26.8663 35.6904 27.1991 35.6904C28.0212 35.6883 28.8432 35.6843 29.6652 35.6843C30.5915 35.6843 31.5194 35.6883 32.4456 35.6904C32.4625 35.6904 32.4809 35.6904 32.4978 35.6904C32.6491 35.7006 32.6844 35.7392 32.686 35.9183C32.6911 36.2459 32.6961 36.5734 32.6944 36.9031C32.6944 37.3059 32.686 37.7068 32.686 38.1096C32.6844 39.1473 32.686 40.183 32.686 41.2207C32.686 41.3468 32.6944 41.475 32.6961 41.6011C32.6961 41.7049 32.6575 41.7558 32.57 41.766C32.5179 41.7721 32.4658 41.77 32.4137 41.77C31.3731 41.77 30.3326 41.77 29.292 41.77C29.292 41.7659 29.292 41.7619 29.292 41.7598Z" fill="#7CACE3"/>
<path d="M63.8323 37.7658C62.1613 28.6626 55.997 21.7589 48.3987 20.4771C48.1566 20.4364 47.9246 20.3184 47.6876 20.237H43.8212C42.7689 20.5361 41.6913 20.7436 40.6693 21.1505C33.3685 24.05 28.9945 30.0787 27.5706 39.2287C27.5202 39.5502 27.4227 39.8615 27.347 40.1769V44.8566C27.5236 45.8414 27.6833 46.8323 27.8766 47.8151C29.5879 56.493 35.4715 63.1322 42.7369 64.6053C43.1068 64.6806 43.4598 64.8657 43.8212 65H47.6876C48.3331 64.821 48.9769 64.6419 49.6208 64.4629C57.3872 62.3 62.7043 55.4431 64.0962 45.8028C64.1433 45.4813 64.2508 45.172 64.3298 44.8566V40.1769C64.1634 39.3732 63.9802 38.5735 63.8323 37.7658ZM45.7275 62.3061C36.9088 62.3244 29.5408 53.3779 29.529 42.6368C29.5156 31.8062 36.8684 22.8902 45.825 22.8739C54.6874 22.8597 62.1092 31.7797 62.1092 42.4476C62.1092 53.4695 54.8354 62.2878 45.7275 62.3061Z" fill="#7CACE3"/>
<path d="M45.825 22.8739C36.8685 22.8902 29.5156 31.8062 29.5291 42.6368C29.5408 53.3779 36.9088 62.3244 45.7275 62.3061C54.8354 62.2878 62.1092 53.4695 62.1092 42.4476C62.1092 31.7797 54.6875 22.8597 45.825 22.8739ZM53.0266 34.5632C51.1606 36.8115 49.3149 39.0842 47.4304 41.3102C46.9934 41.827 46.8202 42.3438 46.8236 43.0824C46.8522 47.5261 46.8421 51.9679 46.8337 56.4096C46.8303 57.49 46.2587 58.0984 45.5342 57.8277C44.9593 57.6141 44.7996 57.079 44.803 56.4014C44.8131 53.9273 44.8063 51.451 44.8063 48.9748H44.8013C44.8013 46.5678 44.7828 44.1608 44.8181 41.7537C44.8248 41.3326 44.9728 40.8076 45.2098 40.5126C47.3027 37.9184 49.4275 35.3608 51.5523 32.8052C52.181 32.0483 52.8703 32.0137 53.2821 32.6811C53.731 33.4075 53.4906 34.0016 53.0266 34.5632Z" fill="#415A77"/>
<path d="M53.0265 34.5632C51.1606 36.8115 49.3148 39.0842 47.4304 41.3102C46.9933 41.827 46.8202 42.3438 46.8235 43.0824C46.8521 47.5261 46.842 51.9678 46.8336 56.4096C46.8302 57.49 46.2587 58.0983 45.5342 57.8277C44.9592 57.6141 44.7995 57.079 44.8029 56.4014C44.813 53.9273 44.8063 51.451 44.8063 48.9748H44.8012C44.8012 46.5678 44.7827 44.1608 44.818 41.7537C44.8248 41.3326 44.9727 40.8076 45.2097 40.5126C47.3026 37.9184 49.4274 35.3608 51.5523 32.8052C52.181 32.0483 52.8702 32.0137 53.2821 32.6811C53.7309 33.4075 53.4905 34.0016 53.0265 34.5632Z" fill="#7CACE3"/>
</g>
<defs>
<clipPath id="clip0_499_500">
<rect width="64.3299" height="65" fill="white"/>
</clipPath>
</defs>
</svg>
