<svg width="65" height="65" viewBox="0 0 65 65" fill="none" xmlns="http://www.w3.org/2000/svg">
<g clip-path="url(#clip0_477_442)">
<path d="M59.6186 -7.83386e-07C61.0802 0.00494808 62.2608 1.13329 62.3127 2.57341C62.3645 4.03167 61.2525 5.24909 59.7691 5.32003C59.443 5.33487 59.2624 5.45694 59.0835 5.70604C55.6336 10.4784 52.177 15.2458 48.7153 20.0099C48.5765 20.2013 48.5381 20.3563 48.6184 20.5906C49.1184 22.0571 48.2354 23.5995 46.6952 23.9822C45.2069 24.3517 43.6684 23.385 43.3975 21.8855C43.3507 21.6249 43.2369 21.4962 43.0112 21.3857C40.0947 19.9621 37.1833 18.5285 34.2635 17.1099C34.123 17.0422 33.8972 17.0373 33.7534 17.1C33.1213 17.3755 32.4808 17.4299 31.8052 17.3029C31.638 17.2715 31.4022 17.3227 31.2701 17.4249C28.1396 19.8631 25.0191 22.3161 21.8919 24.7575C21.6996 24.9076 21.6377 25.0544 21.6461 25.2953C21.6829 26.3675 21.2113 27.194 20.2748 27.7202C19.3634 28.2333 18.4269 28.1986 17.5373 27.6427C17.3333 27.514 17.1794 27.5322 16.9787 27.613C14.1108 28.7479 11.2378 29.873 8.37316 31.0162C8.21931 31.0772 8.06045 31.2603 8.01195 31.417C7.62231 32.6905 6.50021 33.5054 5.21088 33.418C3.93827 33.3322 2.90312 32.3969 2.7175 31.1102C2.56365 30.0495 2.95998 29.1768 3.84295 28.5648C4.75769 27.9314 5.74099 27.8819 6.71259 28.4461C6.98015 28.6011 7.18083 28.6094 7.45843 28.4988C10.2712 27.3689 13.0873 26.2488 15.9051 25.1336C16.1493 25.0363 16.2881 24.9159 16.365 24.6453C16.758 23.2712 18.161 22.4662 19.5741 22.7978C19.84 22.8604 20.0223 22.8192 20.2347 22.6526C23.32 20.2227 26.4104 17.7994 29.5058 15.3811C29.7132 15.2194 29.8152 15.0742 29.8018 14.7872C29.7349 13.4213 30.8002 12.1989 32.1464 12.0554C33.6196 11.8987 34.9073 12.806 35.1598 14.2065C35.2066 14.4655 35.322 14.5958 35.5478 14.7064C38.4408 16.1184 41.3289 17.5355 44.2152 18.9624C44.4544 19.0812 44.6383 19.0795 44.8892 18.9772C45.2203 18.8436 45.5882 18.7562 45.946 18.7347C46.227 18.7182 46.3808 18.6193 46.5347 18.4065C49.9779 13.6457 53.4278 8.88816 56.8828 4.1356C57.0617 3.88981 57.1219 3.69515 57.0199 3.38007C56.4764 1.71396 57.8142 -0.00494965 59.6186 -7.83386e-07Z" fill="#7CACE3"/>
<path d="M37.9007 29.4276H27.1111V64.1471H37.9007V29.4276Z" fill="#7CACE3"/>
<path d="M51.4276 36.1151H40.6548V64.157H51.4276V36.1151Z" fill="#7CACE3"/>
<path d="M64.9999 20.0247H54.2271V65H64.9999V20.0247Z" fill="#7CACE3"/>
<path d="M24.3318 40.1254V64.1603C24.1746 64.1669 24.0425 64.1768 23.9087 64.1768C20.5992 64.1785 17.2898 64.1719 13.9803 64.1867C13.5957 64.1884 13.5121 64.0729 13.5121 63.7133C13.5221 55.9931 13.5204 48.2712 13.5204 40.551V40.1254H24.3318Z" fill="#7CACE3"/>
<path d="M10.8013 45.4916H0V64.1471H10.8013V45.4916Z" fill="#7CACE3"/>
<path d="M64.9046 53.776C64.7708 54.5051 64.5468 55.2078 64.2926 55.9007C64.1839 56.1943 64.0635 56.4847 63.9564 56.7799C63.8327 57.1264 63.8059 57.4843 63.8762 57.8456C63.9263 58.1029 63.9782 58.3586 63.9999 58.6193C64.0317 59.002 64.03 59.383 64.0033 59.7657C63.9564 60.4371 63.8477 61.0986 63.6922 61.7519C63.5735 62.2484 63.331 62.6839 62.9798 63.0584C62.7758 63.2745 62.5484 63.4626 62.2842 63.6028C62.1036 63.7001 61.9112 63.7677 61.7022 63.7562C61.4647 63.743 61.2825 63.6308 61.1437 63.4477C60.9982 63.2547 60.9296 63.0304 60.8811 62.7994C60.8443 62.6179 60.8226 62.4348 60.8125 62.2501C60.8059 62.1445 60.8025 62.0389 60.8025 61.9334C60.7958 61.4484 60.7707 60.965 60.6771 60.4866C60.6219 60.1996 60.5467 59.9175 60.4145 59.6519C60.3209 59.4606 60.2055 59.2841 60.0249 59.157C59.9179 59.0828 59.8008 59.0465 59.6654 59.0432C59.3978 59.0366 59.2239 59.1785 59.075 59.3682C58.9028 59.5876 58.8041 59.8416 58.7289 60.1039C58.5951 60.5691 58.5433 61.0459 58.5232 61.5275C58.5132 61.7684 58.5098 62.0092 58.4964 62.2501C58.4948 62.2963 58.4914 62.3408 58.4881 62.387C58.4663 62.6922 58.4145 62.9924 58.2774 63.2712C58.1854 63.4592 58.0566 63.6127 57.8593 63.7001C57.6536 63.7892 57.4479 63.7727 57.2422 63.7001C56.9813 63.6061 56.7589 63.451 56.5516 63.2712C56.2171 62.9776 55.9646 62.6377 55.7924 62.2517C55.7021 62.0505 55.6335 61.8377 55.585 61.6117C55.4395 60.9287 55.3258 60.2408 55.2957 59.5431C55.2923 59.4507 55.2957 59.3583 55.2957 59.2659C55.2857 58.8947 55.3057 58.5252 55.3726 58.159C55.401 58.0007 55.4378 57.8439 55.4579 57.6856C55.5014 57.3359 55.4495 56.9977 55.3174 56.6711C55.0499 56.0096 54.804 55.3398 54.6134 54.6519C54.498 54.2395 54.4027 53.8222 54.3492 53.3982C54.3057 53.0567 54.289 52.7136 54.3508 52.3705C54.3642 52.3012 54.3793 52.2336 54.3977 52.1676C54.4796 51.8822 54.6201 51.6249 54.8241 51.4005C55.3693 50.7968 56.0499 50.4305 56.8693 50.3398C56.9797 50.3266 57.09 50.32 57.1971 50.32C57.7439 50.3151 58.2606 50.4569 58.7473 50.7324C58.9162 50.8281 59.0817 50.932 59.2406 51.0426C59.5082 51.2273 59.8058 51.2306 60.0684 51.0409C60.3644 50.8298 60.6754 50.645 61.0182 50.518C61.035 50.5114 61.0534 50.5048 61.0701 50.4982C61.5116 50.3431 61.9648 50.2854 62.433 50.3365C63.2139 50.4207 63.8678 50.7605 64.408 51.3131C64.7759 51.6909 64.9698 52.1495 64.9949 52.6757C65.0133 53.0468 64.9715 53.4131 64.9046 53.776Z" fill="#415A77"/>
</g>
<defs>
<clipPath id="clip0_477_442">
<rect width="65" height="65" fill="white"/>
</clipPath>
</defs>
</svg>
